<svg width="210" height="155" viewBox="0 0 210 155" fill="none" xmlns="http://www.w3.org/2000/svg">
<g opacity="0.9">
<path d="M161.401 123.515C160.457 124.011 159.501 124.438 158.5 124.842L156.726 123.238L156.485 123.33C154.688 123.988 152.777 124.577 150.635 125.108C142.713 127.059 138.856 132.509 138.223 133.745C137.981 134.045 132.281 141.307 130.22 145.845C130.036 146.238 130.025 146.676 130.163 147.08C130.312 147.485 130.612 147.808 131.003 147.993C131.211 148.085 131.441 148.143 131.671 148.143C132.293 148.143 132.869 147.773 133.145 147.196C134.676 143.836 138.534 138.617 140.698 135.8L140.894 135.534C140.894 135.534 144.061 130.061 151.407 128.249C153.917 127.637 155.909 126.99 157.659 126.228L157.935 126.124L158.189 126.009L159.144 126.967L161.919 124.196L161.413 123.515H161.401Z" fill="#99AFFB"/>
<path d="M22.5954 62.7241C22.9869 62.7241 23.3668 62.5855 23.6547 62.32C23.908 62.1006 29.93 56.7663 32.2675 50.7738C35.5491 42.2989 38.0362 37.2648 50.8862 32.2653C58.3706 29.3556 61.6176 23.3632 62.0897 22.1046C62.2855 21.7698 67.0179 13.8376 68.4917 9.06899C68.6184 8.65333 68.5838 8.21458 68.3766 7.83355C68.1808 7.45253 67.8354 7.16388 67.4209 7.03687C67.2597 6.99068 67.0985 6.96759 66.9488 6.96759C66.2349 6.96759 65.6246 7.42944 65.4059 8.11066C64.5999 10.697 62.4697 15.0499 59.3838 20.3612L59.2111 20.6729C59.1075 20.9154 56.678 26.5384 49.7118 29.2517C35.6412 34.7246 32.7626 40.5554 29.2622 49.6076C27.3163 54.6187 22.1233 59.3757 21.5361 59.8953C21.2137 60.1839 21.0179 60.5765 20.9949 61.0037C20.9603 61.4309 21.11 61.8466 21.3979 62.1814C21.6973 62.5278 22.1463 62.7356 22.6069 62.7356L22.5954 62.7241Z" fill="#99AFFB"/>
<path d="M21.6282 77.6648C21.7894 77.6648 21.9391 77.6417 22.0888 77.5956C22.4112 77.4916 30.1834 75.09 36.0096 67.9083C38.3931 64.964 39.4064 62.0082 40.3966 59.1448C41.8014 55.0459 43.2637 50.8084 49.1821 46.3401C53.1661 43.3265 56.0216 41.7447 58.3245 40.4746C62.1358 38.3616 64.6574 36.9646 68.2845 31.6764C69.2977 30.187 70.2764 28.5936 71.2206 27.0464C75.7458 19.6453 80.8582 11.2628 96.0111 3.7924C96.4026 3.60766 96.6904 3.27282 96.8171 2.86871C96.9553 2.46459 96.9322 2.01429 96.7365 1.63327C96.4602 1.07905 95.9075 0.732666 95.2857 0.732666C95.0439 0.732666 94.8021 0.790397 94.5718 0.894312C78.5898 8.7688 72.9708 17.9711 68.4457 25.3722C67.4785 26.954 66.5688 28.4435 65.6016 29.8521C62.4006 34.5283 60.2704 35.706 56.7355 37.6573C54.3521 38.9736 51.3929 40.6132 47.2131 43.7653C40.5003 48.8456 38.8767 53.5564 37.3108 58.1402C36.3781 60.8421 35.503 63.3938 33.488 65.8762C28.3526 72.2035 21.4324 74.4088 21.1446 74.5012C20.7301 74.6282 20.3961 74.9053 20.1889 75.2863C19.9931 75.6673 19.9471 76.1061 20.0622 76.5102C20.258 77.1914 20.9028 77.6648 21.6051 77.6648H21.6282Z" fill="#99AFFB"/>
<path d="M48.307 66.9269C50.6444 60.438 53.0625 53.7296 61.2377 51.7668C74.0186 48.707 76.333 43.1533 79.8334 34.7362C80.5818 32.935 81.3648 31.076 82.332 29.0439C87.3177 18.6062 98.9012 16.1353 99.0394 16.1122C99.3042 16.0429 105.614 14.4034 112.12 5.70908C112.385 5.3627 112.488 4.93549 112.431 4.50828C112.373 4.08107 112.143 3.70005 111.797 3.44603C111.509 3.2382 111.176 3.12274 110.83 3.12274C110.312 3.12274 109.851 3.35367 109.541 3.76933C103.933 11.2628 98.5443 12.8908 98.3485 12.9485C97.8074 13.0525 85.1646 15.6388 79.4304 27.6468C78.3711 29.8752 77.4614 32.0459 76.8051 33.6393C73.6156 41.3059 71.6812 45.936 60.4892 48.6147C50.6214 50.9816 47.7889 58.8677 45.2672 65.8416C43.7703 69.9982 42.3541 73.9239 39.6367 76.2562C32.1408 82.699 21.2712 86.0127 21.1676 86.0474C20.3155 86.3014 19.8319 87.2135 20.0853 88.0679C20.2925 88.7607 20.9143 89.2226 21.6282 89.2226C21.7894 89.2226 21.9391 89.1995 22.0888 89.1533C22.5608 89.0147 33.7874 85.5393 41.7323 78.7155C45.106 75.8175 46.6605 71.4992 48.307 66.9269Z" fill="#99AFFB"/>
<path d="M42.377 91.9359C53.6957 86.1282 55.2962 81.8446 56.8506 77.6764C57.2306 76.6603 57.5875 75.702 58.1172 74.7437C58.6814 73.7161 59.142 72.6076 59.5795 71.5338C61.4679 66.9846 63.8168 61.3386 74.9973 57.5168C86.4541 53.6026 87.3407 48.3491 88.1237 43.7076C88.3885 42.1142 88.6534 40.6016 89.3557 39.2161C92.7985 32.4847 100.317 26.4691 109.448 23.1323C120.928 18.941 121.711 7.2101 121.711 7.09464C121.746 6.66743 121.596 6.25177 121.308 5.92847C121.02 5.59363 120.606 5.4089 120.088 5.3858C119.236 5.3858 118.545 6.03239 118.487 6.89835C118.464 7.29092 117.727 16.6664 108.331 20.0956C98.4521 23.698 90.2769 30.2909 86.4656 37.7382C85.533 39.574 85.2221 41.4099 84.9227 43.188C84.2318 47.2869 83.5755 51.1664 73.938 54.457C61.3873 58.7407 58.6123 65.4259 56.5628 70.3677C56.1598 71.3491 55.7337 72.3536 55.2732 73.1965C54.6168 74.3973 54.1908 75.5404 53.7878 76.6257C52.4752 80.1704 51.1165 83.8305 40.9032 89.0609C26.7866 96.3004 24.4952 102.732 24.4031 103.009C24.1383 103.84 24.5988 104.752 25.4279 105.041C25.5891 105.099 25.7618 105.122 25.946 105.122C26.6369 105.122 27.2471 104.683 27.4659 104.036C27.5465 103.817 29.6537 98.4595 42.3655 91.9359H42.377Z" fill="#99AFFB"/>
<path d="M45.4399 102.397C56.4246 97.351 63.909 90.712 65.4749 84.6272C66.9027 79.085 68.9062 72.8847 74.7901 69.5825C76.736 68.4856 78.8316 67.7236 80.8466 66.9846C85.5675 65.2642 90.4381 63.4861 93.8118 57.5745C95.2051 55.1382 96.2183 52.7944 97.1971 50.5198C99.3733 45.4856 101.25 41.1443 106.812 37.0338C110.485 34.332 113.939 33.0042 116.99 31.8265C120.894 30.3255 124.267 29.0323 126.305 25.453C129.506 19.8416 132.086 12.6483 132.189 12.3481C132.489 11.5052 132.051 10.5815 131.211 10.2813C131.038 10.2236 130.854 10.189 130.669 10.189C129.99 10.189 129.368 10.6277 129.149 11.2628C129.046 11.5514 126.582 18.456 123.507 23.8481C122.034 26.4229 119.305 27.4736 115.827 28.8014C112.592 30.0368 108.93 31.4455 104.889 34.4244C98.6133 39.0544 96.4601 44.0424 94.1803 49.319C93.2591 51.455 92.2919 53.6719 90.9908 55.958C88.2043 60.842 84.0822 62.3546 79.6952 63.948C77.5535 64.7331 75.3428 65.5413 73.1896 66.7537C66.2003 70.6794 63.9205 77.6186 62.3315 83.8189C61.0304 88.8877 54.0411 94.8802 44.0927 99.4525C33.0504 104.521 29.8149 115.271 29.6882 115.721C29.5616 116.137 29.6076 116.575 29.8149 116.956C30.0221 117.337 30.3676 117.615 30.7706 117.73C30.9203 117.776 31.0699 117.799 31.2311 117.799C31.945 117.799 32.5783 117.326 32.7741 116.645C32.8086 116.552 35.7908 106.83 45.4284 102.408L45.4399 102.397Z" fill="#99AFFB"/>
<path d="M40.5579 127.013C40.7651 126.54 45.7969 115.328 50.3451 112.477C52.0262 111.426 53.8339 110.872 55.7453 110.283C59.3378 109.186 63.4139 107.927 67.4555 103.159C70.5643 99.4871 71.9346 95.7577 73.2587 92.1553C74.5253 88.7029 75.7228 85.4469 78.4171 82.2948C82.4472 77.5724 85.4409 76.5102 87.8589 75.6558C88.7225 75.344 89.5516 75.0554 90.3115 74.6282C90.726 74.3857 91.3133 74.1894 91.9811 73.9469C94.7561 72.9771 98.9473 71.4991 102.505 63.9479L103.231 62.4008C106.8 54.8034 108.424 51.3395 115.39 45.3702C118.637 42.5875 122.391 40.3476 126.547 38.7196C130.692 37.0915 132.961 35.3596 133.882 33.1197C134.02 32.7848 134.181 32.4615 134.389 32.0228C134.642 31.5032 134.895 30.9836 135.102 30.4063C136.104 27.6814 137.682 25.1413 140.537 20.5343L141.815 18.4907C142.276 17.7286 142.046 16.7356 141.286 16.2622C141.032 16.1006 140.733 16.0198 140.434 16.0198C139.869 16.0198 139.363 16.3084 139.063 16.7818L138.396 17.8556C134.907 23.4902 133.168 26.319 132.074 29.2863C131.89 29.7944 131.66 30.2447 131.406 30.7642C131.234 31.1222 131.061 31.4801 130.9 31.8611C130.37 33.1312 128.401 34.4937 125.361 35.6945C120.871 37.461 116.806 39.8857 113.294 42.8993C105.798 49.3189 103.968 53.2331 100.306 61.0152L99.5921 62.5393C96.6099 68.8666 93.4434 69.9751 90.8872 70.8757C90.1158 71.1412 89.3904 71.4068 88.7225 71.7763C88.1813 72.0765 87.4675 72.3305 86.7421 72.5845C84.1283 73.5197 80.5358 74.7898 75.9531 80.1588C72.8787 83.7496 71.5315 87.4444 70.2189 91.0122C68.9408 94.4991 67.7318 97.7898 64.9799 101.034C61.5601 105.087 58.1058 106.138 54.7551 107.165C52.7286 107.789 50.6445 108.435 48.6179 109.694C43.091 113.158 37.8059 125.166 37.5871 125.674C37.4144 126.066 37.4029 126.505 37.5641 126.909C37.7253 127.313 38.0247 127.625 38.4277 127.81C38.635 127.902 38.8537 127.948 39.0725 127.948C39.7173 127.948 40.293 127.567 40.5463 126.979L40.5579 127.013Z" fill="#99AFFB"/>
<path d="M150.9 118.088C150.9 118.088 150.946 118.042 150.969 118.019L151.015 117.973C151.015 117.973 151.038 117.949 151.05 117.926L151.096 117.869L151.246 117.695L151.326 117.592L149.3 115.952L149.069 115.744L148.989 115.686L148.712 115.987C146.709 118.215 144.233 119.866 141.378 120.894C127.158 125.997 124.141 131.747 120.387 140.695C118.211 145.903 112.454 150.729 112.396 150.775C112.062 151.052 111.866 151.445 111.82 151.872C111.786 152.299 111.912 152.727 112.189 153.061C112.5 153.431 112.949 153.639 113.432 153.639C113.812 153.639 114.169 153.512 114.469 153.269C115.125 152.715 120.963 147.704 123.369 141.954C126.881 133.571 129.495 128.595 142.46 123.942C145.88 122.718 148.724 120.744 150.912 118.088H150.9Z" fill="#99AFFB"/>
<path d="M119.443 125.535C122.632 120.871 124.774 119.693 128.309 117.73C130.692 116.414 133.652 114.774 137.82 111.622C139.248 110.548 140.307 109.567 141.263 108.47L141.389 108.181L141.631 107.916L139.524 106.195L139.363 106.057L139.282 105.999L139.006 106.276C138.016 107.304 136.991 108.204 135.885 109.036C131.913 112.038 129.057 113.62 126.754 114.901C122.943 117.014 120.422 118.4 116.795 123.711C115.793 125.166 114.86 126.701 113.858 128.341C109.345 135.742 104.221 144.125 89.0679 151.595C88.2734 151.988 87.951 152.957 88.331 153.766C88.6073 154.32 89.16 154.666 89.7818 154.666C90.0236 154.666 90.2654 154.609 90.4957 154.505C106.478 146.619 112.097 137.428 116.61 130.027C117.578 128.445 118.487 126.955 119.454 125.535H119.443Z" fill="#99AFFB"/>
<path d="M108.055 126.274C109.08 124.115 109.92 122.106 110.68 120.282C113.87 112.615 115.804 107.997 126.996 105.306C129.737 104.648 132.028 103.505 133.974 101.831L134.055 101.692H134.089L134.492 101.473L134.446 101.311L134.527 101.231L134.642 101.115H134.619L134.711 101.011L132.408 99.0829L132.132 99.3023C130.462 100.676 128.528 101.612 126.236 102.154C113.455 105.226 111.164 110.721 107.687 119.069C107.019 120.686 106.178 122.706 105.142 124.877C100.202 135.222 88.9297 137.705 88.4461 137.809C88.1813 137.878 81.8944 139.483 75.3658 148.2C75.1125 148.547 74.9973 148.974 75.0549 149.39C75.1125 149.817 75.3428 150.198 75.6882 150.463C75.9761 150.671 76.31 150.787 76.6554 150.787C77.1735 150.787 77.6456 150.556 77.945 150.14C83.564 142.624 88.9412 141.019 89.137 140.961C89.6782 140.857 102.344 138.224 108.055 126.263V126.274Z" fill="#99AFFB"/>
<path d="M100.985 116.194C101.918 114.359 102.229 112.523 102.528 110.756C103.219 106.657 103.875 102.778 113.513 99.4871C117.727 98.0438 121.078 96.2196 123.761 93.8872C124.29 93.4369 124.797 92.9866 125.258 92.5248L125.396 92.2477L125.58 92.0629L125.672 91.959L123.553 90.2271L123.427 90.1116L123.346 90.0539L123.07 90.331C120.548 92.8596 117.094 94.8456 112.488 96.4158C101.031 100.33 100.145 105.595 99.3502 110.248C99.0854 111.83 98.8206 113.331 98.1182 114.705C94.6754 121.436 87.168 127.452 78.0256 130.789C66.5342 134.98 65.7628 146.711 65.7513 146.826C65.7282 147.254 65.8664 147.669 66.1543 147.993C66.4421 148.316 66.8336 148.512 67.2827 148.535H67.3517C68.2038 148.535 68.9062 147.866 68.9638 147.023C68.9868 146.63 69.6777 137.278 79.1079 133.837C88.9873 130.235 97.1625 123.642 100.974 116.194H100.985Z" fill="#99AFFB"/>
<path d="M82.5739 118.769C88.8492 114.139 90.9909 109.197 93.2592 103.955C94.1919 101.796 95.1591 99.5564 96.4717 97.2356C99.2582 92.3516 103.38 90.839 107.744 89.2572C109.886 88.4836 112.085 87.6754 114.273 86.4515C115.551 85.7356 116.518 84.9389 117.451 83.8651C117.532 83.7959 117.601 83.7381 117.681 83.6573L117.9 83.3571L117.969 83.2647L117.785 82.9992C117.451 82.5258 117.105 82.0293 116.587 81.452L116.299 81.2788L116.23 81.198L116.15 81.1056L116.081 81.0248L115.758 81.3365C114.734 82.3179 113.766 83.0569 112.73 83.6458C110.784 84.7311 108.7 85.5047 106.673 86.2436C101.953 87.964 97.0705 89.7421 93.7083 95.6538C92.315 98.1016 91.3133 100.422 90.323 102.697C88.1468 107.731 86.27 112.072 80.697 116.183C77.0239 118.896 73.5696 120.224 70.5183 121.39C66.6149 122.891 63.2412 124.184 61.1916 127.764C57.9791 133.398 55.4114 140.568 55.3078 140.869C55.0084 141.711 55.446 142.635 56.2865 142.935C56.4592 142.993 56.6435 143.028 56.8277 143.028C57.5186 143.028 58.1288 142.589 58.3591 141.931C58.8082 140.707 61.1571 134.368 64.0012 129.369C65.4635 126.794 68.2039 125.743 71.6812 124.404C74.9168 123.157 78.5899 121.748 82.6084 118.781L82.5739 118.769Z" fill="#99AFFB"/>
<path d="M65.6822 117.06C75.2852 112.938 78.8662 106.172 81.6872 99.5795C84.3125 98.1593 87.0183 96.6698 89.8163 94.4183C93.2131 91.6819 94.3185 88.8762 95.5966 85.6201C95.9305 84.7657 96.2874 83.8651 96.6674 82.9645C100.03 81.6252 103.818 80.1011 107.307 77.2838C112.189 73.3235 112.741 71.834 113.559 68.5087L114.538 68.3009C116.069 67.9776 117.819 67.5966 119.903 67.1116C127.526 65.3104 133.594 54.457 136.611 47.9565C142.138 47.8757 150.163 45.451 157.59 34.5514C157.832 34.1935 157.924 33.7663 157.843 33.3391C157.763 32.9119 157.532 32.5424 157.164 32.2999C156.899 32.1152 156.577 32.0228 156.254 32.0228C155.725 32.0228 155.218 32.2884 154.919 32.7271C148.931 41.5022 142.702 44.204 138.165 44.816C137.946 44.8391 137.728 44.8621 137.509 44.8737C138.407 42.2296 141.424 36.4219 151.522 28.9515C151.867 28.6975 152.098 28.328 152.167 27.8893C152.224 27.4621 152.121 27.0349 151.867 26.6885C151.568 26.2728 151.084 26.0303 150.566 26.0303C150.221 26.0303 149.887 26.1458 149.611 26.3421C137.394 35.3712 134.803 42.2412 134.262 44.6659C131.924 44.3541 130.451 43.6383 130.232 43.5228L129.391 43.2226L128.769 43.569C128.343 43.8114 118.43 49.4806 114.112 58.0248C112.603 61.0268 111.555 63.6247 111.003 65.7607C105.269 67.077 103.196 68.1623 98.2218 74.3049C96.5983 76.3139 95.3663 78.2537 94.353 80.3897C89.517 82.3295 85.6136 84.2 83.1035 88.7145C81.7563 91.1392 80.6739 93.714 79.6376 96.1964L79.2346 97.1663L79.2116 97.2471C73.8689 100.157 67.8354 103.517 63.2987 114.532C62.1933 114.959 61.1916 115.305 60.1553 115.594C54.3405 117.257 50.4832 121.252 48.687 127.463C44.7721 128.618 41.6862 128.734 41.5596 128.734C41.1335 128.734 40.7305 128.918 40.4311 129.23C40.1318 129.542 39.9706 129.957 39.9821 130.385C39.9936 131.262 40.7305 131.966 41.6286 131.966C41.6517 131.966 44.1273 131.909 47.3513 131.089C47.5125 131.054 47.6737 131.02 47.8349 130.985C47.1901 135.072 47.5701 138.352 47.5816 138.502C47.6852 139.31 48.3761 139.922 49.1821 139.922H49.3778C49.8039 139.853 50.1838 139.633 50.4487 139.298C50.7135 138.952 50.8286 138.536 50.7711 138.109C50.7711 138.074 50.299 134.333 51.151 130.142C56.1713 128.422 62.6539 124.762 65.6592 117.06H65.6822ZM52.5328 126.147C54.2599 122.337 57.127 119.831 61.0419 118.711C61.134 118.688 61.2146 118.665 61.3067 118.631C59.6487 121.332 57.1731 123.561 54.0296 125.362C53.5345 125.628 53.0624 125.905 52.5328 126.147ZM67.7548 112.511C70.3916 107.431 73.3623 104.614 76.8627 102.351C75.3082 105.387 73.2587 108.424 69.8965 111.068C69.2286 111.564 68.5262 112.061 67.7548 112.523V112.511ZM83.7598 94.7647C84.4046 93.2753 85.107 91.7512 85.9245 90.2963C87.4213 87.6061 89.6321 86.0589 92.4762 84.7195C91.3708 87.5137 90.4266 89.7537 87.7898 91.8897C86.5578 92.8827 85.3027 93.7256 84.2088 94.4645C84.0591 94.5684 83.9095 94.6723 83.7598 94.7647ZM105.28 74.7552C103.242 76.4063 101.077 77.5494 99.1084 78.5423C99.6151 77.7918 100.145 77.0644 100.732 76.337C104.497 71.6724 106.132 70.3907 109.99 69.34C109.471 70.8872 108.596 72.0649 105.28 74.7552ZM119.155 63.948L118.015 64.2135C116.76 64.5022 115.632 64.7677 114.572 65.0679C115.171 63.3591 115.965 61.5233 117.002 59.4681C119.19 55.1267 123.68 50.6121 129.656 46.7557C130.37 47.0328 131.602 47.4139 133.145 47.5755C131.199 51.6744 125.545 62.4354 119.166 63.9364L119.155 63.948Z" fill="#99AFFB"/>
</g>
<path d="M201.644 45.0122C197.153 40.3938 191.627 37.9344 185.225 37.4264C179.778 36.9877 174.689 38.1654 169.98 40.9365C165.593 43.5112 162.173 47.079 159.478 51.3742C159.375 51.5474 159.26 51.709 159.133 51.9169C159.006 51.709 158.891 51.5474 158.788 51.3742C156.093 47.079 152.673 43.5112 148.286 40.9365C143.577 38.1654 138.488 36.9992 133.041 37.4264C126.639 37.9344 121.124 40.3822 116.622 45.0122C106.443 55.4731 107.825 73.1041 114.572 84.9967C118.268 91.5087 123.841 96.7853 129.38 101.692C135.218 106.865 141.136 111.957 146.962 117.141C150.843 120.594 154.619 124.15 158.442 127.66C158.672 127.868 158.891 128.087 159.121 128.295C159.352 128.087 159.571 127.868 159.801 127.66C163.624 124.15 167.4 120.594 171.281 117.141C177.107 111.957 183.025 106.865 188.863 101.692C194.413 96.7738 199.974 91.4972 203.671 84.9967C210.43 73.0925 211.8 55.4731 201.621 45.0122H201.644Z" fill="#C83E4D"/>
</svg>
