<svg width="236" height="41" viewBox="0 0 236 41" fill="none" xmlns="http://www.w3.org/2000/svg">
<g clip-path="url(#clip0_2_19071)">
<path d="M29.7628 34.987V40.8303H0.5V35.5002L20.9085 6.68047H0.5V0.837158H29.1439V6.11256L8.61986 34.987H29.7628Z" fill="#282B2D"/>
<path d="M52.9323 22.3904V40.8235H45.6557V22.3904L29.5928 0.837158H37.767L49.2668 16.547L60.8277 0.837158H69.0564L52.9323 22.3904Z" fill="#282B2D"/>
<path d="M100.944 23.6972C102.202 25.401 102.835 27.481 102.835 29.9374C102.835 33.338 101.624 36.0065 99.1965 37.936C96.7687 39.8656 93.4364 40.8303 89.186 40.8303H71.1442V0.837158H88.6216C92.7563 0.837158 96.0002 1.75402 98.3464 3.58776C100.693 5.42149 101.869 7.98735 101.869 11.2716C101.869 13.3928 101.311 15.2265 100.203 16.7728C99.0945 18.326 97.5643 19.455 95.6058 20.1735C97.8976 20.8166 99.6725 21.9867 100.931 23.6904L100.944 23.6972ZM78.2507 17.6829H87.4383C92.4367 17.6829 94.9393 15.8081 94.9393 12.0653C94.9393 10.1769 94.3205 8.77421 93.076 7.86419C91.8383 6.95416 89.9545 6.50257 87.4383 6.50257H78.2507V17.6829ZM94.1505 33.7349C95.3542 32.7906 95.9526 31.3127 95.9526 29.3079C95.9526 27.3031 95.3405 25.8115 94.1232 24.8262C92.8991 23.8409 90.995 23.3483 88.3972 23.3483H78.2507V35.1444H88.3972C91.029 35.1444 92.9468 34.6723 94.1505 33.728V33.7349Z" fill="#282B2D"/>
<path d="M109.649 0.837158H136.26V6.62573H116.749V17.6281H135.131V23.3551H116.749V35.0417H136.26V40.8303H109.649V0.837158Z" fill="#282B2D"/>
<path d="M176.179 40.8303H168.283L161.462 28.0695C160.823 26.8584 160.034 26.0099 159.096 25.5173C158.157 25.0246 156.974 24.7783 155.546 24.7783H150.024V40.8303H142.863V0.837158H160.456C164.965 0.837158 168.399 1.84982 170.745 3.87513C173.091 5.90045 174.268 8.82211 174.268 12.6401C174.268 15.7054 173.411 18.2302 171.704 20.2145C169.99 22.1988 167.576 23.4988 164.461 24.1009C166.563 24.6688 168.256 26.1605 169.535 28.5826L176.186 40.8372L176.179 40.8303ZM165.468 17.6008C166.746 16.5607 167.386 14.9596 167.386 12.8043C167.386 10.649 166.746 9.01369 165.468 8.00787C164.189 7.0089 162.176 6.50257 159.436 6.50257H149.963V19.1608H159.436C162.176 19.1608 164.189 18.6408 165.468 17.6008Z" fill="#282B2D"/>
<path d="M182.041 0.837158H189.311V40.8303H182.041V0.837158Z" fill="#282B2D"/>
<path d="M224.272 31.4701H204.931L200.926 40.8303H193.595L211.589 0.837158H217.513L235.5 40.8303H228.285L224.279 31.4701H224.272ZM221.851 25.7978L214.575 8.78105L207.298 25.7978H221.844H221.851Z" fill="#282B2D"/>
</g>
<defs>
<clipPath id="clip0_2_19071">
<rect width="235" height="40" fill="white" transform="translate(0.5 0.837158)"/>
</clipPath>
</defs>
</svg>
