<svg width="234" height="55" viewBox="0 0 234 55" fill="none" xmlns="http://www.w3.org/2000/svg">
<path d="M32.5815 52.9227C32.5815 53.134 32.5072 53.3329 32.371 53.507C32.2348 53.681 31.9996 53.8178 31.6777 53.9296C31.3559 54.0415 30.9226 54.1286 30.3902 54.1907C29.8579 54.2529 29.177 54.2902 28.3599 54.2902C27.5428 54.2902 26.8371 54.2529 26.2924 54.1907C25.7477 54.1286 25.3144 54.0415 25.0049 53.9296C24.6954 53.8178 24.4726 53.681 24.324 53.507C24.1878 53.3329 24.1136 53.1465 24.1136 52.9227V36.0403H8.55186V52.9227C8.55186 53.134 8.48996 53.3329 8.35378 53.507C8.22998 53.681 7.99476 53.8178 7.67288 53.9296C7.351 54.0415 6.9177 54.1286 6.38536 54.1907C5.85302 54.2529 5.15973 54.2902 4.33027 54.2902C3.50081 54.2902 2.83229 54.2529 2.28757 54.1907C1.74284 54.1286 1.30955 54.0415 0.987669 53.9296C0.665789 53.8178 0.430571 53.681 0.294391 53.507C0.158211 53.3329 0.0839233 53.1465 0.0839233 52.9227V13.4891C0.0839233 13.2777 0.158211 13.0788 0.294391 12.9048C0.430571 12.7307 0.665789 12.594 0.987669 12.4821C1.30955 12.3702 1.74284 12.2832 2.28757 12.221C2.83229 12.1589 3.51319 12.1216 4.33027 12.1216C5.14735 12.1216 5.85302 12.1589 6.38536 12.221C6.9177 12.2832 7.351 12.3702 7.67288 12.4821C7.99476 12.594 8.2176 12.7307 8.35378 12.9048C8.47758 13.0788 8.55186 13.2653 8.55186 13.4891V28.8175H24.1136V13.4891C24.1136 13.2777 24.1878 13.0788 24.324 12.9048C24.4602 12.7307 24.683 12.594 25.0049 12.4821C25.3144 12.3702 25.7477 12.2832 26.2924 12.221C26.8371 12.1589 27.5304 12.1216 28.3599 12.1216C29.1894 12.1216 29.8455 12.1589 30.3902 12.221C30.9226 12.2832 31.3559 12.3702 31.6777 12.4821C31.9996 12.594 32.2348 12.7307 32.371 12.9048C32.5072 13.0788 32.5815 13.2653 32.5815 13.4891V52.9351V52.9227Z" fill="white"/>
<path d="M67.6417 37.7559C67.6417 38.7504 67.4189 39.4715 66.9856 39.9563C66.5523 40.4287 65.9457 40.6649 65.1657 40.6649H47.7099C47.7099 41.8957 47.8584 43.0021 48.1432 44.0091C48.4279 45.0036 48.8984 45.8614 49.5297 46.5576C50.1611 47.2538 50.9782 47.7883 51.9686 48.1613C52.959 48.5218 54.1599 48.7083 55.5464 48.7083C56.933 48.7083 58.2081 48.6088 59.2728 48.3975C60.3499 48.1986 61.266 47.9624 62.0583 47.7138C62.8383 47.4651 63.4944 47.2414 64.002 47.03C64.522 46.8311 64.9305 46.7192 65.2524 46.7192C65.4505 46.7192 65.6114 46.7565 65.7352 46.8311C65.859 46.9057 65.9704 47.0424 66.0571 47.2289C66.1437 47.4278 66.2056 47.7013 66.2304 48.0494C66.2552 48.3975 66.2799 48.8451 66.2799 49.392C66.2799 49.8645 66.2799 50.2747 66.2428 50.5979C66.218 50.9336 66.1933 51.2195 66.1437 51.4557C66.0942 51.6919 66.0323 51.8908 65.9457 52.0525C65.859 52.2141 65.7476 52.3757 65.6114 52.5249C65.4752 52.674 65.0914 52.8854 64.4724 53.134C63.8534 53.3951 63.0611 53.6437 62.0955 53.8924C61.1298 54.141 60.028 54.3523 58.79 54.5388C57.552 54.7253 56.215 54.8123 54.8036 54.8123C52.2533 54.8123 50.025 54.4891 48.1061 53.8426C46.1871 53.1962 44.5901 52.2141 43.3026 50.9087C42.0151 49.591 41.0618 47.9375 40.4304 45.936C39.799 43.9345 39.4772 41.5849 39.4772 38.8996C39.4772 36.2144 39.8114 34.0264 40.4676 31.9751C41.1361 29.9239 42.1017 28.1834 43.3645 26.7413C44.6273 25.3117 46.1624 24.2177 47.9822 23.4594C49.7897 22.701 51.8324 22.3281 54.1104 22.3281C56.5121 22.3281 58.5672 22.6886 60.2632 23.3972C61.9717 24.1058 63.3706 25.0879 64.4601 26.356C65.5495 27.6116 66.3542 29.1034 66.8742 30.8314C67.3941 32.5594 67.6417 34.4242 67.6417 36.4506V37.7435V37.7559ZM59.8052 35.4312C59.8671 33.1561 59.409 31.3535 58.4434 30.0606C57.4653 28.7553 55.9674 28.1088 53.9247 28.1088C52.8971 28.1088 52.0058 28.3077 51.2382 28.6931C50.483 29.0785 49.8393 29.6007 49.3441 30.2595C48.8365 30.9184 48.4527 31.6892 48.1927 32.5843C47.9203 33.4794 47.7718 34.4242 47.7223 35.4436H59.8052V35.4312Z" fill="white"/>
<path d="M98.7279 53.0843C98.7279 53.3826 98.6165 53.6188 98.406 53.7929C98.1956 53.9669 97.8489 54.0912 97.3909 54.1658C96.9328 54.2404 96.2519 54.2777 95.3482 54.2777C94.3825 54.2777 93.6769 54.2404 93.2436 54.1658C92.8103 54.0912 92.4884 53.9669 92.3151 53.7929C92.1294 53.6188 92.0427 53.3826 92.0427 53.0843V50.7968C90.8666 52.0649 89.5172 53.0594 88.0068 53.768C86.4965 54.4766 84.8252 54.8371 82.9805 54.8371C81.4578 54.8371 80.0588 54.6382 78.7837 54.2404C77.5086 53.8426 76.4067 53.2459 75.4782 52.4627C74.5497 51.6795 73.8193 50.7098 73.3117 49.5412C72.8042 48.3726 72.5442 47.0176 72.5442 45.476C72.5442 43.7977 72.8661 42.3432 73.5222 41.1C74.1783 39.8568 75.144 38.8374 76.4439 38.0294C77.7438 37.2213 79.3532 36.6246 81.2845 36.2392C83.2157 35.8538 85.4565 35.6549 88.0068 35.6549H90.8047V33.9145C90.8047 33.0069 90.718 32.2237 90.5323 31.54C90.3466 30.8562 90.0495 30.2968 89.6286 29.8493C89.2077 29.4017 88.6506 29.0661 87.9573 28.8547C87.264 28.6434 86.3974 28.5315 85.3699 28.5315C84.0204 28.5315 82.8196 28.6807 81.7549 28.979C80.6902 29.2774 79.7617 29.6131 78.9446 29.9736C78.1275 30.3341 77.4467 30.6698 76.9019 30.9681C76.3572 31.2665 75.9115 31.4157 75.5649 31.4157C75.3297 31.4157 75.1192 31.3411 74.9335 31.1919C74.7478 31.0427 74.5993 30.8314 74.4878 30.5454C74.364 30.2719 74.2774 29.9239 74.2155 29.5136C74.1536 29.1034 74.1164 28.6558 74.1164 28.1585C74.1164 27.4872 74.166 26.9651 74.2774 26.5797C74.3888 26.1943 74.5869 25.8462 74.884 25.5354C75.1811 25.2246 75.7134 24.8766 76.4563 24.5036C77.2114 24.1306 78.0904 23.7826 79.0932 23.4593C80.096 23.1361 81.1978 22.875 82.3863 22.6637C83.5748 22.4648 84.8004 22.3529 86.0631 22.3529C88.3163 22.3529 90.2352 22.5767 91.8322 23.0118C93.4293 23.4469 94.7416 24.1306 95.7691 25.0506C96.7966 25.9706 97.5518 27.1391 98.0222 28.5812C98.4927 30.0233 98.7279 31.7389 98.7279 33.7156V53.0843ZM90.7923 40.7519H87.7097C86.3974 40.7519 85.2832 40.8514 84.3671 41.0379C83.451 41.2368 82.6958 41.5227 82.1139 41.9081C81.5321 42.2935 81.1111 42.7659 80.8388 43.3129C80.5664 43.8599 80.4426 44.4939 80.4426 45.2025C80.4426 46.4084 80.8264 47.3532 81.5816 48.037C82.3368 48.7207 83.4014 49.0688 84.7509 49.0688C85.8898 49.0688 86.9297 48.7829 87.883 48.1986C88.8363 47.6143 89.8019 46.7689 90.7923 45.6501V40.7395V40.7519Z" fill="white"/>
<path d="M114.896 52.9848C114.896 53.1962 114.834 53.3827 114.698 53.5443C114.574 53.7059 114.352 53.8426 114.042 53.9421C113.733 54.054 113.324 54.1286 112.804 54.1783C112.284 54.228 111.64 54.2529 110.848 54.2529C110.056 54.2529 109.4 54.228 108.892 54.1783C108.372 54.1286 107.963 54.0415 107.654 53.9421C107.344 53.8302 107.122 53.6935 106.998 53.5443C106.874 53.3951 106.8 53.1962 106.8 52.9848V10.5428C106.8 10.3314 106.862 10.1325 106.998 9.95846C107.134 9.78441 107.344 9.63523 107.654 9.52335C107.963 9.41146 108.372 9.312 108.892 9.24984C109.412 9.18769 110.056 9.15039 110.848 9.15039C111.64 9.15039 112.296 9.18769 112.804 9.24984C113.324 9.312 113.733 9.41146 114.042 9.52335C114.352 9.64766 114.574 9.78441 114.698 9.95846C114.822 10.1325 114.896 10.319 114.896 10.5428V52.9848Z" fill="white"/>
<path d="M139.941 50.1504C139.941 51.0952 139.879 51.8287 139.768 52.326C139.644 52.8357 139.495 53.1838 139.297 53.3951C139.099 53.594 138.815 53.7805 138.443 53.9421C138.072 54.1037 137.626 54.2405 137.131 54.3648C136.623 54.4891 136.079 54.5761 135.497 54.6383C134.915 54.7005 134.308 54.7378 133.714 54.7378C132.105 54.7378 130.718 54.5389 129.529 54.1286C128.353 53.7184 127.375 53.0843 126.608 52.239C125.84 51.3936 125.271 50.3245 124.899 49.0316C124.54 47.7387 124.355 46.2096 124.355 44.4442V29.6877H120.913C120.504 29.6877 120.195 29.4391 119.984 28.9294C119.774 28.4197 119.663 27.5743 119.663 26.3933C119.663 25.7717 119.687 25.2371 119.737 24.8145C119.786 24.3794 119.873 24.0437 119.972 23.7951C120.084 23.5464 120.22 23.3724 120.368 23.2605C120.529 23.1486 120.715 23.0989 120.925 23.0989H124.33V16.6717C124.33 16.4603 124.392 16.2614 124.503 16.0874C124.627 15.9133 124.837 15.7641 125.147 15.6522C125.456 15.5404 125.877 15.4533 126.397 15.3912C126.917 15.3415 127.573 15.3166 128.341 15.3166C129.109 15.3166 129.789 15.3415 130.322 15.3912C130.842 15.4409 131.263 15.5279 131.56 15.6522C131.857 15.7766 132.08 15.9133 132.204 16.0874C132.327 16.2614 132.402 16.4479 132.402 16.6717V23.0989H138.641C138.852 23.0989 139.037 23.1486 139.198 23.2605C139.359 23.3724 139.495 23.5464 139.594 23.7951C139.706 24.0437 139.78 24.3794 139.842 24.8145C139.892 25.2496 139.916 25.7717 139.916 26.3933C139.916 27.5743 139.805 28.4197 139.594 28.9294C139.384 29.4391 139.074 29.6877 138.666 29.6877H132.402V43.2135C132.402 44.7799 132.649 45.9609 133.144 46.7441C133.64 47.5273 134.519 47.9251 135.781 47.9251C136.215 47.9251 136.598 47.8878 136.933 47.8133C137.279 47.7387 137.577 47.6516 137.849 47.5522C138.121 47.4527 138.344 47.3657 138.53 47.2911C138.715 47.2165 138.876 47.1792 139.025 47.1792C139.149 47.1792 139.273 47.2165 139.396 47.2911C139.52 47.3657 139.607 47.5149 139.669 47.7387C139.731 47.9624 139.793 48.2732 139.842 48.6586C139.892 49.044 139.916 49.5413 139.916 50.138L139.941 50.1504Z" fill="white"/>
<path d="M173.169 52.9848C173.169 53.1962 173.107 53.3827 172.971 53.5443C172.847 53.7059 172.624 53.8426 172.327 53.9421C172.03 54.054 171.609 54.1286 171.089 54.1783C170.569 54.228 169.913 54.2529 169.146 54.2529C168.378 54.2529 167.697 54.228 167.165 54.1783C166.645 54.1286 166.224 54.0415 165.927 53.9421C165.63 53.8302 165.407 53.6935 165.283 53.5443C165.159 53.3827 165.085 53.1962 165.085 52.9848V36.55C165.085 35.1452 164.986 34.0512 164.775 33.2556C164.577 32.46 164.28 31.7762 163.896 31.2044C163.513 30.6325 163.017 30.1974 162.398 29.8866C161.792 29.5758 161.074 29.4142 160.257 29.4142C159.229 29.4142 158.189 29.7871 157.137 30.5455C156.085 31.3038 154.995 32.3978 153.856 33.8399V52.9848C153.856 53.1962 153.794 53.3827 153.658 53.5443C153.534 53.7059 153.311 53.8426 153.002 53.9421C152.692 54.054 152.284 54.1286 151.764 54.1783C151.244 54.228 150.6 54.2529 149.808 54.2529C149.016 54.2529 148.359 54.228 147.852 54.1783C147.332 54.1286 146.923 54.0415 146.614 53.9421C146.304 53.8302 146.082 53.6935 145.958 53.5443C145.834 53.3951 145.76 53.1962 145.76 52.9848V10.5428C145.76 10.3314 145.822 10.1325 145.958 9.95846C146.094 9.78441 146.304 9.63523 146.614 9.52335C146.923 9.41146 147.332 9.312 147.852 9.24984C148.372 9.18769 149.016 9.15039 149.808 9.15039C150.6 9.15039 151.256 9.18769 151.764 9.24984C152.284 9.312 152.692 9.41146 153.002 9.52335C153.311 9.64766 153.534 9.78441 153.658 9.95846C153.782 10.1325 153.856 10.319 153.856 10.5428V26.4554C155.243 25.0755 156.666 24.0561 158.115 23.3723C159.563 22.6886 161.061 22.3529 162.634 22.3529C164.577 22.3529 166.224 22.6762 167.573 23.3226C168.91 23.9691 170 24.8517 170.817 25.9706C171.646 27.0894 172.241 28.3948 172.6 29.8866C172.959 31.3784 173.144 33.1935 173.144 35.3193V52.9724L173.169 52.9848Z" fill="white"/>
<path d="M211.708 41.56C211.708 43.0394 211.51 44.3945 211.101 45.6004C210.693 46.8063 210.136 47.8754 209.418 48.7953C208.7 49.7153 207.845 50.5234 206.843 51.1822C205.852 51.8536 204.75 52.4006 203.55 52.8232C202.349 53.2459 201.074 53.5691 199.712 53.7805C198.35 53.9794 196.84 54.0913 195.168 54.0913H184.113C183.407 54.0913 182.813 53.8799 182.33 53.4573C181.847 53.0346 181.612 52.3508 181.612 51.406V15.0058C181.612 14.0609 181.86 13.3772 182.33 12.9545C182.813 12.5318 183.407 12.3205 184.113 12.3205H194.562C197.112 12.3205 199.266 12.5318 201.036 12.9669C202.807 13.4021 204.292 14.0485 205.506 14.9187C206.719 15.789 207.647 16.8954 208.291 18.2256C208.935 19.5558 209.257 21.1346 209.257 22.9372C209.257 23.9442 209.133 24.9015 208.873 25.7965C208.613 26.6916 208.242 27.4997 207.746 28.2332C207.251 28.9666 206.645 29.6131 205.927 30.1725C205.209 30.732 204.391 31.1795 203.463 31.5276C204.639 31.7389 205.728 32.1243 206.731 32.6589C207.722 33.1935 208.601 33.8896 209.331 34.735C210.061 35.5804 210.656 36.5749 211.077 37.7186C211.51 38.8623 211.72 40.1428 211.72 41.56H211.708ZM200.776 23.9691C200.776 23.1237 200.653 22.3778 200.393 21.7065C200.133 21.0352 199.749 20.4882 199.241 20.0406C198.721 19.6055 198.078 19.2574 197.298 19.0212C196.518 18.785 195.465 18.6607 194.166 18.6607H189.894V29.5012H194.624C195.849 29.5012 196.815 29.352 197.545 29.0661C198.276 28.7802 198.882 28.3824 199.365 27.8727C199.848 27.3629 200.207 26.7787 200.442 26.0949C200.677 25.4112 200.801 24.7025 200.801 23.9442L200.776 23.9691ZM202.931 41.846C202.931 40.8763 202.77 40.0061 202.448 39.2477C202.126 38.4894 201.655 37.8429 201.036 37.3332C200.417 36.8111 199.625 36.4133 198.659 36.1398C197.694 35.8663 196.443 35.7171 194.896 35.7171H189.882V47.5895H195.985C197.161 47.5895 198.152 47.4651 198.957 47.2165C199.761 46.9679 200.455 46.6073 201.049 46.1225C201.643 45.6377 202.101 45.0409 202.435 44.3199C202.77 43.5989 202.931 42.7784 202.931 41.846Z" fill="white"/>
<path d="M230.916 7.32731C230.916 8.35847 230.715 9.32898 230.313 10.2267C229.911 11.1244 229.371 11.9129 228.681 12.568C227.99 13.2353 227.174 13.7569 226.232 14.133C225.29 14.509 224.286 14.7031 223.218 14.7031C222.151 14.7031 221.084 14.5212 220.154 14.1451C219.225 13.769 218.421 13.2595 217.743 12.6166C217.065 11.9736 216.55 11.1972 216.174 10.2995C215.797 9.40177 215.609 8.41913 215.609 7.35158C215.609 6.28402 215.809 5.34991 216.211 4.46432C216.613 3.57874 217.153 2.7902 217.844 2.13511C218.534 1.46789 219.351 0.958374 220.28 0.570172C221.209 0.194101 222.214 0 223.306 0C224.399 0 225.441 0.181971 226.37 0.54591C227.3 0.909849 228.103 1.41936 228.781 2.06232C229.459 2.70528 229.974 3.48169 230.351 4.3794C230.728 5.27712 230.916 6.24762 230.916 7.30305V7.32731ZM229.158 7.43649C229.158 6.53878 229.007 5.72598 228.719 4.9981C228.43 4.27022 228.015 3.63939 227.5 3.11775C226.973 2.5961 226.358 2.19577 225.642 1.91675C224.926 1.63773 224.148 1.50428 223.319 1.50428C222.415 1.50428 221.611 1.64986 220.883 1.95314C220.154 2.25642 219.539 2.66889 219.012 3.20267C218.484 3.73644 218.095 4.34301 217.806 5.04663C217.517 5.75024 217.392 6.49025 217.392 7.29092C217.392 8.17651 217.542 8.97717 217.831 9.70505C218.12 10.4329 218.534 11.0638 219.049 11.5854C219.577 12.107 220.192 12.5074 220.908 12.7985C221.624 13.0776 222.402 13.2231 223.231 13.2231C224.135 13.2231 224.951 13.0654 225.68 12.7621C226.408 12.4589 227.036 12.0343 227.551 11.5126C228.066 10.991 228.467 10.3844 228.744 9.68079C229.02 8.97717 229.158 8.23716 229.158 7.43649ZM226.847 10.8939C226.847 10.8939 226.847 10.991 226.822 11.0395C226.797 11.088 226.76 11.1123 226.672 11.1365C226.584 11.1608 226.483 11.1729 226.345 11.1851C226.207 11.1972 226.006 11.2093 225.755 11.2093C225.529 11.2093 225.353 11.2093 225.215 11.1851C225.077 11.1729 224.964 11.1487 224.889 11.1244C224.801 11.088 224.738 11.0516 224.688 10.991C224.637 10.9303 224.6 10.8575 224.575 10.7605L224.16 9.46242C224.01 9.00143 223.821 8.67389 223.608 8.49192C223.394 8.30995 223.068 8.2129 222.641 8.2129H222.113V10.8575C222.113 10.991 222.063 11.088 221.95 11.1365C221.837 11.1851 221.586 11.2093 221.172 11.2093C220.757 11.2093 220.506 11.1851 220.368 11.1365C220.23 11.088 220.167 10.991 220.167 10.8575V4.07612C220.167 3.7971 220.242 3.57874 220.38 3.42103C220.519 3.26332 220.745 3.1784 221.021 3.1784H223.269C223.796 3.1784 224.248 3.22693 224.65 3.31185C225.052 3.39677 225.391 3.54234 225.667 3.72431C225.943 3.90628 226.157 4.14891 226.308 4.42793C226.446 4.70695 226.521 5.04663 226.521 5.43483C226.521 6.04139 226.345 6.51451 226.006 6.84206C225.667 7.18174 225.215 7.41223 224.637 7.54568C224.951 7.64273 225.24 7.81257 225.516 8.05519C225.793 8.29782 226.031 8.64962 226.22 9.13488L226.684 10.348C226.772 10.6392 226.822 10.8211 226.822 10.8939H226.847ZM224.424 5.65319C224.424 5.51975 224.399 5.3863 224.361 5.25286C224.323 5.13155 224.248 5.01023 224.135 4.92531C224.022 4.82826 223.871 4.75547 223.696 4.70695C223.507 4.65842 223.281 4.63416 223.005 4.63416H222.101V6.74501H222.967C223.52 6.74501 223.896 6.64796 224.097 6.44173C224.298 6.23549 224.411 5.98074 224.411 5.65319H224.424Z" fill="white"/>
</svg>
