<svg width="178" height="73" viewBox="170 0 100 180" fill="none" xmlns="http://www.w3.org/2000/svg">
<path d="M40.4598 1.20268C41.3134 0.42953 42.3377 0 43.618 0C44.8984 0 46.0081 0.42953 46.7763 1.20268C47.5445 2.06175 47.9713 3.09262 47.9713 4.46712V39.345C47.9713 43.9839 46.947 48.1074 44.813 51.8014C42.6791 55.4953 39.8623 58.4161 36.1919 60.5638C32.6068 62.7114 28.5096 63.7423 24.071 63.7423C19.6324 63.7423 15.5352 62.7114 11.8648 60.5638C8.10903 58.4161 5.29221 55.4953 3.15825 51.8014C1.0243 48.0215 0 43.898 0 39.345C0 34.792 0.93894 30.6685 2.98754 27.0604C4.95077 23.2805 7.59688 20.4456 11.0112 18.298C14.4255 16.1503 18.1813 15.1195 22.3638 15.1195H23.3028L20.0592 11.855C18.4374 10.1369 18.4374 7.38792 20.0592 5.75571C21.7663 4.12349 24.4978 4.12349 26.1196 5.75571L36.2772 15.8926C37.899 17.6107 37.899 20.3597 36.2772 21.992L26.205 32.1289C24.4978 33.7611 21.7663 33.7611 20.1445 32.1289C18.5227 30.4107 18.5227 27.6618 20.1445 26.0295L23.2174 22.9369C20.742 23.1087 18.4374 23.796 16.3034 25.0846C13.9987 26.4591 12.1209 28.4349 10.7551 30.9262C9.3894 33.4175 8.70653 36.2524 8.70653 39.345C8.70653 42.4376 9.3894 45.2725 10.7551 47.7638C12.1209 50.255 13.9134 52.2309 16.3034 53.6913C18.6081 55.1517 21.2542 55.8389 24.1564 55.8389C27.0585 55.8389 29.6193 55.1517 32.0093 53.6913C32.6922 53.2618 33.375 52.8322 33.9726 52.3168C39.0087 47.5061 39.1794 43.7262 39.1794 37.8846V35.5651C39.094 35.4792 39.094 35.3933 39.094 35.3074H39.1794V4.46712C39.1794 3.09262 39.6062 2.06175 40.4598 1.20268Z" fill="white"/>
<path d="M189.922 57.0416L173.021 36.1664L189.068 21.8201C190.007 21.047 190.434 20.102 190.434 18.8134C190.434 17.7826 190.093 16.8376 189.324 16.0644C188.556 15.1195 187.617 14.6899 186.337 14.6899C185.313 14.6899 184.374 15.0336 183.605 15.8067L162.437 34.8779V4.2953C162.437 3.00671 162.01 1.97584 161.242 1.20268C160.473 0.42953 159.449 0 158.169 0C156.888 0 155.864 0.42953 155.096 1.20268C154.328 1.97584 153.901 3.00671 153.901 4.2953V59.1034C153.901 60.3919 154.328 61.4228 155.096 62.196C155.864 62.9691 156.888 63.3987 158.169 63.3987C159.449 63.3987 160.473 62.9691 161.242 62.196C162.01 61.4228 162.437 60.3919 162.437 59.1034V45.702L166.79 41.8362L183.349 62.4537C184.203 63.4846 185.227 64 186.508 64C187.532 64 188.386 63.6564 189.324 62.9691C190.349 62.1101 190.861 60.9933 190.861 59.7047C190.861 58.6738 190.52 57.8148 189.922 57.0416Z" fill="white"/>
<path d="M135.634 24.0493C133.927 23.2761 131.964 22.9325 129.744 22.9325C125.22 22.9325 121.635 24.4788 118.904 27.3996C116.087 30.4063 114.721 34.358 114.721 39.3405C114.721 42.5191 115.404 45.354 116.685 47.8452C117.965 50.3365 119.758 52.3124 122.148 53.6869C124.452 55.1473 127.184 55.8345 130.171 55.8345C134.098 55.8345 137.256 54.8036 139.731 52.7419C140.841 51.9687 141.951 51.5392 142.975 51.5392C143.829 51.5392 144.597 51.7969 145.28 52.3124C146.389 53.2573 146.901 54.2882 146.901 55.4909C146.901 56.4358 146.56 57.209 145.877 57.8963C141.695 61.762 136.488 63.7379 130.171 63.7379C125.562 63.7379 121.465 62.707 117.794 60.5593C114.124 58.4117 111.222 55.4909 109.173 51.7969C107.125 48.0171 106.1 43.8936 106.1 39.3405C106.1 34.6157 107.125 30.4063 109.088 26.7124C111.136 23.0184 113.953 20.0976 117.538 18.0359C121.123 15.9741 125.22 14.9432 129.744 14.9432C136.573 14.9432 142.292 17.6063 146.816 22.8466C147.414 23.5338 147.67 24.307 147.67 25.1661C147.67 26.4546 147.072 27.5714 145.792 28.4305C145.28 28.86 144.597 29.0318 143.829 29.0318C142.463 29.0318 141.353 28.5164 140.414 27.4855C138.963 25.9392 137.341 24.8224 135.634 24.0493Z" fill="white"/>
<path fill-rule="evenodd" clip-rule="evenodd" d="M89.7968 18.2017C86.1264 16.1399 82.0292 15.1091 77.4199 15.1091C72.8105 15.1091 68.628 16.1399 64.9576 18.2017C61.2872 20.2634 58.4703 23.1842 56.4217 26.8782C54.3731 30.5722 53.3488 34.7816 53.3488 39.5064C53.3488 44.1453 54.3731 48.3547 56.4217 52.0487C58.4703 55.7426 61.2872 58.5775 64.9576 60.7252C68.628 62.7869 72.8105 63.8178 77.4199 63.8178C82.0292 63.8178 86.2117 62.7869 89.8821 60.7252C93.5526 58.6634 96.3694 55.7426 98.418 52.0487C100.467 48.3547 101.491 44.1453 101.491 39.5064C101.491 34.7816 100.467 30.5722 98.418 26.8782C96.284 23.0983 93.4672 20.2634 89.7968 18.2017ZM90.9063 47.9303C89.626 50.4215 87.7481 52.3974 85.4434 53.7719C83.1387 55.1464 80.4073 55.9195 77.5051 55.9195C74.6029 55.9195 71.8715 55.2323 69.5668 53.7719C67.1768 52.3974 65.3843 50.4215 64.0185 47.9303C62.6528 45.439 62.0553 42.6041 62.0553 39.4256C62.0553 36.247 62.7382 33.4121 64.0185 30.9209C65.3843 28.4296 67.1768 26.4538 69.5668 25.0793C71.9568 23.7048 74.6029 22.9316 77.5051 22.9316C80.4073 22.9316 83.1387 23.6189 85.4434 25.0793C87.8335 26.4538 89.626 28.4296 90.9063 30.9209C92.1867 33.4121 92.8696 36.247 92.8696 39.4256C92.8696 42.6041 92.2721 45.439 90.9063 47.9303Z" fill="white"/>
</svg>
