<svg xmlns="http://www.w3.org/2000/svg" xmlns:xlink="http://www.w3.org/1999/xlink" viewBox="0 0 4680 3120"><defs><style>.cls-1{fill:none;}.cls-2{fill:#aa5757;}.cls-3{fill:#fff;}.cls-4{opacity:0.5;}.cls-5{fill:#d3bdab;}.cls-6{opacity:0.65;}.cls-7{fill:#f9f3ee;}.cls-8{clip-path:url(#clip-path);}.cls-9{opacity:0.47;}.cls-10{fill:#f1ddce;}.cls-11{clip-path:url(#clip-path-2);}.cls-12{fill:#6b3836;}.cls-13{fill:#e5d5c6;}.cls-14{fill:#ddd;}.cls-15{clip-path:url(#clip-path-3);}.cls-16{fill:#eaeaea;}.cls-17{fill:#849fb7;}.cls-18{opacity:0.56;}.cls-19{fill:#b7a08a;}.cls-20{fill:#426a8e;}.cls-21{fill:#b6d6c5;}.cls-22{clip-path:url(#clip-path-4);}.cls-23{fill:#9dbfac;}.cls-24{fill:#799383;}.cls-25{clip-path:url(#clip-path-5);}.cls-26{fill:#9ab7a6;}.cls-27{clip-path:url(#clip-path-6);}.cls-28{opacity:0.53;}.cls-29{fill:#632727;}.cls-30{fill:#efbb54;}.cls-31{clip-path:url(#clip-path-7);}.cls-32{fill:#f7d17c;}.cls-33{fill:#e8a52e;}.cls-34{clip-path:url(#clip-path-8);}.cls-35{clip-path:url(#clip-path-9);}.cls-36{fill:#869ba8;}.cls-37{fill:#bacbd8;}.cls-38{clip-path:url(#clip-path-10);}.cls-39{fill:#d86d4c;}.cls-40{fill:#f29979;}.cls-41{clip-path:url(#clip-path-11);}.cls-42{clip-path:url(#clip-path-12);}.cls-43{fill:#727272;}.cls-44{fill:#565656;}.cls-45{clip-path:url(#clip-path-13);}.cls-46{fill:#efefef;}.cls-47{clip-path:url(#clip-path-14);}.cls-48{clip-path:url(#clip-path-15);}.cls-49{fill:#74413e;}.cls-50{clip-path:url(#clip-path-16);}.cls-51{fill:#512726;}.cls-52{fill:#cc593a;}.cls-53{clip-path:url(#clip-path-17);}.cls-54{fill:#af4228;}.cls-55{clip-path:url(#clip-path-18);}.cls-56{fill:#db633e;}.cls-57{clip-path:url(#clip-path-19);}.cls-58{clip-path:url(#clip-path-20);}.cls-59{fill:#63676b;}.cls-60{clip-path:url(#clip-path-21);}.cls-61{fill:#363d42;}.cls-62{clip-path:url(#clip-path-22);}.cls-63{clip-path:url(#clip-path-23);}.cls-64{fill:#a53d25;}.cls-65{fill:#e2e2e2;}.cls-66{clip-path:url(#clip-path-24);}.cls-67{fill:#ccc;}.cls-68{clip-path:url(#clip-path-25);}.cls-69{fill:#592d2c;}.cls-70{clip-path:url(#clip-path-26);}.cls-71{fill:#adadad;}.cls-72{clip-path:url(#clip-path-27);}.cls-73{fill:#e5ba63;}.cls-74{clip-path:url(#clip-path-28);}.cls-75{clip-path:url(#clip-path-29);}</style><clipPath id="clip-path"><path class="cls-1" d="M1224.81,2043.34V519.45c0-99,89.26-174,186.77-157L2416.26,537.54a1011.67,1011.67,0,0,0,302.11,6.83L3636.8,426.73c95.3-12.2,179.65,62,179.65,158.12V1928.73c0,91.28-76.49,163.91-167.65,159.19l-895-46.37a1339.88,1339.88,0,0,0-250,10.42L1405.68,2201.29C1310,2214.3,1224.81,2139.91,1224.81,2043.34Z"/></clipPath><clipPath id="clip-path-2"><polygon class="cls-2" points="756.18 526.16 812.87 478.2 1968.37 569.77 2155.87 2213.63 1078.85 2479.61 1017.81 2436.01 756.18 526.16"/></clipPath><clipPath id="clip-path-3"><path class="cls-1" d="M882.64,526.16c4.36,17.44,48,641,117.73,941.84s135.17,518.89,274.7,741.27,218,266,218,266,113.37-143.89,331.39-196.22,475.28-100.29,575.57-248.54,139.53-231.1,139.53-231.1-440.4,34.89-497.08-252.9-113.37-941.84-113.37-941.84Z"/></clipPath><clipPath id="clip-path-4"><polygon class="cls-1" points="2934.84 777.52 2813.53 694.85 2049.85 1747.87 2236.13 1874.81 2934.84 777.52"/></clipPath><clipPath id="clip-path-5"><polygon class="cls-1" points="2028.37 1808.42 1985.43 2016.6 2007.05 2031.33 2197.81 1918.12 2028.37 1808.42"/></clipPath><clipPath id="clip-path-6"><path class="cls-1" d="M2262.49,1441.65s34.29,106.47,181.05,123.38c-30.54,149.35-80.05,111.66-128.17,205.5a1042.28,1042.28,0,0,1-84.8,138,28.07,28.07,0,0,1-32.76,9.57c-63.94-24.7-237.48-110-164.67-163.31,49.59-119.22,61-83.59,111.73-163.79S2225.52,1420.41,2262.49,1441.65Z"/></clipPath><clipPath id="clip-path-7"><polygon class="cls-1" points="2232.41 870.19 2178.98 882.22 2156.26 701.88 1989.3 703.22 2014.68 875.54 1965.25 891.56 1964.87 888.79 1935.86 675.16 1962.07 659.42 1962.57 659.13 2195.01 661.8 2232.41 870.19"/></clipPath><clipPath id="clip-path-8"><polygon class="cls-1" points="1862.51 907.59 1966.7 835.46 2330.04 832.79 2391.48 1233.53 2351.41 1284.29 1969.37 1324.36 1915.94 1308.33 1862.51 907.59"/></clipPath><clipPath id="clip-path-9"><path class="cls-1" d="M1456.07,1616.92c-10.45-126.66-27.85-211.09-52.22-257.15s-156.66-42.22-156.66-42.22-45.26-53.73-80.71-91.43-295.29-8.35-340.54,33.86-69.63,96-69.63,96-90.52,15.36-142.74,61.41,41.78,437.53,66.15,548.83S1431.7,1851,1463,1820.33,1466.51,1743.57,1456.07,1616.92Z"/></clipPath><clipPath id="clip-path-10"><path class="cls-1" d="M1291.43,1660.31,1094,1692.59a27.35,27.35,0,0,1-31.52-23.34l-5-36.89a27.34,27.34,0,0,1,22.69-30.63l197.4-32.28a27.34,27.34,0,0,1,31.51,23.33l5,36.9A27.34,27.34,0,0,1,1291.43,1660.31Z"/></clipPath><clipPath id="clip-path-11"><path class="cls-1" d="M3152.39,1516.81s-50-27.7-66.12-19.66-35.74,51.82-52.72,67.91-15.19,24.12-1.79,27.7,27.7-4.47,35.74,4.47,27.71,15.19,38.43,12.51,57.19-30.38,57.19-30.38Z"/></clipPath><clipPath id="clip-path-12"><path class="cls-1" d="M3015.68,1494.47s18.76-8.94,44.68,8.93,59,42.89,45.57,49.15-34-8-34-8-14.29,12.51-42,9.83S2981.72,1521.27,3015.68,1494.47Z"/></clipPath><clipPath id="clip-path-13"><path class="cls-1" d="M3453.52,2222.72s34.79,280.42,21.38,295.88-15.46,20.62-15.46,20.62,37.11,9.27,40.2,39.17c53.61-36.08,78.35-66,78.35-66l-3.84-279Z"/></clipPath><clipPath id="clip-path-14"><path class="cls-1" d="M3319.49,2233.44s27.69,242.47,13,256.69-17.21,19.18-17.21,19.18,36.15,12.5,36.6,42.55c56.57-31.23,83.84-58.83,83.84-58.83l4.42-248.86Z"/></clipPath><clipPath id="clip-path-15"><path class="cls-1" d="M3541.67,1577.86s37.15,9.82,59.79,152.27,35.05,270.36,55.66,353.81,53.61,186.92,53.61,186.92-3,.8-8.22,2.12c-95.58,24.12-198.35,21.06-291.9-7.81a98.81,98.81,0,0,0-9.53-2.65s-35.35,6.67-161.8-6.68c42.61-180.24,44.67-355.48,50.85-447.27s63.92-222,63.92-222S3508.68,1595.82,3541.67,1577.86Z"/></clipPath><clipPath id="clip-path-16"><path class="cls-1" d="M3493.73,893.1c-5.36.1-57.18-17.87-121.52-10.72s-71.49,51.82-59,78.63,14.3,109-8.93,135.82,19.66,85.78,12.51,116.16-42.89,73.28-16.09,96.51a366.59,366.59,0,0,0,51.83,37.53l232.33,30.38s30.38-26.81,26.8-67.91,41.11-57.19,0-101.87-67.91-73.27-42.89-121.52S3584.88,891.31,3493.73,893.1Z"/></clipPath><clipPath id="clip-path-17"><path class="cls-1" d="M3384.72,1205.85s-1.33,1.1-3.63,3.22c-12,11.13-50.49,50.27-62.49,105.79-9.82,45.42,18.74,184.87-1.79,275.22-8.94,39.31-14.3,89.35-14.3,89.35l53.62,8.94Z"/></clipPath><clipPath id="clip-path-18"><path class="cls-1" d="M3501.11,1015.74c-14.14-6.91-25.39-5.12-36.19,8.77-8.63-15.83-16.24-19.88-16.24-19.88s-74,0-108-69c0,0-10,37-6,66s-33,35.76-29,44.39,25,3.74,29,21.2,9,75.48,41,71.48l32-4s9,53-6,63-25,18-25,18,31.14,31.75,81,35c16.83,1.1,76.25-33.3,76.25-33.3s-66.57.45-71-28.14c-4.93-31.54,14.9-73.83,17.38-104.16,10.09,1.62,23.39-8.5,31.54-25.19C3521.39,1040.39,3517.73,1023.86,3501.11,1015.74Z"/></clipPath><clipPath id="clip-path-19"><path class="cls-1" d="M3505.8,1196s-72,66.26-129.15,19.72c-22.31,67.4-19.63,76.78-33,118.33s10.72,56.3,12.06,93.83,5.36,158.16,5.36,158.16,54.95,2.68,61.66,1.34,88.46-185,88.46-185Z"/></clipPath><clipPath id="clip-path-20"><path class="cls-1" d="M3488.37,1186.63s-41.55,24.13-53.61,109.91-34.85,166.21-34.85,166.21l-262.71,42.89,13.41,100.52s246.62-17.42,268.06-24.12c4,32.16,26.81,104.54,26.81,104.54L3637.15,1633l-49.59-151.46S3602.3,1189.32,3488.37,1186.63Z"/></clipPath><clipPath id="clip-path-21"><path class="cls-1" d="M2469.71,2476.49s25,30.38,59,42.89,46.46,67.91,21.44,84-178.71,0-178.71,0-7.15-110.8,0-118S2469.71,2476.49,2469.71,2476.49Z"/></clipPath><clipPath id="clip-path-22"><path class="cls-1" d="M2712.76,2472.92s25,30.38,59,42.89,46.46,67.91,21.44,84-178.71,0-178.71,0-7.15-110.8,0-118S2712.76,2472.92,2712.76,2472.92Z"/></clipPath><clipPath id="clip-path-23"><path class="cls-1" d="M2369.4,1651.89s-8,297.54-8,357.85,3.62,95.33,0,152.79c-4.24,67.34-.66,317.54,4,345.79,24.13,20.11,148.77-8,148.77-8s-12.06-619.21,16.09-651.37,40.2,16.08,40.2,16.08l28.15,631.27s96.5-28.15,140.73-16.08c0-124.65-12.06-414.15-16.08-518.69s-28.15-369.92-28.15-369.92S2401.57,1466.93,2369.4,1651.89Z"/></clipPath><clipPath id="clip-path-24"><path class="cls-1" d="M2532.26,1109.34s-119.74,19.66-173.35,92.93-5.36,316.32-5.36,316.32l41.1,96.51,317.66,4.47,5.81-222.5s44.68,84,87.57,105.44S2979,1577.57,2979,1577.57l60.76-94.72-173.35-98.29S2737.78,1055.73,2532.26,1109.34Z"/></clipPath><clipPath id="clip-path-25"><path class="cls-1" d="M2533.24,846.89s15.27-25,68.91-20.77,76.27,57,81.3,57.82S2706,910.76,2675.9,925s-163,117.48-163,117.48l-43.42-59.13a106.21,106.21,0,0,1-9.1-14.74C2445.36,939,2424.88,867.51,2533.24,846.89Z"/></clipPath><clipPath id="clip-path-26"><path class="cls-1" d="M2671.5,1024.74c-1.25-25.77,0-103.08,0-103.08-11.31,9.43-45.25-16.34-45.25-16.34s-3.15,10.68-18.86,14.45-25.77-11-25.77-11-6.29,39.25-37.09,17.88c2.59,16.3-3.63,37.66-11.85,57.17a35.25,35.25,0,0,0-3-2c-15.73-9.08-35.21-4.77-43.52,9.62s-2.3,33.42,13.43,42.5a36.15,36.15,0,0,0,5.59,2.6l2.08,99.4,71.06,52,41.55-50.94s-10.56-9.21-10.56-38.12C2669,1101.43,2672.76,1050.52,2671.5,1024.74Z"/></clipPath><clipPath id="clip-path-27"><path class="cls-1" d="M2555.49,1205.85l10.73,28.59-1.34,287.28,35.29,43.34,23.68-46-27.25-291.75,5.36-26.8S2585.88,1182.61,2555.49,1205.85Z"/></clipPath><clipPath id="clip-path-28"><path class="cls-1" d="M2453.63,1701.33a57.12,57.12,0,0,1,20.55,19.21c8,13,25.47,37.08,17,38.87s-25-7.6-25-7.6,9.38,24.13,5.36,29-11.17,9.83-23.68,14.75-18.77,8.93-27.25,13-28.6,7.6-33.51-5.36-21.89-58.53-17.43-71.48S2453.63,1701.33,2453.63,1701.33Z"/></clipPath><clipPath id="clip-path-29"><path class="cls-1" d="M2358.91,1202.27s-40.66,74.17-54.06,146.55-20.11,97.84-6.7,162.18,52.27,239.92,52.27,239.92l127.33-41.55s-54.95-202.39-53.61-222.5,29.52-171.56,33.51-210.43C2463,1224.16,2407.61,1158.93,2358.91,1202.27Z"/></clipPath></defs><title>10</title><g id="_10" data-name="10"><rect id="_10-2" data-name="10" class="cls-3" width="4680" height="3120"/><g class="cls-4"><ellipse class="cls-5" cx="2873.45" cy="2583.39" rx="827.46" ry="176.61"/></g><g class="cls-6"><ellipse class="cls-5" cx="2482" cy="2583.03" rx="327.44" ry="88.21"/></g><g class="cls-6"><ellipse class="cls-5" cx="3269.95" cy="2583.03" rx="269.13" ry="73.26"/></g><path class="cls-7" d="M3636.8,426.73,2718.37,544.37a1011.66,1011.66,0,0,1-302.11-6.83L1411.58,362.41c-97.51-17-186.77,58-186.77,157V2043.34c0,96.57,85.18,171,180.87,158L2503.87,2052a1339.88,1339.88,0,0,1,250-10.42l895,46.37c91.16,4.72,167.65-67.91,167.65-159.19V584.85C3816.45,488.77,3732.1,414.53,3636.8,426.73Z"/><g class="cls-8"><g class="cls-9"><path class="cls-2" d="M1312.11,883.92H930.82V681.23h381.29Zm-379.29-2h377.29V683.23H932.82Z"/><path class="cls-2" d="M1691.39,883.92H1310.11V681.23h381.28Zm-379.28-2h377.28V683.23H1312.11Z"/><path class="cls-2" d="M2070.68,883.92H1689.39V681.23h381.29Zm-379.29-2h377.29V683.23H1691.39Z"/><path class="cls-2" d="M2450,883.92H2068.68V681.23H2450Zm-379.29-2H2448V683.23H2070.68Z"/><path class="cls-2" d="M2829.26,883.92H2448V681.23h381.29Zm-379.29-2h377.29V683.23H2450Z"/><path class="cls-2" d="M3208.55,883.92H2827.26V681.23h381.29Zm-379.29-2h377.29V683.23H2829.26Z"/><path class="cls-2" d="M3587.83,883.92H3206.55V681.23h381.28Zm-379.28-2h377.28V683.23H3208.55Z"/><path class="cls-2" d="M3967.12,883.92H3585.83V681.23h381.29Zm-379.29-2h377.29V683.23H3587.83Z"/><path class="cls-2" d="M4346.41,883.92H3965.12V681.23h381.29Zm-379.29-2h377.29V683.23H3967.12Z"/><path class="cls-2" d="M1106,1085.21H724.66V882.52H1106Zm-379.29-2H1104V884.52H726.66Z"/><path class="cls-2" d="M1485.24,1085.21H1104V882.52h381.29Zm-379.29-2h377.29V884.52H1106Z"/><path class="cls-2" d="M1864.53,1085.21H1483.24V882.52h381.29Zm-379.29-2h377.29V884.52H1485.24Z"/><path class="cls-2" d="M2243.81,1085.21H1862.53V882.52h381.28Zm-379.28-2h377.28V884.52H1864.53Z"/><path class="cls-2" d="M2623.1,1085.21H2241.81V882.52H2623.1Zm-379.29-2H2621.1V884.52H2243.81Z"/><path class="cls-2" d="M3002.39,1085.21H2621.1V882.52h381.29Zm-379.29-2h377.29V884.52H2623.1Z"/><path class="cls-2" d="M3381.68,1085.21H3000.39V882.52h381.29Zm-379.29-2h377.29V884.52H3002.39Z"/><path class="cls-2" d="M3761,1085.21H3379.68V882.52H3761Zm-379.29-2H3759V884.52H3381.68Z"/><path class="cls-2" d="M4140.25,1085.21H3759V882.52h381.28Zm-379.28-2h377.28V884.52H3761Z"/><path class="cls-2" d="M1285.23,483.57H904V280.88h381.28Zm-379.28-2h377.28V282.88H906Z"/><path class="cls-2" d="M1664.52,483.57H1283.23V280.88h381.29Zm-379.29-2h377.29V282.88H1285.23Z"/><path class="cls-2" d="M2043.81,483.57H1662.52V280.88h381.29Zm-379.29-2h377.29V282.88H1664.52Z"/><path class="cls-2" d="M2423.1,483.57H2041.81V280.88H2423.1Zm-379.29-2H2421.1V282.88H2043.81Z"/><path class="cls-2" d="M2802.39,483.57H2421.1V280.88h381.29Zm-379.29-2h377.29V282.88H2423.1Z"/><path class="cls-2" d="M3181.67,483.57H2800.39V280.88h381.28Zm-379.28-2h377.28V282.88H2802.39Z"/><path class="cls-2" d="M3561,483.57H3179.67V280.88H3561Zm-379.29-2H3559V282.88H3181.67Z"/><path class="cls-2" d="M3940.25,483.57H3559V280.88h381.29Zm-379.29-2h377.29V282.88H3561Z"/><path class="cls-2" d="M4319.54,483.57H3938.25V280.88h381.29Zm-379.29-2h377.29V282.88H3940.25Z"/><path class="cls-2" d="M1079.08,684.86H697.79V482.17h381.29Zm-379.29-2h377.29V484.17H699.79Z"/><path class="cls-2" d="M1458.37,684.86H1077.08V482.17h381.29Zm-379.29-2h377.29V484.17H1079.08Z"/><path class="cls-2" d="M1837.66,684.86H1456.37V482.17h381.29Zm-379.29-2h377.29V484.17H1458.37Z"/><path class="cls-2" d="M2216.94,684.86H1835.66V482.17h381.28Zm-379.28-2h377.28V484.17H1837.66Z"/><path class="cls-2" d="M2596.23,684.86H2214.94V482.17h381.29Zm-379.29-2h377.29V484.17H2216.94Z"/><path class="cls-2" d="M2975.52,684.86H2594.23V482.17h381.29Zm-379.29-2h377.29V484.17H2596.23Z"/><path class="cls-2" d="M3354.81,684.86H2973.52V482.17h381.29Zm-379.29-2h377.29V484.17H2975.52Z"/><path class="cls-2" d="M3734.1,684.86H3352.81V482.17H3734.1Zm-379.29-2H3732.1V484.17H3354.81Z"/><path class="cls-2" d="M4113.38,684.86H3732.1V482.17h381.28Zm-379.28-2h377.28V484.17H3734.1Z"/><path class="cls-2" d="M1339.94,1284.28H958.66V1081.59h381.28Zm-379.28-2h377.28V1083.59H960.66Z"/><path class="cls-2" d="M1719.23,1284.28H1337.94V1081.59h381.29Zm-379.29-2h377.29V1083.59H1339.94Z"/><path class="cls-2" d="M2098.52,1284.28H1717.23V1081.59h381.29Zm-379.29-2h377.29V1083.59H1719.23Z"/><path class="cls-2" d="M2477.81,1284.28H2096.52V1081.59h381.29Zm-379.29-2h377.29V1083.59H2098.52Z"/><path class="cls-2" d="M2857.1,1284.28H2475.81V1081.59H2857.1Zm-379.29-2H2855.1V1083.59H2477.81Z"/><path class="cls-2" d="M3236.38,1284.28H2855.1V1081.59h381.28Zm-379.28-2h377.28V1083.59H2857.1Z"/><path class="cls-2" d="M3615.67,1284.28H3234.38V1081.59h381.29Zm-379.29-2h377.29V1083.59H3236.38Z"/><path class="cls-2" d="M3995,1284.28H3613.67V1081.59H3995Zm-379.29-2H3993V1083.59H3615.67Z"/><path class="cls-2" d="M1133.79,1485.56H752.5V1282.87h381.29Zm-379.29-2h377.29V1284.87H754.5Z"/><path class="cls-2" d="M1513.08,1485.56H1131.79V1282.87h381.29Zm-379.29-2h377.29V1284.87H1133.79Z"/><path class="cls-2" d="M1892.37,1485.56H1511.08V1282.87h381.29Zm-379.29-2h377.29V1284.87H1513.08Z"/><path class="cls-2" d="M2271.65,1485.56H1890.37V1282.87h381.28Zm-379.28-2h377.28V1284.87H1892.37Z"/><path class="cls-2" d="M2650.94,1485.56H2269.65V1282.87h381.29Zm-379.29-2h377.29V1284.87H2271.65Z"/><path class="cls-2" d="M3030.23,1485.56H2648.94V1282.87h381.29Zm-379.29-2h377.29V1284.87H2650.94Z"/><path class="cls-2" d="M3409.52,1485.56H3028.23V1282.87h381.29Zm-379.29-2h377.29V1284.87H3030.23Z"/><path class="cls-2" d="M3788.81,1485.56H3407.52V1282.87h381.29Zm-379.29-2h377.29V1284.87H3409.52Z"/><path class="cls-2" d="M4168.09,1485.56H3786.81V1282.87h381.28Zm-379.28-2h377.28V1284.87H3788.81Z"/><path class="cls-2" d="M1367.78,1684.63H986.49V1481.94h381.29Zm-379.29-2h377.29V1483.94H988.49Z"/><path class="cls-2" d="M1747.07,1684.63H1365.78V1481.94h381.29Zm-379.29-2h377.29V1483.94H1367.78Z"/><path class="cls-2" d="M2126.36,1684.63H1745.07V1481.94h381.29Zm-379.29-2h377.29V1483.94H1747.07Z"/><path class="cls-2" d="M2505.65,1684.63H2124.36V1481.94h381.29Zm-379.29-2h377.29V1483.94H2126.36Z"/><path class="cls-2" d="M2884.93,1684.63H2503.65V1481.94h381.28Zm-379.28-2h377.28V1483.94H2505.65Z"/><path class="cls-2" d="M3264.22,1684.63H2882.93V1481.94h381.29Zm-379.29-2h377.29V1483.94H2884.93Z"/><path class="cls-2" d="M3643.51,1684.63H3262.22V1481.94h381.29Zm-379.29-2h377.29V1483.94H3264.22Z"/><path class="cls-2" d="M4022.8,1684.63H3641.51V1481.94H4022.8Zm-379.29-2H4020.8V1483.94H3643.51Z"/><path class="cls-2" d="M1161.63,1885.91H780.34V1683.23h381.29Zm-379.29-2h377.29V1685.23H782.34Z"/><path class="cls-2" d="M1540.92,1885.91H1159.63V1683.23h381.29Zm-379.29-2h377.29V1685.23H1161.63Z"/><path class="cls-2" d="M1920.2,1885.91H1538.92V1683.23H1920.2Zm-379.28-2H1918.2V1685.23H1540.92Z"/><path class="cls-2" d="M2299.49,1885.91H1918.2V1683.23h381.29Zm-379.29-2h377.29V1685.23H1920.2Z"/><path class="cls-2" d="M2678.78,1885.91H2297.49V1683.23h381.29Zm-379.29-2h377.29V1685.23H2299.49Z"/><path class="cls-2" d="M3058.07,1885.91H2676.78V1683.23h381.29Zm-379.29-2h377.29V1685.23H2678.78Z"/><path class="cls-2" d="M3437.36,1885.91H3056.07V1683.23h381.29Zm-379.29-2h377.29V1685.23H3058.07Z"/><path class="cls-2" d="M3816.64,1885.91H3435.36V1683.23h381.28Zm-379.28-2h377.28V1685.23H3437.36Z"/><path class="cls-2" d="M4195.93,1885.91H3814.64V1683.23h381.29Zm-379.29-2h377.29V1685.23H3816.64Z"/><path class="cls-2" d="M1395.62,2085H1014.33V1882.29h381.29Zm-379.29-2h377.29V1884.29H1016.33Z"/><path class="cls-2" d="M1774.91,2085H1393.62V1882.29h381.29Zm-379.29-2h377.29V1884.29H1395.62Z"/><path class="cls-2" d="M2154.2,2085H1772.91V1882.29H2154.2Zm-379.29-2H2152.2V1884.29H1774.91Z"/><path class="cls-2" d="M2533.48,2085H2152.2V1882.29h381.28Zm-379.28-2h377.28V1884.29H2154.2Z"/><path class="cls-2" d="M2912.77,2085H2531.48V1882.29h381.29Zm-379.29-2h377.29V1884.29H2533.48Z"/><path class="cls-2" d="M3292.06,2085H2910.77V1882.29h381.29Zm-379.29-2h377.29V1884.29H2912.77Z"/><path class="cls-2" d="M3671.35,2085H3290.06V1882.29h381.29Zm-379.29-2h377.29V1884.29H3292.06Z"/><path class="cls-2" d="M4050.64,2085H3669.35V1882.29h381.29Zm-379.29-2h377.29V1884.29H3671.35Z"/><path class="cls-2" d="M1189.47,2286.27H808.18V2083.58h381.29Zm-379.29-2h377.29V2085.58H810.18Z"/><path class="cls-2" d="M1568.75,2286.27H1187.47V2083.58h381.28Zm-379.28-2h377.28V2085.58H1189.47Z"/><path class="cls-2" d="M1948,2286.27H1566.75V2083.58H1948Zm-379.29-2H1946V2085.58H1568.75Z"/><path class="cls-2" d="M2327.33,2286.27H1946V2083.58h381.29Zm-379.29-2h377.29V2085.58H1948Z"/><path class="cls-2" d="M2706.62,2286.27H2325.33V2083.58h381.29Zm-379.29-2h377.29V2085.58H2327.33Z"/><path class="cls-2" d="M3085.91,2286.27H2704.62V2083.58h381.29Zm-379.29-2h377.29V2085.58H2706.62Z"/><path class="cls-2" d="M3465.19,2286.27H3083.91V2083.58h381.28Zm-379.28-2h377.28V2085.58H3085.91Z"/><path class="cls-2" d="M3844.48,2286.27H3463.19V2083.58h381.29Zm-379.29-2h377.29V2085.58H3465.19Z"/><path class="cls-2" d="M4223.77,2286.27H3842.48V2083.58h381.29Zm-379.29-2h377.29V2085.58H3844.48Z"/></g></g><path class="cls-1" d="M3636.8,426.73,2718.37,544.37a1011.66,1011.66,0,0,1-302.11-6.83L1411.58,362.41c-97.51-17-186.77,58-186.77,157V2043.34c0,96.57,85.18,171,180.87,158L2503.87,2052a1339.88,1339.88,0,0,1,250-10.42l895,46.37c91.16,4.72,167.65-67.91,167.65-159.19V584.85C3816.45,488.77,3732.1,414.53,3636.8,426.73Z"/><path class="cls-10" d="M3878,2147.85a2,2,0,0,1-2-2V538.41A162.35,162.35,0,0,0,3675.7,380.54L2786,594.4a1289.41,1289.41,0,0,1-266.06,35.16,1289.71,1289.71,0,0,1-267.57-20.81L1283,430.23a162.37,162.37,0,0,0-191.7,164.53l43.18,1446.38a2,2,0,1,1-4,.12L1087.29,594.88A166.36,166.36,0,0,1,1283.71,426.3l969.36,178.51a1284.53,1284.53,0,0,0,266.74,20.75,1285.47,1285.47,0,0,0,265.23-35l889.73-213.86A166.35,166.35,0,0,1,3880,538.41V2145.85A2,2,0,0,1,3878,2147.85Z"/><polygon class="cls-2" points="1981.42 684.13 1968.37 569.77 812.87 478.2 756.18 526.16 861.94 1298.2 962.3 2030.8 1017.81 2436.01 1078.86 2479.61 2155.87 2213.63 2055.25 1331.46 1981.42 684.13"/><polygon class="cls-2" points="756.18 526.16 812.87 478.2 1968.37 569.77 2155.87 2213.63 1078.85 2479.61 1017.81 2436.01 756.18 526.16"/><g class="cls-11"><path class="cls-12" d="M809.72,415.39C738,351.6,582.48,674.53,590.45,686.49S714,1619.38,714,1619.38l251.17,901,113.64-40.76L812.87,478.2Z"/></g><polygon class="cls-13" points="882.64 526.16 1113.74 2405.48 2112.26 2170.02 1929.13 604.65 882.64 526.16"/><path class="cls-14" d="M2042.5,1546.49c-56.69-287.78-113.37-941.84-113.37-941.84L882.64,526.16c4.36,17.44,48,641,117.73,941.84s135.17,518.89,274.7,741.27,218,266,218,266,113.37-143.89,331.39-196.22,475.28-100.29,575.57-248.54,139.53-231.1,139.53-231.1S2099.18,1834.28,2042.5,1546.49Z"/><g class="cls-15"><path class="cls-16" d="M2592.37,1738.3c-363,57.79-746.16-21.68-1056.22-219.06-189.36-120.55-353.05-285.8-454.4-486.1-40.25-79.54-70.4-163.71-100.44-247.64C935.74,658.17,889.9,529.8,870.52,396L774.93,537.35c-50.44,41.35-62,112.63-70.08,177.34-33.64,269.22-67.35,540.06-54.25,811.06a2361,2361,0,0,0,102.73,583.42c62.65,202.32,165.46,410,353.57,507.39,112.55,58.24,243.8,70,370.33,62.91,298.31-16.63,589-133.91,820.25-323.06s402.93-448.51,494.08-733C2761.19,1697.69,2671.65,1725.67,2592.37,1738.3Z"/></g><polygon class="cls-17" points="1257.46 650.47 1270.54 781.28 1697.86 785.65 1689.14 663.55 1257.46 650.47"/><path class="cls-17" d="M1037.67,1088.59l-31-270.09,2.28,0,891.23,13.1,31.07,217.54-2.2.1Zm-26.5-266,30.05,261.87,885.45-39.06-30-209.79Z"/><path class="cls-17" d="M1076.91,1407l-26.6-252.62,2.1-.11L1935,1106.22l31.1,208.81-2.08.21Zm-22.18-248.85,25.74,244.46,881.09-91.14-30-201.07Z"/><path class="cls-17" d="M1475.48,1428.62a2,2,0,0,1-.49-3.94c17.37-4.34,442.2-54.59,460.28-56.73a2,2,0,1,1,.46,4c-4.42.53-442.64,52.36-459.76,56.64A2.12,2.12,0,0,1,1475.48,1428.62Z"/><path class="cls-17" d="M1488.56,1485.31a2,2,0,0,1-.48-3.94c17.36-4.34,442.19-54.6,460.27-56.74a2,2,0,0,1,.47,4c-4.43.52-442.65,52.36-459.77,56.64A2.12,2.12,0,0,1,1488.56,1485.31Z"/><path class="cls-17" d="M1501.64,1542a2,2,0,0,1-.48-3.94c17.36-4.34,442.19-54.59,460.27-56.73a2,2,0,1,1,.47,4c-4.43.53-442.65,52.36-459.77,56.64A2.12,2.12,0,0,1,1501.64,1542Z"/><path class="cls-17" d="M1468.94,1681.52a2,2,0,0,1-.49-3.94c17.37-4.34,442.2-54.59,460.27-56.73a2,2,0,1,1,.47,4c-4.42.53-442.65,52.36-459.77,56.64A2,2,0,0,1,1468.94,1681.52Z"/><path class="cls-17" d="M1514.72,1720.77a2,2,0,0,1-.48-3.94c17.36-4.34,442.19-54.6,460.27-56.73a2,2,0,0,1,.47,4c-4.43.52-442.65,52.36-459.77,56.64A2.05,2.05,0,0,1,1514.72,1720.77Z"/><path class="cls-3" d="M1924.6,2000c-37.06,39.24-464.38,137.35-464.38,137.35l106.83,130.81s76.3-48,178.77-74.12,296.51-89.39,296.51-89.39S1942,2061.06,1924.6,2000Z"/><path class="cls-17" d="M1672.11,2162c-7.15-5.22-10.2-15.71-9.22-24.18.78-6.76,3.46-13.16,6.63-19.11,2.93-5.52,6.2-12,10.63-16.47,5.12-5.15,12.06-4.17,16,2,3.82,5.94,2.21,13.44,0,19.64-5.07,14-13.66,27-24.05,38.13a16.83,16.83,0,0,0,5.52,2.66,138.27,138.27,0,0,0,9.61-12c7.8-10.93,16.62-25.12,17.2-38.89.48-11.48-9.67-25.32-22.38-20.09-5.83,2.39-9.35,8-12.54,13.11-4.18,6.7-8.12,13.67-10.56,21.22-4,12.32-2.78,26.4,6.6,36a25.38,25.38,0,0,0,2.41,2.17Q1670.09,2164.11,1672.11,2162Z"/><path class="cls-17" d="M1677.63,2164.61a16.83,16.83,0,0,1-5.52-2.66q-2,2.16-4.14,4.24a21.53,21.53,0,0,0,5.24,3.08C1674.72,2167.75,1676.2,2166.2,1677.63,2164.61Z"/><path class="cls-17" d="M1725.67,2132.91a90.29,90.29,0,0,1-14.1,16.41c-8.1,7.41-21.52,18.13-33.25,15.47l-.69-.18c-1.43,1.59-2.91,3.14-4.42,4.66,9,3.68,19.37.46,28.23-4.91a93.58,93.58,0,0,0,28.57-27.2,12.64,12.64,0,0,1-2.87-2.28A11.22,11.22,0,0,1,1725.67,2132.91Z"/><path class="cls-17" d="M1729.25,2117.68a58.2,58.2,0,0,1,1.26-11.7c1.36-6.21,4.18-13.21,10.22-15.63.11-1.27.2-2.54.25-3.82l3,3a12.3,12.3,0,0,0-3.25.82,89.88,89.88,0,0,1-11.18,36.25,8.24,8.24,0,0,0,1.84,4,5.53,5.53,0,0,0,1.91,1.38,96.73,96.73,0,0,0,13.68-45.49,3,3,0,0,0-3-3c-10.75,1.16-16.54,9.76-19,19.65a66.05,66.05,0,0,0-1.76,15.73c0,4.51,0,10,2.43,14,1.38-2,2.68-4.15,3.88-6.31A43.34,43.34,0,0,1,1729.25,2117.68Z"/><path class="cls-17" d="M1731.39,2130.64a8.24,8.24,0,0,1-1.84-4c-1.2,2.16-2.5,4.26-3.88,6.31a11.22,11.22,0,0,0,1.47,2,12.64,12.64,0,0,0,2.87,2.28q1.73-2.52,3.29-5.14A5.53,5.53,0,0,1,1731.39,2130.64Z"/><path class="cls-17" d="M1741,2086.53c0,1.28-.14,2.55-.25,3.82a12.3,12.3,0,0,1,3.25-.82Z"/><path class="cls-17" d="M1653.18,2178.76a130.62,130.62,0,0,1-71,25.52c-3.84.17-3.86,6.17,0,6a136.54,136.54,0,0,0,76.36-28.11,139.24,139.24,0,0,0,14.64-12.9,21.53,21.53,0,0,1-5.24-3.08A137.4,137.4,0,0,1,1653.18,2178.76Z"/><path class="cls-17" d="M1768.18,2080.15c-.47,3-.94,6-1.36,9.06q1-4.89,1.47-9.86c.33-3.33-5.37-4.14-5.9-.8-.41,2.61-.8,5.36-1.15,8.18.44-2.45.8-4.91,1-7.38Z"/><path class="cls-17" d="M1846.29,2064.65l-5-2.92c-3.1,10.57-4.45,23-6.71,35.17a29.26,29.26,0,0,0,4.59,7.27c.6-2.76,1.13-5.55,1.61-8.34C1835.47,2085.77,1837.29,2072.4,1846.29,2064.65Z"/><path class="cls-17" d="M1868.72,2034.73a51.56,51.56,0,0,0,3.47,7.48c.79-2.49,1.57-5,2.32-7.48Z"/><path class="cls-17" d="M1846.51,2103a23.11,23.11,0,0,1-3-3.07c-.56,1.23-1.11,2.46-1.69,3.68Z"/><path class="cls-17" d="M2021.32,2022.66c-24.18,19.31-51.54,41.51-83.68,44.09-24.86,2-53.89-8.57-63.13-33.62a3,3,0,0,0-5.79,0,505.68,505.68,0,0,1-25.24,66.82,23.11,23.11,0,0,0,3,3.07l-4.72.61c.58-1.22,1.13-2.45,1.69-3.68a24.27,24.27,0,0,1-2.72-4.12c-.48,2.79-1,5.58-1.61,8.34a27.51,27.51,0,0,0,3.11,3.09c1.35,1.14,3.83,1.28,4.71-.6a517.88,517.88,0,0,0,25.22-64.45,51.56,51.56,0,0,1-3.47-7.48h5.79c-.75,2.5-1.53,5-2.32,7.48,9,15.95,25.84,25.9,43.92,29.32,25.16,4.75,49.6-3.61,71-16.59,13.58-8.23,26.05-18.14,38.45-28C2028.58,2024.49,2024.31,2020.27,2021.32,2022.66Z"/><path class="cls-17" d="M1806.65,2143.09c-14,6.66-28.22-.28-35.42-13.15-6.93-12.41-6.28-26.92-4.41-40.73a100,100,0,0,1-6.6,21.19c1,16.57,6.7,32.12,23.56,39.11,24.25,10,45.85-13.6,52.57-34.62,1.13-3.53,2-7.11,2.8-10.72a29.26,29.26,0,0,1-4.59-7.27C1831,2116,1825.18,2134.28,1806.65,2143.09Z"/><path class="cls-17" d="M1846.29,2064.65c-9,7.75-10.82,21.12-5.53,31.18,1.87-10.88,3.18-21.89,6.3-32.51.89-3-2.86-4.78-5-2.92-10.35,8.92-12.83,24.41-7.48,36.5,2.26-12.13,3.61-24.6,6.71-35.17Z"/><path class="cls-17" d="M1768.18,2080.15l-5.89-.8c-.25,2.47-.61,4.93-1,7.38a130.68,130.68,0,0,0-1,23.67,100,100,0,0,0,6.6-21.19C1767.24,2086.14,1767.71,2083.11,1768.18,2080.15Z"/><path class="cls-17" d="M1761.24,2086.73a91.81,91.81,0,0,1-8.08,24.66c-2.15,4.33-12.33,23.87-19.86,20.63q-1.56,2.63-3.29,5.14c9.09,5.1,19.41-7.66,23.74-14.53a94.11,94.11,0,0,0,6.47-12.23A130.68,130.68,0,0,1,1761.24,2086.73Z"/><polygon class="cls-3" points="1107.03 893.94 1116.49 1014.57 1237.11 1007.47 1225.29 898.67 1107.03 893.94"/><polygon class="cls-17" points="1174.61 935.35 1149.9 907.74 1133.92 930.99 1174.61 967.33 1242.93 845.24 1225.48 839.42 1174.61 935.35"/><polygon class="cls-3" points="1144.09 1211.52 1153.55 1332.15 1274.18 1325.05 1262.35 1216.25 1144.09 1211.52"/><polygon class="cls-17" points="1211.68 1252.93 1186.97 1225.32 1170.98 1248.57 1211.68 1284.91 1279.99 1162.82 1262.55 1157 1211.68 1252.93"/><rect class="cls-3" x="1342.49" y="870.67" width="497.08" height="34.88" rx="8"/><path class="cls-3" d="M1828.33,942.42l-480.57,22.24a8,8,0,0,0-7.62,8.36l.87,18.87a8,8,0,0,0,8.36,7.62l480.57-22.25a8,8,0,0,0,7.62-8.36l-.87-18.86A8,8,0,0,0,1828.33,942.42Z"/><path class="cls-3" d="M1857.7,1162.35a8,8,0,0,0-8.6-7.35l-479.62,37.55a8,8,0,0,0-7.35,8.6l1.48,18.82a8,8,0,0,0,8.6,7.35l479.61-37.54a8,8,0,0,0,7.35-8.6Z"/><path class="cls-3" d="M1864.24,1240.84a8,8,0,0,0-8.6-7.35L1376,1271a8,8,0,0,0-7.35,8.6l1.48,18.83a8,8,0,0,0,8.6,7.35l479.61-37.55a8,8,0,0,0,7.35-8.6Z"/><g class="cls-18"><path class="cls-19" d="M1417.42,1653.75q-1.79-18.26-3.76-35.21c-10.61-90.51-25.84-153.48-45.7-191-24.37-46.06-156.65-42.22-156.65-42.22s-45.26-53.73-80.72-91.44c-26.15-27.82-174.5-19.12-268.65,4.31l100.37,732.6c209.19-46.19,447.21-125.43,464.85-142.7,31.32-30.69,3.47-76.75-7-203.41Q1418.87,1668.78,1417.42,1653.75Z"/></g><g class="cls-18"><polygon class="cls-19" points="1886.82 683.05 1886.33 683.34 1860.11 699.09 1860.22 699.84 1882.66 865.12 1786.76 931.51 1840.19 1332.26 1893.62 1348.28 1894.53 1348.18 1894.85 1348.28 2055.25 1331.46 1981.42 684.13 1886.82 683.05"/></g><path class="cls-20" d="M2007.92,2016.41l-8.45-5.76a4.35,4.35,0,0,0-6,1.14l-18,26.47a4.35,4.35,0,0,0,1.14,6L1985,2050a4.35,4.35,0,0,0,6-1.14l18-26.47A4.34,4.34,0,0,0,2007.92,2016.41Z"/><polygon class="cls-21" points="2049.85 1747.87 2236.13 1874.81 2934.84 777.52 2813.53 694.85 2049.85 1747.87"/><g class="cls-22"><polygon class="cls-23" points="2145.54 1813.65 2331.82 1940.6 3030.53 843.31 2909.22 760.64 2145.54 1813.65"/></g><path class="cls-24" d="M2888.16,716.69c-33.32-22.71-66.29-32.38-73.64-21.6s13.71,37.93,47,60.65,66.29,32.38,73.64,21.59S2921.49,739.4,2888.16,716.69Z"/><polygon class="cls-21" points="1985.43 2016.59 2007.05 2031.33 2197.81 1918.12 2028.37 1808.42 1985.43 2016.59"/><g class="cls-25"><polygon class="cls-23" points="1975.13 2040.29 2031.95 2076.17 2307.06 1926.65 2193.43 1845.92 1975.13 2040.29"/></g><path class="cls-26" d="M2262.49,1441.65c-37-21.24-66.92,69.16-117.62,149.37s-62.14,44.57-111.73,163.79c-72.81,53.27,100.73,138.61,164.67,163.3a28.05,28.05,0,0,0,32.76-9.56,1042.28,1042.28,0,0,0,84.8-138c48.12-93.84,97.63-56.15,128.17-205.5C2296.78,1548.12,2262.49,1441.65,2262.49,1441.65Z"/><g class="cls-27"><g class="cls-28"><path class="cls-3" d="M2253.1,1502.43a14,14,0,0,0-19.7-7.15,27.85,27.85,0,0,0-5.71,4.28c-5.63,5.51-9.05,12.87-12,20.18-6.73,16.81-11.61,34.36-19.16,50.82s-18.21,32.15-33.65,41.62c-7.27,4.47-15.93,7.92-20,15.43-6.1,11.36,3.14,26.56,15.65,29.64s25.77-3.32,34.62-12.68,14.28-21.34,20.12-32.83a403,403,0,0,1,22.93-39.48c6.38-9.67,13.23-19.17,17.58-29.91s6-23.11,1.69-33.87Z"/><path class="cls-3" d="M2143.92,1675.65c-5.18-4.33-14.93-4.59-14.93-4.59-11.23-2.15-23.21,6.77-24.74,18.1s7.28,22.94,18.55,24.9,23.28-5.66,26.69-16.57C2151.87,1689.88,2150,1680.77,2143.92,1675.65Z"/></g></g><g class="cls-4"><circle class="cls-5" cx="3257.91" cy="829.42" r="65.4"/><circle class="cls-5" cx="3140.19" cy="1041.98" r="29.43"/><circle class="cls-5" cx="4042.74" cy="1107.38" r="39.24" transform="translate(2713.49 5082.7) rotate(-86.83)"/></g><path class="cls-29" d="M3339.65,1129.91l25,5.45A20.79,20.79,0,0,0,3339.65,1129.91Z"/><polygon class="cls-30" points="1962.57 659.13 1962.07 659.42 1935.86 675.16 1964.87 888.79 1965.25 891.56 2014.68 875.54 1989.3 703.22 2156.26 701.88 2178.98 882.22 2232.41 870.19 2195.01 661.8 1962.57 659.13"/><g class="cls-31"><polygon class="cls-32" points="1975.83 683.7 1928.19 706.9 1953.84 925.52 2018.57 907.2 2014.67 876.35 1989.29 704.03 2156.27 702.69 2181.01 899.87 2205.43 892.54 2173.68 684.92 1975.83 683.7"/><polygon class="cls-33" points="1935.86 675.98 1964.87 889.6 1994.14 876.67 1962.07 660.24 1935.86 675.98"/></g><polygon class="cls-1" points="1962.58 659.13 1935.86 675.16 1965.25 891.56 2014.67 875.53 1989.29 703.22 2156.27 701.88 2178.98 882.21 2232.41 870.19 2195.01 661.8 1962.58 659.13"/><polygon class="cls-32" points="1967.92 835.46 1863.73 907.59 1917.16 1308.33 1970.59 1324.36 2352.63 1284.29 2392.7 1233.53 2331.26 832.79 1967.92 835.46"/><g class="cls-34"><path class="cls-33" d="M1946.94,1378.29l399.36-14.66,60.45-133.73s-404.85,25.65-412.18,29.31Z"/><polygon class="cls-30" points="1961.6 777.43 1807.72 891 1924.96 1363.63 1992.74 1337.99 2022.05 1262.88 1967.09 841.54 1961.6 777.43"/></g><path class="cls-3" d="M2223.83,996.22a43.89,43.89,0,1,0-58.22,46.51L2144.25,1135l105.51-12.53-43.07-86.09A43.82,43.82,0,0,0,2223.83,996.22Z"/><path class="cls-33" d="M2209.18,998.05a43.89,43.89,0,1,0-58.22,46.52l-21.36,92.26,105.51-12.53L2192,1038.21A43.85,43.85,0,0,0,2209.18,998.05Z"/><path class="cls-17" d="M1403.85,1359.77c-24.37-46-156.66-42.22-156.66-42.22s-45.26-53.73-80.71-91.43-295.29-8.35-340.54,33.87-69.63,95.94-69.63,95.94-90.52,15.36-142.74,61.41,41.78,437.53,66.15,548.83S1431.7,1851,1463,1820.33s3.48-76.76-7-203.41S1428.22,1405.83,1403.85,1359.77Z"/><g class="cls-35"><path class="cls-20" d="M1041.31,1648.48c-56.49.19-124.35-38.17-163.18-79.19-24.79-26.19-35.57-62.55-56.43-92-43.27-61-123.57-83.89-198.31-87.06-6.79-.29-14.88.78-20.9,3.76-31.69,3.29-62.06,25.38-77.48,54.26-20.44,38.28-19.33,84.7-9.84,127s26.67,82.62,37.16,124.73c28.06,112.71,8.75,239.13,67.38,339.4,17.11,29.27,41.34,55.58,72.61,68.68,26.29,11,55.6,12,84.09,11.37,22.82-.52,46.16-2.14,67.1-11.22s39.3-27,43.19-49.49c2.56-14.81-1.25-29.91-5.42-44.35-12.43-43.07-28.35-85.29-36.25-129.42-11.36-63.38-5.83-128.36-5.15-192.75.31-29.26-.53-59-4.32-88.07,7.11,15.33,15.56,29.79,27,42.34,27.37,30,68.51,44.43,109,47.25s80.89-4.85,120.62-13.11q173.71-36.11,343.65-88c27.41-8.38,61.31-28.65,52.6-56C1343.57,1588.59,1195.19,1648,1041.31,1648.48Z"/><path class="cls-2" d="M873.16,1277.6l-16.37,2.25c-1.91.26-1.1,3.16.8,2.9l13-1.79c.85-1.13,1.7-2.25,2.58-3.36Z"/><path class="cls-2" d="M873.16,1277.6l1.75-.24A1.2,1.2,0,0,0,873.16,1277.6Z"/><path class="cls-2" d="M875.28,1279.72a1.65,1.65,0,0,0-.37-2.36l-1.75.24h0c-.88,1.11-1.73,2.23-2.58,3.36l4.2-.58Z"/><path class="cls-2" d="M1137.51,1266c-6.81-6.66-14.35-13-23.5-16.09-9.94-3.37-20.66-2.47-30.87-1.14-48,6.21-95.81,13.16-143.71,19.75l-64.52,8.87a1.65,1.65,0,0,1,.37,2.36l-.5.66,120.54-16.58,68.87-9.47c11.64-1.6,23.5-4,35.28-3.78,11.5.22,21.16,4.57,29.83,11.94,17.37,14.73,31.86,33.65,43.8,53l2-.35-.9,2.2c-.37-.62-.76-1.23-1.14-1.85-53.62,9.36-107.21,18.94-160.88,28-27,4.56-54.08,8.72-81.37,11.11-13.64,1.19-27.34,1.94-41,2.07-12.63.12-26.42.78-38.87-1.58-4.7-.88-8.26-3.48-8.12-8.64.09-3.6,1.54-7.38,2.62-10.77a174.94,174.94,0,0,1,7.36-19.17,179.51,179.51,0,0,1,22-36.14l-4.2.58a180.69,180.69,0,0,0-18.13,29.32c-5.13,10.44-11.09,22.77-12.47,34.42-1.29,10.92,7.66,13.33,16.58,14a416.64,416.64,0,0,0,45,.73c58.59-2,116.45-13.85,174-23.9l100.36-17.5a1.5,1.5,0,0,0,.89-2.2A255.69,255.69,0,0,0,1137.51,1266Z"/><path class="cls-2" d="M1175.14,1315.13l-2,.35c.38.62.77,1.23,1.14,1.85Z"/><path class="cls-20" d="M1102.26,1237.85c-35.9-10.76-74.42-2.62-111,5.56L878.76,1263a51.5,51.5,0,0,0-34.15,22.19,264.85,264.85,0,0,0-23.17,43.18,24.23,24.23,0,0,0-1.56,14.61c3.53,15.94,21,16.62,34.89,15.55l232.77-17.91,106.84-8.23a10.37,10.37,0,0,0,7.89-4.4c3.29-4.91,0-9.29-3.07-12.86C1171.94,1283.27,1142.43,1249.89,1102.26,1237.85Z"/></g><path class="cls-16" d="M1127.41,1258.53c-6.07-1-78.08-9.18-161.09,1.2-16,2-32.41,4.69-48.83,8.26-12.48,2.71-25,5.93-37.28,9.73-29,9-27.85,46.06-30.17,70.37-1,10.25,33.93,10.49,78.2,6.58,16.32-1.45,33.9-3.45,51.43-5.73,47.76-6.21,95.11-14.43,115.25-18.76,47.57-10.24,92.84,1.28,91.67-3.84S1135.53,1259.81,1127.41,1258.53Z"/><path class="cls-36" d="M1304,1595.26a28.21,28.21,0,0,0-32.51-24.08l-203.64,33.3a28.2,28.2,0,0,0-23.4,31.6l5.12,38.06a28.21,28.21,0,0,0,32.51,24.08l203.64-33.3a28.2,28.2,0,0,0,23.4-31.6Z"/><path class="cls-37" d="M1309.15,1592.78a27.34,27.34,0,0,0-31.51-23.33l-197.4,32.28a27.34,27.34,0,0,0-22.69,30.63l5,36.89a27.35,27.35,0,0,0,31.52,23.34l197.4-32.28a27.34,27.34,0,0,0,22.68-30.63Z"/><g class="cls-38"><g class="cls-18"><rect class="cls-3" x="964.96" y="1575.15" width="230.43" height="33.21" transform="translate(-843.22 1623.48) rotate(-56.78)"/><rect class="cls-3" x="1043.71" y="1606.65" width="196.92" height="21.58" transform="translate(-836.68 1687) rotate(-56.79)"/><rect class="cls-3" x="1025.74" y="1630.47" width="337.27" height="44.83" transform="translate(-842.72 1746.65) rotate(-56.78)"/></g></g><g class="cls-6"><ellipse class="cls-5" cx="1431.65" cy="2564.23" rx="570.1" ry="123.59"/></g><path class="cls-39" d="M3028.19,1484.64c-25-5.36-59,73.27-56.3,76.84s41.11,27.7,79.53,28.6,72.38-32.17,54.51-69.7S3030.81,1485.2,3028.19,1484.64Z"/><path class="cls-40" d="M3086.27,1497.15c-16.08,8-35.74,51.82-52.72,67.91s-15.19,24.12-1.79,27.7,27.7-4.47,35.74,4.47,27.71,15.19,38.43,12.51,57.19-30.38,57.19-30.38l-10.73-62.55S3102.35,1489.11,3086.27,1497.15Z"/><g class="cls-41"><path class="cls-39" d="M3059.71,1508.71c-2.73,5.46-4.26,11.45-6.85,17-5.05,10.79-13.84,19.31-20.46,29.2-.56.84-1,2.13-.22,2.72a2,2,0,0,0,.87.28c11.18,1.64,22.78-2.54,31.33-9.92s14.24-17.7,17.38-28.55c3.55-12.26,4.36-26,12.61-35.77l-1.68,1.79A43.43,43.43,0,0,0,3059.71,1508.71Z"/><path class="cls-39" d="M3115.34,1608.52a7,7,0,0,0-4.15-.68c-6.5.39-14.32,2.08-18.51-2.91-1.24-1.48-1.95-3.38-3.37-4.67-4.52-4.13-12.81.24-17.51-3.69-3.37-2.81-2.9-8.29-5.68-11.69-2.54-3.09-7.18-3.62-11-2.62s-7.28,3.23-10.93,4.88a38.64,38.64,0,0,1-23.16,2.68l-4.95,7.26c2.1,8.53,9,15,16.38,19.85a90.45,90.45,0,0,0,65.27,13.39c4.71-.86,9.46-2.14,13.36-4.91s6.82-7.28,6.62-12.06A5.85,5.85,0,0,0,3115.34,1608.52Z"/></g><path class="cls-39" d="M3060.36,1503.4c-25.92-17.87-44.68-8.93-44.68-8.93-34,26.8-13.41,57.19,14.3,59.87s42-9.83,42-9.83,20.55,14.29,34,8S3086.27,1521.27,3060.36,1503.4Z"/><g class="cls-42"><path class="cls-40" d="M3061.81,1498.33c-25.92-17.87-44.68-8.94-44.68-8.94-34,26.81-13.41,57.19,14.29,59.87s42-9.83,42-9.83,20.55,14.3,34,8S3087.72,1516.2,3061.81,1498.33Z"/></g><polygon class="cls-43" points="3387.76 1501.02 3325.43 1507.19 3199.03 1519.72 3223.51 1766.77 3238.58 1765.29 3380.17 1751.25 3594.07 1730.05 3569.6 1483 3387.76 1501.02"/><path class="cls-44" d="M3387.76,1501l-62.33,6.18q1.13,39.61,2.23,79.23c.56,19.93,1.08,40.2-4.11,59.44-12,44.48-51.55,75-79.44,111.66-1.91,2.51-3.79,5.1-5.53,7.75l141.59-14c1.62-6.07,2.79-12.31,3.89-18.45q10.74-60.16,16.45-121.1c2.59-27.57,4.35-55.78-2.33-82.66A133.4,133.4,0,0,0,3387.76,1501Z"/><path class="cls-3" d="M3462.24,2533s-47.59,21.44-68.36,53.61-42.89,59.65,20.1,59.65,122.64-46.91,133.37-55l6.7-26.8,8,14.07s13.4-6,18.77-9.38,4-48.92-2-66.35S3462.24,2533,3462.24,2533Z"/><path class="cls-40" d="M3453.52,2222.72s34.79,280.42,21.38,295.88-15.46,20.62-15.46,20.62,37.11,9.27,40.2,39.17c53.61-36.08,78.35-66,78.35-66l-3.84-279Z"/><g class="cls-45"><path class="cls-39" d="M3590.57,2166.92c-20.88-26.17-55.28-37.67-88.48-42a285.24,285.24,0,0,0-107.64,6.75l32.89,86.09a95.8,95.8,0,0,0,26.85,52.61c15.58,15.49,36,25.11,53.19,38.74,51,40.34,67.69,109.15,81.28,172.7l13.59-85.33c8-50,15.95-100.39,13-150.89C3613.57,2217.74,3608,2188.76,3590.57,2166.92Z"/></g><path class="cls-46" d="M3318.59,2503.37s-49.29,17.18-72.81,47.4-48,55.65,14.79,61.18,126.29-35.95,137.68-43c5.41-15.67,9-26.11,9-26.11l6.77,14.72s13.88-4.83,19.52-7.7,8.3-48.38,3.82-66.26S3318.59,2503.37,3318.59,2503.37Z"/><path class="cls-40" d="M3332.47,2490.13c-14.71,14.23-17.21,19.18-17.21,19.18s36.15,12.5,36.6,42.55c56.57-31.23,83.84-58.83,83.84-58.83l4.42-248.87-120.63-10.72S3347.18,2475.91,3332.47,2490.13Z"/><g class="cls-47"><path class="cls-39" d="M3465,2167.47c-20.88-26.17-55.29-37.68-88.49-41.95a285.18,285.18,0,0,0-107.63,6.74l32.89,86.1a95.81,95.81,0,0,0,26.85,52.6c15.57,15.5,36,25.12,53.19,38.75,50.95,40.34,67.68,109.14,81.27,172.7q6.8-42.67,13.6-85.33c8-50,15.94-100.39,13-150.89C3488,2218.29,3482.41,2189.31,3465,2167.47Z"/></g><path class="cls-32" d="M3601.46,1730.13c-22.64-142.45-59.79-152.27-59.79-152.27-33,18-187.62,8.74-187.62,8.74s-57.73,130.18-63.92,222-8.24,267-50.85,447.27c126.45,13.35,161.8,6.68,161.8,6.68a98.81,98.81,0,0,1,9.53,2.65c93.55,28.87,196.32,31.93,291.9,7.82,5.26-1.33,8.22-2.13,8.22-2.13s-33-103.47-53.61-186.92S3624.09,1872.58,3601.46,1730.13Z"/><g class="cls-48"><path class="cls-30" d="M3662.84,1746.85c-4.43-46.41-4.28-93.38-13.07-139.16s-27.78-91.54-63.42-121.6c-12.84-10.83-28.53-19.64-45.33-19.39s-34.15,12.1-36,28.8l.82,71.46c24.19,22.13,29,57.9,31.47,90.59,10.31,137,5.5,274.84,15.3,411.9,3.51,49.2,9.12,99.09,28.24,144.56s53.62,86.56,100,103.26c27,9.72,56.62,10.73,85.06,6.66,3-.43,6.11-1,8.43-2.89,3.89-3.2,4.2-8.94,4.13-14C3775.91,2115.93,3681,1937.14,3662.84,1746.85Z"/><path class="cls-30" d="M3516.94,2218.86c-13.22-49.86-14.76-102-15.26-153.57q-1.24-127.85,5.09-255.61c4-82.58,9.69-168.51-22-244.87l-12.5-36c-10.07,23.37-15.71,48.38-20.66,73.35-31.43,158.54-37.41,320.88-43.29,482.41q-3.28,90.38-6.58,180.75c-.58,15.83-.57,33.37,10,45.2,9.62,10.79,25.17,13.52,39.48,15.61l146.44,21.34C3556.18,2316.73,3530.15,2268.71,3516.94,2218.86Z"/><path class="cls-30" d="M3385.09,1483.29c-38.2-12-80.62,8.4-106.22,39.2s-38,70.15-49.82,108.42c-30.42,98.5-61.06,198.16-67.36,301.06-2.39,39.09-1.24,78.32-3.49,117.41-2.95,51.19-11.72,101.94-13.63,153.17-1.24,33.11,1.14,68.56,20.83,95.2,22,29.76,63.51,42.13,99.3,32.75s64.89-38.41,78.09-73c10.15-26.59,11.57-55.63,11.83-84.09.87-97.22-10.49-194.17-12.21-291.38s6.7-196.6,45.05-285.94c7.51-17.48,20.56-37.2,39.52-35.76l-3-45.09C3416.4,1499.76,3401.54,1488.47,3385.09,1483.29Z"/></g><path class="cls-49" d="M3611.68,1207.63c-41.1-44.67-67.91-73.27-42.89-121.52s16.09-194.8-75.06-193c-5.36.1-57.18-17.87-121.52-10.72s-71.49,51.82-59,78.63,14.3,109-8.93,135.82,19.66,85.78,12.51,116.16-42.89,73.28-16.09,96.51a366.59,366.59,0,0,0,51.83,37.53l232.33,30.38s30.38-26.81,26.8-67.91S3652.79,1252.31,3611.68,1207.63Z"/><g class="cls-50"><path class="cls-51" d="M3626.88,1268.23c-17.08-12.51-35.58-23.66-56.07-29-9.72-2.54-20.57-4.18-27.24-11.7-3.7-4.18-5.55-9.64-7.31-14.94-10.72-32.27-21.58-66-16.67-99.64,3.61-24.76,15.59-47.68,19.44-72.4,8.55-54.87-29.89-113-83.72-126.69l7.5,10.44a197.75,197.75,0,0,0-85.16-25.16c-21.87-1.3-48.22,4-56.35,24.4-2.79,7-2.9,14.7-3,22.22-.28,32.13-.5,64.76,8,95.73,5.6,20.32,14.89,42.1,6.69,61.52s-32.66,31.29-34.34,52.46c-1.47,18.62,15.91,33.84,18,52.4,1.71,15-6.87,29.24-16.9,40.5s-22,21.06-29.55,34.11c-20.08,34.62-1.55,81.28,30.21,105.63s72.87,32,112.29,38.91l78.39,13.75c39.15,6.86,79.7,13.69,118.23,3.92s74.62-40.93,76.85-80.61C3688.49,1324.89,3658.52,1291.41,3626.88,1268.23Z"/></g><path class="cls-52" d="M3318.6,1314.86c-9.82,45.42,18.74,184.88-1.79,275.22-8.94,39.31-14.3,89.35-14.3,89.35l53.62,8.94,28.59-482.52s-1.33,1.1-3.63,3.22C3369.07,1220.2,3330.6,1259.34,3318.6,1314.86Z"/><g class="cls-53"><path class="cls-54" d="M3387.23,1210c-.75-7.8-3.64-17.52-11.42-18.34-4-.42-7.78,1.92-11.16,4.17l-28.29,18.83,1.41,11.52a477.29,477.29,0,0,0-2.44,78.11,20.84,20.84,0,0,1,22.72-.94c-7.29-2-15.07,3.11-18.51,9.86s-3.55,14.64-3.33,22.21a340.73,340.73,0,0,0,38.34,147.12C3369,1391.63,3396,1300.67,3387.23,1210Z"/><path class="cls-54" d="M3304.74,1269a143.51,143.51,0,0,0-21.62,69.67c-1.11,26.3,5,52.29,7.74,78.47,4.3,41.54-.09,83.43-4.48,124.95q-5.4,51.21-10.82,102.43c25.59-49,35-104.51,44.13-159,11.94-71.54,23.64-146.59.21-215.23Z"/></g><path class="cls-40" d="M3462.91,1189.32c-4.93-31.54,14.9-73.83,17.38-104.16,10.09,1.62,23.39-8.5,31.54-25.19,9.56-19.58,5.9-36.11-10.72-44.23-14.14-6.91-25.39-5.12-36.19,8.77-8.63-15.83-16.24-19.88-16.24-19.88s-74,0-108-69c0,0-10,37-6,66s-33,35.76-29,44.39,25,3.74,29,21.2,9,75.48,41,71.48l32-4s9,53-6,63-25,18-25,18,31.14,31.75,81,35c16.83,1.1,76.25-33.3,76.25-33.3S3467.37,1217.91,3462.91,1189.32Z"/><g class="cls-55"><path class="cls-39" d="M3336.08,900.92l.83-3.75C3335.05,897.09,3335.13,899.11,3336.08,900.92Z"/><path class="cls-39" d="M3449.89,965.4c-31.46-29-75.63-39.38-111.84-62.22a6.12,6.12,0,0,1-2-2.26l-3.1,13.91c4.11,22.56,10.18,45.23,22.7,64.43s32.43,34.64,55.22,37.17c13.11,1.45,27.82-.95,38.3,7.07,3.21,2.45,6.42,6,10.42,5.41,2.61-.37,4.62-2.45,6.11-4.62,6.3-9.15,6.78-21.45,3.17-32S3458.05,972.93,3449.89,965.4Z"/><path class="cls-39" d="M3391.67,1138l-8.57,23.56c-2.29,6.28-4.33,14.05.1,19.05,4.13,4.65,11.58,4.07,17.43,2,14.5-5.18,25.86-17,33.55-30.32s12.13-28.25,16.51-43a99.37,99.37,0,0,1-47.14,26.42Z"/><path class="cls-39" d="M3476.71,1042.38c-6.63,4.66-9.06,12.63-5.43,17.78s11.94,5.56,18.57.89,9.06-12.63,5.43-17.79S3483.34,1037.71,3476.71,1042.38Z"/></g><path class="cls-29" d="M3384.07,1012.57a8.3,8.3,0,1,0,8.3,8.3A8.29,8.29,0,0,0,3384.07,1012.57Z"/><path class="cls-29" d="M3373.1,1105.09a2,2,0,0,1,0-4c5.64,0,13.36-5.43,18.52-10.82a24.83,24.83,0,0,0,5.05-6.89l-.64.17c-11.54,3.55-33.85,8.92-34.08,9a2,2,0,1,1-.93-3.89c.22-.05,22.41-5.39,33.83-8.9.91-.28,3.65-1.12,5.23.67,1,1.16,1.05,2.82.09,4.95-1.57,3.49-5.76,8.31-10.66,12.29C3386.08,1100.42,3379.39,1105.09,3373.1,1105.09Z"/><path class="cls-56" d="M3430.74,1037.86a19.21,19.21,0,1,0,19.21,19.21A19.21,19.21,0,0,0,3430.74,1037.86Z"/><path class="cls-3" d="M3438.12,1044.31q-7.87,8.46-15.41,17.23c-1.25,1.46.86,3.59,2.12,2.12q7.53-8.76,15.41-17.23C3441.56,1045,3439.44,1042.89,3438.12,1044.31Z"/><path class="cls-3" d="M3442.65,1052.84a173.49,173.49,0,0,0-11.57,14.65c-1.11,1.58,1.49,3.08,2.59,1.52a165.28,165.28,0,0,1,11.1-14C3446.05,1053.52,3443.93,1051.39,3442.65,1052.84Z"/><path class="cls-3" d="M3376.65,1215.74c-22.31,67.4-19.63,76.78-33,118.33s10.72,56.3,12.06,93.83,5.36,158.16,5.36,158.16,54.95,2.68,61.66,1.34,88.46-185,88.46-185L3505.8,1196S3433.8,1262.28,3376.65,1215.74Z"/><g class="cls-57"><path class="cls-16" d="M3546.79,1213.4c-12.87-14.25-33.3-18.21-52.23-21.38l-38,19.14c-26.52,38.57-18.49,92.73-42.86,132.7-13.7,22.48-36.36,38.19-51.11,60-13.22,19.54-19.39,42.9-24.41,66A888.38,888.38,0,0,0,3322.3,1570c-1.34,13.35-2.35,27,.87,40,8.19,33.08,46.92,55,79.5,45,19-5.84,34-20.21,47.23-35,85.6-96,123.27-229.94,112.67-358.15C3561.15,1244.61,3558.39,1226.24,3546.79,1213.4Z"/></g><path class="cls-52" d="M3488.37,1186.63s-41.55,24.13-53.61,109.91-34.85,166.21-34.85,166.21l-262.71,42.89,13.41,100.52s246.62-17.42,268.06-24.12c4,32.16,26.81,104.54,26.81,104.54L3637.15,1633l-49.59-151.46S3602.3,1189.32,3488.37,1186.63Z"/><g class="cls-58"><path class="cls-54" d="M3145,1507.41l-9.23-1.83C3138.84,1506.3,3141.92,1506.9,3145,1507.41Z"/><path class="cls-54" d="M3156.81,1509.77c.12-.28.26-.56.39-.84q-6.12-.51-12.19-1.52Z"/><path class="cls-54" d="M3526.74,1160.71c-11.25-5.79-24.87-4.24-37.06-.81a135.76,135.76,0,0,0-82.67,67.33c-18.76,36.2-20.06,78.84-17.39,119.53,2.35,35.92,7.46,72,5,107.81a35.53,35.53,0,0,1-7.19,4.23c-8.66,3.7-18.45,3-27.86,2.73-56-1.76-111.21,11.89-165.57,25.46-14.36,3.58-59.28-2.59-65.52,10.67,28.31,2.41,91.74,4.37,119.61-2.17,35-8.21,63.89-14.55,99.75-16.31s74,6.71,99.67,31.86a48.22,48.22,0,0,0-17-41.87c7.52-3.83,16.68-.19,23.61,4.61s13.4,11,21.65,12.67c2.25.47,4.76.54,6.65-.77,2.62-1.8,3.07-5.55,2.34-8.64-3.5-14.84-25.43-19-29.48-33.67-1.25-4.54-.52-9.35.22-14l7.89-49.54c1.76-11.07,3.57-22.31,8.22-32.51,11.82-26,41.39-44.66,41.59-73.18-22.13,13.82-35,38.22-46.78,61.48-6.46,12.72-12.94,25.47-18,38.82-3.71,9.83-6.64,20-11.33,29.39a116.59,116.59,0,0,1-14.84,22.08c5-12.12,9.07-24.87,13.5-37.06a398.63,398.63,0,0,1,47.66-91.78c2.17-3.11,4.46-6.37,4.83-10.14s-1.2-7.33-2.72-10.75L3474,1250.36l15.72,8.78c1.29.72,2.83,1.46,4.19.85,1.13-.5,1.68-1.76,2.14-2.91a214.32,214.32,0,0,1,41.65-65.69l.14,1.07C3544.86,1181.9,3538,1166.5,3526.74,1160.71Z"/><path class="cls-54" d="M3657.13,1621.73q-27-4.71-54.3-7.79c-20.93-2.36-44.92-5.73-56.28-23.46-8.64-13.49-6.51-32.14,2.8-45.18,2.84-4,6.38-9.29,3.43-13.2-2.7-3.57-8.32-2.31-12.52-3.89-6.91-2.6-8.09-11.85-7.18-19.17,1.93-15.42,8-30,12.13-44.93s6.31-31.33.56-45.76c-16.13,30.43-22.35,65.47-39.55,95.31a148,148,0,0,1-91.68,68.93s-5.5,57,7.15,86.84c5.73,13.5,13.6,26.78,25.95,34.71,12,7.7,27,9.48,41.15,7.71s27.63-6.82,40.91-12q49.55-19.14,98.17-40.57c13-5.71,26.43-12,35-23.28,2.28-3,4.17-7.18,2.21-10.42C3663.47,1623,3660.12,1622.25,3657.13,1621.73Z"/></g><path class="cls-59" d="M2528.69,2519.38c-34-12.51-59-42.89-59-42.89s-91.14,1.79-98.29,8.94,0,118,0,118,153.69,16.08,178.71,0S2562.64,2531.89,2528.69,2519.38Z"/><g class="cls-60"><path class="cls-61" d="M2569.19,2573.56c-12.25-19.14-32.31-36.9-54.84-34-18.47,2.41-32,17.7-46.8,29.07a126.57,126.57,0,0,1-70.4,25.93c-13.06.65-26.62-.89-38-7.34l1.37-5.69a250.33,250.33,0,0,0-11.84,22.31c-1.28,2.74-2.54,5.72-2,8.7s3,5.55,5.48,7.59c24.53,20.45,58.66,24.24,90.59,24.76a639.86,639.86,0,0,0,105.4-7c7.52-1.12,15.33-2.51,21.46-7,8.5-6.27,12.07-17.68,11.1-28.2S2574.88,2582.45,2569.19,2573.56Z"/><path class="cls-61" d="M2511,2500.93c-14.62-9.41-33.84-6.78-50.43-1.58-6,1.86-12,4.11-16.62,8.28s-7.62,10.71-6,16.74a8.75,8.75,0,0,0,2.13,4c4.26,4.29,11.41,1.08,16.68-1.89a113.52,113.52,0,0,1,64.95-14.08l3.82,2.44C2521.14,2509.71,2516.66,2504.56,2511,2500.93Z"/></g><path class="cls-59" d="M2771.74,2515.81c-34-12.51-59-42.89-59-42.89s-91.14,1.78-98.29,8.93,0,118,0,118,153.69,16.09,178.71,0S2805.69,2528.32,2771.74,2515.81Z"/><g class="cls-62"><path class="cls-61" d="M2808.47,2581c-8.24-4.91-13.27-13.74-20.33-20.24-12.89-11.89-33.1-15.05-49-7.68-9.13,4.23-16.52,11.37-24.74,17.16-29.48,20.71-68,23-103.94,20.75a24.38,24.38,0,0,1-5.38-.93c-3.18,15,7.24,30.71,20.87,38.19,14.17,7.77,30.93,8.79,47.07,9.64,28.59,1.51,57.5,3,85.65-2.26s55.88-18,73.75-40.38c3.23-4.05,6.21-9.59,3.73-14.14A27.78,27.78,0,0,1,2808.47,2581Z"/><path class="cls-61" d="M2605.08,2590.1c.13-.58.27-1.17.43-1.76l-6.65-4.35C2599,2587.24,2601.79,2589.11,2605.08,2590.1Z"/><path class="cls-61" d="M2758.49,2504.31c1.85.44,4.12-.09,5-1.78l-5.77,1.55A6.49,6.49,0,0,0,2758.49,2504.31Z"/><path class="cls-61" d="M2703.8,2499.17c-6,2-11.94,4.7-16.38,9.19s-7.13,11.15-5.48,17.25c.43,1.6,1.31,3.28,2.9,3.79,2,.66,4-.9,5.67-2.3a95.24,95.24,0,0,1,66.11-22.71l1.12-.31a20.83,20.83,0,0,1-4.29-2.45C2739.06,2492.28,2720,2493.63,2703.8,2499.17Z"/></g><path class="cls-52" d="M2695.09,1591.57s-293.52-124.64-325.69,60.32c0,0-8,297.54-8,357.85s3.62,95.33,0,152.79c-4.24,67.34-.66,317.54,4,345.79,24.13,20.11,148.77-8,148.77-8s-12.06-619.21,16.09-651.37,40.2,16.08,40.2,16.08l28.15,631.27s96.5-28.15,140.73-16.08c0-124.65-12.06-414.15-16.08-518.69S2695.09,1591.57,2695.09,1591.57Z"/><g class="cls-63"><path class="cls-64" d="M2492.53,2484.35c-19.42,4.21-38.88,11.3-58.61,8.88s-39.76-18.94-37-38.63c1.79-12.8,12.34-22.64,16.37-34.92,2.94-9,2.24-18.64,1.5-28q-7.82-100-15.64-199.91c-.8-10.28-1.49-21.18,3.29-30.31,4.33-8.3,13-17.86,7.21-25.24-3.1-4-9.05-4.54-12.61-8.1-8-8,2.19-21.22,12.44-26s23.51-10.56,23.28-21.89c-9.82,7-25.09,4.58-32.24-5.14-7.77-10.57-5.36-25.18-3-38.09,23.92-131.63,3.53-267.1,12.09-400.62,2-31.7,6.09-64.49,22.79-91.52l-35.47,20.76c-71.15,38.83-119,117.22-120.89,198.25-.72,30.14,4.42,60.06,8.92,89.87a2154.26,2154.26,0,0,1,8.77,577.09c-4.15,34.58-7.33,74.73,17.6,99.06,15.93,15.55,39.3,20,61.23,23.86,28.88,5,59,10,87.07,1.46,22.36-6.76,41.4-21.53,58.45-37.49,5.21-4.89,10.65-10.72,10.65-17.87C2528.7,2484.65,2507.3,2481.15,2492.53,2484.35Z"/><path class="cls-64" d="M2521.7,1999.94c1.14,46.9-4.93,99.49-41,129.53-3.06,2.55-6.44,5.09-7.82,8.83-3.83,10.42,9.63,18.33,20.33,21.32q-5.58,10.11-11.14,20.23c44.45,41.11,25.21,117.33,55.26,169.9,6.51-23.73,6.74-48.67,6.92-73.27q1.39-186,2.8-372l-9.49-42.66C2515.51,1903.24,2520.57,1953,2521.7,1999.94Z"/><path class="cls-64" d="M2600.85,2228c-2.91-11.73,15.6-18,18-29.83,1.19-5.79-1.78-11.5-4.34-16.82-26.52-55.17-15.66-119.87-15.06-181.08.38-38.77-3.62-77.43-7.61-116-1.25-12.12-2.6-24.57-8.19-35.4s-16.47-19.83-28.66-19.51-23.59,13-19.73,24.52l15.13,13.81c16.7,36.36,11.94,78.38,10.3,118.36-1.2,29.19-.54,58.42.12,87.63q3.3,146.34,6.61,292.68c1.15,51,2.51,103.12,20.4,150.89,1,2.7,2.18,5.52,4.48,7.26,8.44,6.39,17.81-7.06,19.41-17.52,12.28-80.24-15.54-165.44,11.64-241.93,1.94-5.46,4.14-11.55,1.75-16.83C2620.65,2238.36,2603.47,2238.57,2600.85,2228Z"/><path class="cls-64" d="M2689.33,2140.61c.14-62.66-11.33-124.67-16.66-187s-7.87-125-8.92-187.63c-1.18-70.6-.47-141.21.25-211.81a1.5,1.5,0,0,0-3,0c-1.28,126.59-2.57,253.4,7.07,379.73q3.61,47.34,9.42,94.44c3.85,31.41,7.85,62.8,8.65,94.47,1.57,62.42-6.68,124.51-8.45,186.84-1.8,62.86,3.34,127.51,30.38,185.17.82,1.75,3.41.22,2.59-1.51C2658.72,2382.57,2689.07,2257.56,2689.33,2140.61Z"/><path class="cls-64" d="M2463.59,1955.28c8.45-67.27,16.1-134.68,20.8-202.34,5.24-75.54,6.7-151.4,1.53-227-.13-1.92-3.13-1.93-3,0,4.64,67.81,3.95,135.86,0,203.69-4,67.67-11.17,135.11-19.41,202.39-8.26,67.54-18,134.92-25.77,202.52-3.81,33.17-6.47,66.51-5.19,99.92,1.25,32.8,5.66,65.37,10.1,97.87,9,66,18,132.15,34.26,196.82q3,12.06,6.39,24a1.5,1.5,0,0,0,2.89-.8c-18-63.88-28-129.57-37.12-195.2-4.64-33.5-9.66-67-12.25-100.75-2.55-33.37-1.62-66.64,1.59-99.93C2444.85,2089.24,2455.17,2022.31,2463.59,1955.28Z"/></g><path class="cls-65" d="M2532.26,1109.34s-119.74,19.66-173.35,92.93-5.36,316.32-5.36,316.32l41.1,96.51,317.66,4.47,5.81-222.5s44.68,84,87.57,105.44S2979,1577.57,2979,1577.57l60.76-94.72-173.35-98.29S2737.78,1055.73,2532.26,1109.34Z"/><g class="cls-66"><path class="cls-65" d="M2511.9,1600.19c4-8.66,13.39-13.33,22.06-17.36l-70-17.32c-7.66-1.89-15.71-4-21.34-9.51s-8-13.69-10-21.39c-11.54-43.6-23.09-87.28-30.29-131.8-9.36-58-11.35-117.42-27.69-173.84-5.38-18.61-13.89-38.55-31.48-46.64l-11.93-23c-18.08,29-36.73,59.8-37.67,94-.5,18.12,4.08,35.92,7.87,53.64,19.35,90.42,18.71,184.06,35.9,274.9,3.79,20.08,10.43,42.59,28.86,51.4,8.25,4,17.67,4.43,26.8,4.85l139,6.36c52.41,2.4,105.15,4.79,157.17-2,12.81-1.68,26.07-4.14,36.43-11.86s16.76-22.2,11.41-34A1267,1267,0,0,1,2511.9,1600.19Z"/><path class="cls-67" d="M2894.93,1484.11c-11-11.69-20.29-28.35-36.31-29.7-8.14-.68-17.56,2.71-23.77-2.59-11.24-9.59,5.45-29.71-2.38-42.24-8.82,9.05-25,5.83-33.89-3.15s-12.5-21.75-16.24-33.83a514,514,0,0,0-25.76-66.39c-7.77-16.51-19.24-34.63-37.4-36.47q-1.62,77.73,1.49,155.44l9.72,17.06,70.4,96.15c15.06,20.57,30.52,41.54,51.49,56,30.13,20.8,70.53,25.86,104.85,13.11s61.62-42.94,70.86-78.37C2983.35,1512.78,2927.57,1518.69,2894.93,1484.11Z"/><path class="cls-67" d="M2548.2,1081.92c1.55,1.31,5,2.85,9.43,4.57a28.39,28.39,0,0,1,8.06-2.28C2588.56,1081.44,2545.14,1079.35,2548.2,1081.92Z"/><path class="cls-67" d="M2557.63,1086.49c-16.62,7.28-29,28.18-47.31,27.33l-20.66,26.64c23.54,36.66,17.22,32.44,28.25,74.4,14.34-12.6,22.46-20,36.81-23.84,18.85-5.07,22.29-9.62,27.55-8.34,30.5,7.46,48.93,2.18,73.21,9.43-6.25-29.95-33.43-60.9-45.67-81C2610.08,1103,2575.47,1093.36,2557.63,1086.49Z"/></g><path class="cls-49" d="M2683.45,883.94c-5-.83-27.66-53.63-81.3-57.82s-68.91,20.77-68.91,20.77c-108.36,20.62-87.88,92.08-72.84,121.73a106.21,106.21,0,0,0,9.1,14.74l43.42,59.13s132.86-103.23,163-117.48S2688.47,884.78,2683.45,883.94Z"/><g class="cls-68"><path class="cls-69" d="M2688.53,902.61a43.26,43.26,0,0,1-22.2-10.48c-6.34-5.68-10.87-13.14-17-19-16.43-15.86-41.58-18.32-64.35-16.54a46.42,46.42,0,0,0,5.68-21c-20.86-4.23-43.67,11.08-47.65,32l-4.26-5.85c-10,.55-20.45,1.25-28.85,6.66s-13.56,17.22-8.31,25.71c-17.86.68-32.82,13.31-45.3,26.11-6.43,6.59-12.8,13.7-15.6,22.47-2.88,9-1.66,18.82.62,28a127.21,127.21,0,0,0,33.45,59.11c7.91,7.89,17.19,14.89,28,17.67,21.61,5.55,43.47-6.56,62.2-18.7q47.68-30.9,92.41-66.12c12.85-10.12,25.66-20.67,35.14-34,3.62-5.09,6.81-10.9,6.75-17.14a8.79,8.79,0,0,0-1.54-5.35C2695.67,903.44,2691.87,903.11,2688.53,902.61Z"/></g><path class="cls-40" d="M2671.5,921.66c-11.31,9.43-45.25-16.34-45.25-16.34s-3.15,10.68-18.86,14.45-25.77-11-25.77-11-6.29,39.25-37.09,17.88c2.59,16.3-3.63,37.66-11.85,57.17a35.25,35.25,0,0,0-3-2c-15.73-9.08-35.21-4.77-43.52,9.62s-2.3,33.42,13.43,42.5a36.15,36.15,0,0,0,5.59,2.6l2.08,99.4,71.06,52,41.55-50.94s-10.56-9.21-10.56-38.12c59.72,2.51,63.49-48.4,62.23-74.18S2671.5,921.66,2671.5,921.66Z"/><g class="cls-70"><path class="cls-39" d="M2630.87,877.08c-24.58-3.14-49.74,3.6-71.39,15.64-7.33,4.07-14.48,8.89-19.4,15.67L2523.33,933a368,368,0,0,1,8.76,51.17,116.78,116.78,0,0,0,26.79-45.06c9.81,7.3,26.27,1.5,29.33-10.34.44-1.7.8-3.69,2.33-4.55,2.26-1.25,4.77.95,7,2.24,4.13,2.38,9.42,1.66,13.78-.28s8.16-4.93,12.35-7.21c1.9-1,4.05-1.93,6.17-1.5,2.93.59,4.73,3.44,6.53,5.83a34.72,34.72,0,0,0,54.16,1.74,8.18,8.18,0,0,0,2.09-3.72c.34-1.92-.56-3.83-1.5-5.53C2679.15,894.1,2655.44,880.22,2630.87,877.08Z"/><path class="cls-39" d="M2611.25,1097.7c-21.85-2.13-40.64-15.73-58.23-28.85-2.75,7.43-2.23,15.79.24,23.32s6.77,14.33,11.51,20.68c4,5.34,8.44,10.53,14.15,14a44.6,44.6,0,0,0,11.49,4.67c4.86,1.34,10,2.21,14.94,1.43s9.86-3.41,12.41-7.76c4.3-7.36.89-16.65-2.56-24.45Z"/><path class="cls-39" d="M2522.9,998.54c-6.64-4.48-14.93-3.79-18.52,1.54s-1.12,13.28,5.52,17.75,14.93,3.78,18.52-1.54S2529.54,1003,2522.9,998.54Z"/></g><path class="cls-29" d="M2572.82,945.54l19.48-5.65S2584.76,933,2572.82,945.54Z"/><path class="cls-29" d="M2637.49,945.54l19.48-5.65S2649.43,933,2637.49,945.54Z"/><path class="cls-29" d="M2618.28,1020.46a2,2,0,0,1-.8-3.83s4.64-2.29,9.63-12.39a12.27,12.27,0,0,1-6.35-4.3c-6.33-8-4.13-23.21-4-23.85a2,2,0,0,1,4,.59c0,.14-2,14.14,3.22,20.78a8.52,8.52,0,0,0,6.28,3.29l2.81.24-1.15,2.57c-6,13.47-12.08,16.44-12.76,16.73A1.89,1.89,0,0,1,2618.28,1020.46Z"/><path class="cls-29" d="M2610.67,1057.26a19.34,19.34,0,0,1-17.83-12.09c-1.42-3.53-1.21-6.56.58-8.1,1.13-1,3.23-1.7,6.81.41,9.69,5.7,23,0,23.11-.11A2,2,0,0,1,2625,1041c-.62.28-15.32,6.62-26.76-.1-1.61-1-2.22-.8-2.23-.8-.18.29-.23,2.15,1.16,4.78a15.33,15.33,0,0,0,14.44,8.32,2,2,0,0,1,.22,4Z"/><path class="cls-29" d="M2590.26,970.27a7.7,7.7,0,1,0,7.7,7.7A7.7,7.7,0,0,0,2590.26,970.27Z"/><circle class="cls-29" cx="2647.23" cy="976.39" r="7.7"/><circle class="cls-56" cx="2558.06" cy="1009.61" r="18.39"/><path class="cls-3" d="M2561.31,1000.8q-6.36,5.82-13.17,11.09c-1.52,1.18.62,3.29,2.12,2.12q6.82-5.28,13.17-11.09C2564.86,1001.61,2562.73,999.49,2561.31,1000.8Z"/><path class="cls-3" d="M2566.05,1007l-11.7,10c-1.46,1.26.67,3.37,2.12,2.12l11.7-10C2569.64,1007.85,2567.51,1005.74,2566.05,1007Z"/><path class="cls-71" d="M2562.61,1194a61.56,61.56,0,0,0-26.94,8.83,59.35,59.35,0,0,0-5.66,4c-1.84,1.46-5,5.44-7.23,6l-5.4-.57c-.27-.73-.54-1.45-.8-2.18a37.51,37.51,0,0,1-.63-4.23c-.36-2.58-.74-5.16-1.21-7.72a143.89,143.89,0,0,0-25.14-58.09c-1.12-1.55-3.73-.06-2.59,1.51a142.89,142.89,0,0,1,17.68,32.19c4.48,11.57,6.58,23.21,8.68,35.36,1.56,9,8.33,8.95,14.44,3.57,10-8.8,21.41-14.45,34.8-15.69C2564.51,1196.84,2564.53,1193.84,2562.61,1194Z"/><path class="cls-71" d="M2656.17,1192.41c-1.21-.32-2.43-.62-3.64-.91.65,1,1.28,2.08,1.94,3.11Z"/><path class="cls-71" d="M2626.11,1132.39c-.7-1.78-3.6-1-2.89.8a349.23,349.23,0,0,0,29.31,58.31c1.21.29,2.43.59,3.64.91l-1.7,2.2c-.66-1-1.29-2.08-1.94-3.11a186.25,186.25,0,0,0-50.57-5.09c-1.93.07-1.94,3.07,0,3a183.93,183.93,0,0,1,53.41,5.89,1.51,1.51,0,0,0,1.69-2.2A345.91,345.91,0,0,1,2626.11,1132.39Z"/><path class="cls-32" d="M2602,1200.49s-16.09-17.88-46.47,5.36l10.73,28.59-1.34,287.28,35.29,43.34,23.68-46-27.25-291.75Z"/><g class="cls-72"><path class="cls-73" d="M2633.57,1513.44c-2.28-3.3-6.48-4.61-10.41-5.36-12.49-2.38-26.34-1.68-36.6-9.19-6.22-4.56-10.21-11.63-12.47-19-2.58-8.4-3.13-17.27-3.54-26-3.29-69.39.32-138.91,5-208.22.16-2.31.34-4.71,1.51-6.71,2.57-4.42,8.53-5.05,13.59-5.81s11.08-3.34,11.3-8.45c-5.61-2.12-11.84-.6-17.83-.16s-13-.88-15.77-6.23c-2.4-4.7-.14-10.78,4-14s9.65-4.24,14.93-4.34a55.42,55.42,0,0,1,19.15,3l8.67-19.08c-15.11,0-30.23.78-45.27,2.29-8.06.8-16.28,1.87-23.56,5.45s-13.56,10.1-14.78,18.11c-1.47,9.69,4.43,18.73,8.14,27.8,6.06,14.84,6.4,31.49,4,47.34s-7.36,31.18-11.69,46.62c-18.21,64.88-24.8,135.92.11,198.53,5.39,13.53,12.9,27.25,25.67,34.23,15.9,8.68,35.63,4.7,52.6-1.62,7.48-2.78,15.15-6.24,19.9-12.65,5.72-7.71,6-18.07,5.53-27.66C2635.59,1519.18,2635.31,1516,2633.57,1513.44Z"/></g><path class="cls-71" d="M2719.12,1326l-1.77,69.68c0,1.94,3,1.93,3,0l1.77-69.68C2722.17,1324.11,2719.17,1324.11,2719.12,1326Z"/><path class="cls-71" d="M2755.38,1340.09a252.5,252.5,0,0,1-36.11,50.53c-1.31,1.42.81,3.54,2.12,2.12A255.6,255.6,0,0,0,2758,1341.6C2758.89,1339.9,2756.3,1338.39,2755.38,1340.09Z"/><polygon class="cls-43" points="2455.01 1486.51 2437.15 1491.38 2275.88 1535.39 2275.36 1535.53 2175.88 1562.67 2245.73 1818.7 2351.66 1789.79 2358.47 1787.93 2500.76 1749.12 2510.33 1746.51 2600.03 1722.03 2530.18 1466.01 2455.01 1486.51"/><path class="cls-44" d="M2475.1,1644.61c-5.95-11.1-12.91-21.82-16.81-33.8-4.94-15.1-4.74-31.34-4.49-47.22q.6-38.56,1.21-77.08l-179.13,48.88c6.6,62.43,64.72,109.5,78.36,171.3,5.85,26.53,3.06,54.06,4.23,81.24l142.29-38.82,9.57-2.6c-8.69-9.81-10.42-24.3-12.79-37.44A219.47,219.47,0,0,0,2475.1,1644.61Z"/><path class="cls-40" d="M2453.63,1701.33s-79.53,17.42-84,30.38,12.51,58.53,17.43,71.48,25,9.38,33.51,5.36,14.74-8,27.25-13,19.66-9.83,23.68-14.75-5.36-29-5.36-29,16.53,9.39,25,7.6-8.94-25.92-17-38.87A57.12,57.12,0,0,0,2453.63,1701.33Z"/><g class="cls-74"><path class="cls-39" d="M2499.38,1749.75a15.1,15.1,0,0,1,.7,2,7,7,0,0,0,1.1-4Z"/><path class="cls-39" d="M2490.29,1756.65c-5.26-.25-9.91-3.3-14.26-6.26s-8.61-5.83-12.91-8.75c-2.08-1.41-4.91-2.82-6.91-1.3-1.17.89-1.53,2.49-1.67,4-1.46,15,10.62,30.11,5.11,44.1a11,11,0,0,1-3.78,5.17c-7.65,5.18-18.43-5.66-26.72-1.58-7,3.43-6.36,14.55-12.8,18.9-3.45,2.33-8,2-12.11,1.31s-8.32-1.84-12.36-.83-7.7,5.08-6.51,9.07c.86,2.88,3.8,4.58,6.61,5.64,12.59,4.78,26.71,2.45,39.7-1.11,14.74-4,29.43-9.82,40.68-20.16,8.48-7.79,14.57-17.78,20.55-27.62,4.71-7.75,9.53-17,7.17-25.42A11.31,11.31,0,0,1,2490.29,1756.65Z"/></g><path class="cls-65" d="M2424.14,1486.87c1.34-20.1,29.52-171.56,33.51-210.43,5.36-52.28-50-117.51-98.74-74.17,0,0-40.66,74.17-54.06,146.55s-20.11,97.84-6.7,162.18,52.27,239.92,52.27,239.92l127.33-41.55S2422.8,1507,2424.14,1486.87Z"/><g class="cls-75"><path class="cls-67" d="M2410.8,1158.65l-49.64,32.4c31,7.67,53.33,36.74,61.14,67.74s3.46,63.7-3.14,95-15.43,62.36-16.56,94.3c-.13,3.87-.18,7.86-1.65,11.45-3.76,9.16-14.8,12.25-23.73,16.51s-17.65,14.81-12.23,23.09c7.67,11.7,32.26,1.4,36.93,14.59,2.32,6.58-3.27,13.48-2.8,20.45.48,7.19,7,12.2,12.33,17.06,27.44,25,32.64,65.32,42.36,101.16s32.5,75.16,69.56,77.5c-19.77-109.49-39.56-222-18.64-331.27,6.74-35.2,17.66-69.67,21.44-105.31s-.39-73.82-21.2-103S2443.61,1144.23,2410.8,1158.65Z"/></g><path class="cls-71" d="M2412.38,1487.06l-23.83-7.62c-1.84-.59-2.63,2.31-.8,2.89l23.83,7.62C2413.43,1490.54,2414.22,1487.65,2412.38,1487.06Z"/><path class="cls-71" d="M2381.62,1442a1.5,1.5,0,0,0-1.51,2.59,105.06,105.06,0,0,1,36.73,34.51c1,1.62,3.65.11,2.59-1.51A108.16,108.16,0,0,0,2381.62,1442Z"/></g></svg>