<svg width="220" height="36" viewBox="500 0 100 180" fill="none" xmlns="http://www.w3.org/2000/svg">
 <svg width="220" viewBox="0 0 6 190" fill="none" preserveAspectRatio="xMinYMid meet">
    <path
        d="M215.705 41.2947C205.956 20.7256 186.073 6.48751 163.661 4.80347C152.677 3.78487 141.343 5.63991 131.448 10.6325C124.801 13.9337 118.88 18.5063 113.908 23.9599C103.648 12.324 89.1489 4.71053 73.5077 3.92241C40.6193 1.94841 12.2754 23.2387 5.36555 56.2875C1.17145 76.0796 5.74517 96.749 14.8306 114.158C23.9013 131.333 37.1407 146.601 54.3587 155.575C66.3752 161.423 77.6398 146.586 68.8537 136.214C66.054 133.077 63.4697 129.738 61.1189 126.173C58.9324 122.868 56.965 119.392 55.1873 115.839C50.2376 105.693 46.54 94.2694 45.8136 83.0202C45.3828 75.8714 46.3173 69.704 49.2849 63.4883C52.0956 57.6853 56.6474 52.6926 62.6301 50.3543C71.9272 46.8264 81.6295 48.7223 88.6999 56.3432C93.2919 61.0757 95.3981 67.6891 97.7415 73.797C97.9167 74.2394 98.1065 74.6669 98.3073 75.0833C102.98 89.485 124.381 89.8493 128.374 73.4662C128.495 72.9085 128.619 72.3435 128.75 71.7747C128.772 71.6855 128.798 71.6 128.819 71.507C128.841 71.4141 128.856 71.3212 128.878 71.2282C129.221 69.7672 129.615 68.3025 130.13 66.9419C131.725 62.5441 134.371 58.3061 137.558 55.0681C142.358 50.1833 148.472 47.2353 155.163 47.8933C158.908 48.1089 163.135 49.1275 166.187 50.7781C183.277 60.0459 181.492 84.4031 174.17 100.452C169.019 111.693 160.781 121.099 151.641 129.229C149.377 131.229 146.793 133.437 144.457 135.303C133.744 143.627 130.999 159.386 139.467 170.679C148.552 183.096 166.647 183.695 177.042 172.65C179.087 170.635 181.054 168.538 183 166.427C202.612 144.523 220.436 112.009 223.207 82.0462C224.346 68.0386 221.852 54.0421 215.705 41.2947Z"
        fill="url(#paint0_radial_602_1145)"></path>
    </svg>
    <path
        d="M298.208 128.126C293.625 128.126 289.317 127.622 285.284 126.613C281.252 125.605 277.998 123.634 275.523 120.701C273.14 117.677 271.948 113.277 271.948 107.503C271.948 102.736 272.773 98.8409 274.423 95.8162C276.165 92.7915 278.41 90.5001 281.16 88.9419C283.91 87.292 286.751 86.1463 289.684 85.5047C292.709 84.8631 295.459 84.5423 297.933 84.5423C300.133 84.5423 302.241 84.634 304.258 84.8173C306.366 85.0006 308.199 85.2297 309.757 85.5047C310.765 85.7797 311.27 85.0922 311.27 83.4424C311.27 79.4095 310.124 76.5681 307.832 74.9182C305.541 73.2684 302.241 72.4434 297.933 72.4434C294.45 72.4434 291.105 73.0851 287.897 74.3683C284.78 75.5598 282.168 76.7055 280.06 77.8054C279.143 78.2637 278.502 78.447 278.135 78.3554C277.86 78.1721 277.677 77.6679 277.585 76.843L276.485 69.8312C276.394 68.9146 276.394 68.273 276.485 67.9064C276.669 67.5397 277.127 67.1273 277.86 66.669C280.152 65.2025 283.085 64.0109 286.659 63.0943C290.234 62.0861 294.084 61.582 298.208 61.582C304.349 61.582 309.207 62.2694 312.782 63.6443C316.448 65.0191 319.198 66.8981 321.031 69.2812C322.864 71.6644 324.102 74.3683 324.743 77.393C325.385 80.4177 325.706 83.5799 325.706 86.8796C325.706 91.0042 325.66 94.9455 325.568 98.7035C325.568 102.461 325.476 106.174 325.293 109.84C325.202 113.506 324.972 117.218 324.606 120.976C324.422 121.985 324.147 122.764 323.781 123.314C323.414 123.772 322.635 124.23 321.444 124.688C320.16 125.33 318.465 125.88 316.357 126.338C314.34 126.705 312.186 127.026 309.895 127.301C307.603 127.576 305.403 127.759 303.295 127.851C301.279 128.034 299.583 128.126 298.208 128.126ZM299.033 118.777C299.858 118.777 300.821 118.731 301.92 118.639C303.02 118.547 304.12 118.364 305.22 118.089C306.412 117.722 307.374 117.31 308.107 116.852C308.932 116.302 309.391 115.614 309.482 114.789C309.757 112.406 309.986 109.748 310.17 106.815C310.353 103.79 310.399 100.949 310.307 98.291C310.307 96.9161 309.803 95.9995 308.795 95.5413C307.787 94.9913 306.274 94.6247 304.258 94.4414C302.333 94.258 300.5 94.1664 298.758 94.1664C297.658 94.1664 296.421 94.3497 295.046 94.7163C293.671 95.083 292.342 95.7246 291.059 96.6412C289.867 97.5577 288.859 98.8868 288.034 100.628C287.209 102.37 286.797 104.661 286.797 107.503C286.797 109.886 287.301 111.948 288.309 113.69C289.317 115.339 290.738 116.623 292.571 117.539C294.404 118.364 296.558 118.777 299.033 118.777Z"
        fill="black"></path>
    <path
        d="M362.092 128.126C356.226 128.126 351.414 127.301 347.656 125.651C343.898 123.909 340.965 121.526 338.857 118.502C336.841 115.385 335.374 111.811 334.458 107.778C333.633 103.653 333.22 99.2992 333.22 94.7163C333.22 90.4084 333.678 86.2838 334.595 82.3425C335.512 78.4012 337.024 74.8266 339.132 71.6185C341.24 68.4105 344.127 65.8899 347.794 64.0567C351.46 62.2236 356.18 61.307 361.955 61.307C365.896 61.307 369.333 61.7195 372.266 62.5444C375.2 63.3693 377.766 64.6525 379.966 66.394C380.516 67.0356 380.882 67.4939 381.066 67.7689C381.249 68.0439 381.341 68.5022 381.341 69.1438V78.0804C381.341 78.8137 381.111 79.2261 380.653 79.3178C380.195 79.3178 379.782 79.1345 379.416 78.7678C377.124 76.7514 374.65 75.4223 371.991 74.7807C369.333 74.0475 366.629 73.6808 363.88 73.6808C361.13 73.6808 358.747 74.2766 356.73 75.4682C354.714 76.6597 353.11 78.2637 351.918 80.2802C350.727 82.2967 349.81 84.5881 349.169 87.1546C348.619 89.6293 348.344 92.1957 348.344 94.8538C348.344 99.2534 348.848 103.103 349.856 106.403C350.956 109.611 352.606 112.086 354.806 113.827C357.005 115.569 359.755 116.439 363.055 116.439C365.346 116.439 367.546 116.164 369.654 115.614C371.854 115.064 374.145 114.239 376.529 113.14C377.903 112.406 378.866 112.681 379.416 113.965L382.303 120.701C382.67 121.343 382.761 121.847 382.578 122.214C382.486 122.58 382.166 122.901 381.616 123.176C379.232 124.918 376.254 126.201 372.679 127.026C369.196 127.759 365.667 128.126 362.092 128.126Z"
        fill="black"></path>
    <path
        d="M413.681 128.126C409.098 128.126 404.79 127.622 400.757 126.613C396.724 125.605 393.471 123.634 390.996 120.701C388.613 117.677 387.421 113.277 387.421 107.503C387.421 102.736 388.246 98.8409 389.896 95.8162C391.637 92.7915 393.883 90.5001 396.633 88.9419C399.383 87.292 402.224 86.1463 405.157 85.5047C408.182 84.8631 410.931 84.5423 413.406 84.5423C415.606 84.5423 417.714 84.634 419.731 84.8173C421.839 85.0006 423.672 85.2297 425.23 85.5047C426.238 85.7797 426.742 85.0922 426.742 83.4424C426.742 79.4095 425.597 76.5681 423.305 74.9182C421.014 73.2684 417.714 72.4434 413.406 72.4434C409.923 72.4434 406.578 73.0851 403.37 74.3683C400.253 75.5598 397.641 76.7055 395.533 77.8054C394.616 78.2637 393.975 78.447 393.608 78.3554C393.333 78.1721 393.15 77.6679 393.058 76.843L391.958 69.8312C391.867 68.9146 391.867 68.273 391.958 67.9064C392.142 67.5397 392.6 67.1273 393.333 66.669C395.625 65.2025 398.558 64.0109 402.132 63.0943C405.707 62.0861 409.557 61.582 413.681 61.582C419.822 61.582 424.68 62.2694 428.255 63.6443C431.921 65.0191 434.671 66.8981 436.504 69.2812C438.337 71.6644 439.575 74.3683 440.216 77.393C440.858 80.4177 441.179 83.5799 441.179 86.8796C441.179 91.0042 441.133 94.9455 441.041 98.7035C441.041 102.461 440.949 106.174 440.766 109.84C440.674 113.506 440.445 117.218 440.079 120.976C439.895 121.985 439.62 122.764 439.254 123.314C438.887 123.772 438.108 124.23 436.916 124.688C435.633 125.33 433.938 125.88 431.829 126.338C429.813 126.705 427.659 127.026 425.368 127.301C423.076 127.576 420.876 127.759 418.768 127.851C416.752 128.034 415.056 128.126 413.681 128.126ZM414.506 118.777C415.331 118.777 416.293 118.731 417.393 118.639C418.493 118.547 419.593 118.364 420.693 118.089C421.885 117.722 422.847 117.31 423.58 116.852C424.405 116.302 424.863 115.614 424.955 114.789C425.23 112.406 425.459 109.748 425.643 106.815C425.826 103.79 425.872 100.949 425.78 98.291C425.78 96.9161 425.276 95.9995 424.268 95.5413C423.259 94.9913 421.747 94.6247 419.731 94.4414C417.806 94.258 415.973 94.1664 414.231 94.1664C413.131 94.1664 411.894 94.3497 410.519 94.7163C409.144 95.083 407.815 95.7246 406.532 96.6412C405.34 97.5577 404.332 98.8868 403.507 100.628C402.682 102.37 402.27 104.661 402.27 107.503C402.27 109.886 402.774 111.948 403.782 113.69C404.79 115.339 406.211 116.623 408.044 117.539C409.877 118.364 412.031 118.777 414.506 118.777Z"
        fill="black"></path>
    <path
        d="M449.655 95.6787C449.747 88.7127 450.618 83.0299 452.268 78.6304C454.009 74.2308 456.209 70.8394 458.867 68.4563C461.617 65.9816 464.596 64.2859 467.804 63.3693C471.103 62.3611 474.357 61.857 477.565 61.857C479.307 61.857 481.094 62.0403 482.927 62.4069C484.76 62.6819 486.227 62.9568 487.327 63.2318C488.06 63.4151 488.61 63.461 488.977 63.3693C489.435 63.2777 489.664 62.8652 489.664 62.1319C489.664 60.4821 489.618 58.6489 489.527 56.6325C489.527 54.616 489.435 52.5995 489.252 50.583C489.16 48.4749 489.023 46.4126 488.839 44.3961C488.748 42.3796 488.61 40.5006 488.427 38.7591C488.335 37.0176 488.243 35.5969 488.152 34.4971C487.877 33.2138 487.877 32.4347 488.152 32.1598C488.518 31.8848 489.068 31.7473 489.802 31.7473H501.213C501.763 31.7473 502.176 31.839 502.45 32.0223C502.817 32.1139 503.046 32.4347 503.138 32.9847C503.505 36.926 503.825 41.4172 504.1 46.4584C504.375 51.4996 504.559 56.8616 504.65 62.5444C504.834 68.1355 504.925 73.7725 504.925 79.4553C505.017 85.0464 504.971 90.5001 504.788 95.8162C504.696 101.041 504.513 105.807 504.238 110.115C503.963 114.331 503.55 117.86 503 120.701C502.817 121.618 502.496 122.351 502.038 122.901C501.58 123.451 500.434 124.047 498.601 124.688C496.676 125.513 493.835 126.293 490.077 127.026C486.319 127.759 482.194 128.126 477.703 128.126C474.128 128.126 470.737 127.713 467.529 126.888C464.412 125.972 461.709 124.597 459.417 122.764C456.209 120.289 453.734 116.806 451.993 112.315C450.343 107.732 449.564 102.186 449.655 95.6787ZM465.054 95.6787C465.054 101.911 465.787 106.494 467.254 109.427C468.812 112.269 470.783 114.056 473.166 114.789C474.449 115.523 475.961 115.981 477.703 116.164C479.444 116.256 481.186 116.164 482.927 115.889C484.669 115.614 486.181 115.248 487.464 114.789C487.739 114.514 487.969 114.285 488.152 114.102C488.427 113.827 488.564 113.46 488.564 113.002C488.656 110.894 488.748 108.603 488.839 106.128C489.023 103.653 489.114 101.132 489.114 98.566C489.206 95.9995 489.298 93.5248 489.389 91.1417C489.481 88.6669 489.527 86.3296 489.527 84.1298C489.618 81.93 489.618 80.0511 489.527 78.4929C489.527 77.7596 489.389 77.2555 489.114 76.9805C488.931 76.7055 488.656 76.5222 488.289 76.4306C486.823 75.9723 485.127 75.6056 483.202 75.3307C481.369 74.964 479.765 74.7807 478.39 74.7807C477.107 74.7807 475.686 75.0099 474.128 75.4682C472.57 75.9264 471.103 76.8889 469.729 78.3554C468.445 79.7303 467.345 81.8384 466.429 84.6798C465.604 87.4295 465.146 91.0958 465.054 95.6787Z"
        fill="black"></path>
    <path
        d="M513.619 94.5788C513.619 90.2709 514.032 86.1463 514.857 82.205C515.773 78.2637 517.285 74.7349 519.394 71.6185C521.502 68.4105 524.389 65.8899 528.055 64.0567C531.813 62.2236 536.534 61.307 542.216 61.307C548.174 61.307 552.895 62.1319 556.378 63.7818C559.952 65.4316 562.61 67.6772 564.352 70.5186C566.185 73.2684 567.377 76.3389 567.926 79.7303C568.568 83.0299 568.889 86.3296 568.889 89.6293C568.889 93.3873 568.476 95.8162 567.652 96.9161C566.827 98.016 565.589 98.566 563.939 98.566H530.255C529.797 98.566 529.43 98.6576 529.155 98.8409C528.972 99.0243 528.88 99.4825 528.88 100.216C528.88 103.424 529.522 106.311 530.805 108.877C532.18 111.444 534.105 113.46 536.579 114.927C539.146 116.393 542.216 117.127 545.791 117.127C548.816 117.127 551.795 116.668 554.728 115.752C557.661 114.835 559.906 113.965 561.465 113.14C562.473 112.59 563.252 112.269 563.802 112.177C564.352 111.994 564.948 112.544 565.589 113.827L568.201 118.777C568.66 119.693 568.751 120.335 568.476 120.701C568.293 121.068 567.743 121.526 566.827 122.076C563.802 124.184 560.09 125.743 555.69 126.751C551.291 127.667 546.845 128.126 542.354 128.126C536.488 128.126 531.676 127.255 527.918 125.513C524.16 123.772 521.227 121.389 519.119 118.364C517.102 115.248 515.681 111.673 514.857 107.64C514.032 103.515 513.619 99.1617 513.619 94.5788ZM553.49 87.1546C553.49 84.4048 553.124 81.9759 552.39 79.8677C551.749 77.6679 550.557 75.9723 548.816 74.7807C547.166 73.4975 544.875 72.8559 541.941 72.8559C539.65 72.8559 537.679 73.3142 536.03 74.2308C534.471 75.0557 533.188 76.2014 532.18 77.668C531.263 79.0428 530.53 80.5552 529.98 82.205C529.43 83.8549 529.064 85.4589 528.88 87.0171C528.88 88.3003 528.926 89.1252 529.018 89.4918C529.109 89.7668 529.522 89.9043 530.255 89.9043H551.703C552.528 89.9043 553.032 89.7668 553.215 89.4918C553.49 89.2169 553.582 88.4378 553.49 87.1546Z"
        fill="black"></path>
    <path
        d="M579.31 127.163C578.118 127.163 577.523 126.659 577.523 125.651V69.1438C577.523 68.1355 577.752 67.4023 578.21 66.944C578.668 66.394 579.402 65.9357 580.41 65.5691C581.968 65.0191 583.939 64.4692 586.322 63.9193C588.705 63.2777 591.134 62.7735 593.609 62.4069C596.175 61.9486 598.421 61.7195 600.345 61.7195C605.387 61.7195 609.465 62.3611 612.582 63.6443C615.698 64.8358 618.448 66.5315 620.831 68.7313C622.389 67.2648 624.085 66.0274 625.918 65.0192C627.751 63.9193 629.676 63.0943 631.693 62.5444C633.709 61.9944 635.817 61.7195 638.017 61.7195C645.166 61.7195 650.62 63.0943 654.378 65.8441C658.227 68.5938 660.886 72.306 662.352 76.9805C663.91 81.6551 664.689 86.8796 664.689 92.654C664.689 97.3286 664.598 101.591 664.414 105.44C664.231 109.29 663.956 112.865 663.589 116.164C663.314 119.464 662.994 122.718 662.627 125.926C662.535 126.476 662.398 126.842 662.215 127.026C662.031 127.117 661.756 127.163 661.39 127.163H648.878C648.328 127.163 647.962 127.026 647.778 126.751C647.687 126.476 647.687 125.88 647.778 124.963C647.962 122.58 648.145 119.601 648.328 116.027C648.512 112.452 648.649 108.603 648.741 104.478C648.924 100.262 649.016 96.137 649.016 92.1041C649.016 90.3626 648.833 88.4378 648.466 86.3296C648.191 84.2215 647.595 82.205 646.679 80.2802C645.854 78.3554 644.662 76.7972 643.104 75.6056C641.546 74.3224 639.483 73.6808 636.917 73.6808C633.984 73.6808 631.83 74.2766 630.455 75.4682C629.08 76.6597 628.393 78.3554 628.393 80.5552C628.393 84.7714 628.393 88.8044 628.393 92.654C628.393 96.5037 628.393 100.216 628.393 103.79C628.393 107.365 628.393 110.94 628.393 114.514C628.393 117.997 628.393 121.618 628.393 125.376C628.393 126.567 627.843 127.163 626.743 127.163H614.369C613.636 127.163 613.269 126.751 613.269 125.926V92.3791C613.269 88.7127 612.857 85.5047 612.032 82.755C611.299 79.9136 610.015 77.7138 608.182 76.1556C606.349 74.5058 603.783 73.6808 600.483 73.6808C599.383 73.6808 598.283 73.7725 597.183 73.9558C596.175 74.1391 595.258 74.4141 594.434 74.7807C593.242 75.239 592.646 76.1098 592.646 77.393V125.238C592.646 126.522 592.096 127.163 590.996 127.163H579.31Z"
        fill="black"></path>
    <path
        d="M686.208 114.102C684.283 110.802 682.496 107.136 680.846 103.103C679.196 98.9784 677.684 94.7163 676.309 90.3168C674.934 85.8255 673.743 81.4259 672.734 77.118C671.818 72.7184 670.993 68.548 670.26 64.6067C669.985 63.0485 670.489 62.2694 671.772 62.2694H683.596C684.421 62.2694 685.017 62.4986 685.383 62.9569C685.842 63.3235 686.117 64.1484 686.208 65.4316C686.392 66.9898 686.712 69.0521 687.171 71.6185C687.629 74.0933 688.225 76.7514 688.958 79.5928C689.691 82.4342 690.424 85.3672 691.158 88.3919C691.983 91.325 692.808 94.0747 693.633 96.6412C694.549 99.2076 695.42 101.407 696.245 103.241C696.611 103.882 696.978 104.203 697.345 104.203C697.711 104.203 697.94 103.928 698.032 103.378C698.949 100.903 699.911 98.1077 700.919 94.9913C701.928 91.7833 702.936 88.4378 703.944 84.9548C704.952 81.3801 705.823 77.8513 706.556 74.3683C707.381 70.8853 708.023 67.5856 708.481 64.4692C708.573 63.6443 708.756 63.0943 709.031 62.8194C709.398 62.4527 709.993 62.2694 710.818 62.2694H721.13C721.863 62.2694 722.413 62.4069 722.78 62.6819C723.238 62.9569 723.376 63.6901 723.192 64.8817C722.642 68.3647 721.955 71.756 721.13 75.0557C720.397 78.2637 719.526 81.5634 718.518 84.9548C717.509 88.3461 716.364 92.0583 715.08 96.0912C714.072 98.9326 712.835 102.37 711.368 106.403C709.902 110.436 708.114 114.606 706.006 118.914C703.898 123.222 701.378 127.255 698.445 131.013C695.603 134.771 692.212 137.796 688.271 140.087C684.421 142.47 680.021 143.662 675.072 143.662C672.964 143.662 671.13 143.524 669.572 143.249C668.014 142.974 666.685 142.608 665.585 142.149C663.935 141.324 663.431 140.179 664.073 138.712L667.098 132.938C667.372 132.204 667.693 131.838 668.06 131.838C668.427 131.838 668.931 131.929 669.572 132.113C671.314 132.479 673.193 132.434 675.209 131.975C677.226 131.517 679.059 130.738 680.709 129.638C682.45 128.63 683.779 127.622 684.696 126.613C685.704 125.513 686.529 124.322 687.171 123.039C687.721 121.664 687.858 120.197 687.583 118.639C687.4 117.081 686.941 115.569 686.208 114.102Z"
        fill="black"></path>
    <defs>
        <radialGradient id="paint0_radial_602_1145" cx="0" cy="0" r="1" gradientUnits="userSpaceOnUse"
            gradientTransform="translate(155.067 159.424) rotate(-131.536) scale(181.947 276.293)">
            <stop offset="0.0001" stop-color="black"></stop>
            <stop offset="1" stop-color="black"></stop>
        </radialGradient>
    </defs>
</svg>

