<svg width="36" height="36" viewBox="0 0 36 36" fill="none" xmlns="http://www.w3.org/2000/svg">
  <path
    d="M30.0624 26.4073C33.9945 22.1815 36.3988 18.4197 35.5812 17.6024C34.8421 16.8637 31.6904 18.7596 27.9661 22.0379C32.6021 16.9763 35.4292 12.6358 34.5268 11.7348C33.6337 10.8422 29.3698 13.6029 24.372 18.1531C29.3791 12.5676 32.2507 7.58758 30.9927 6.3312C29.7347 5.0738 24.7535 7.94403 19.1654 12.9499C23.7177 7.95333 26.4797 3.69137 25.5866 2.79869C24.6852 1.8967 20.3428 4.72354 15.2778 9.35642C18.5576 5.63379 20.4555 2.48356 19.7164 1.74482C18.8998 0.928593 15.1352 3.33079 10.9074 7.26109C11.9659 5.83217 12.4362 4.59026 11.9887 4.14392C11.3612 3.51676 9.16778 4.69358 7.08907 6.77135C5.01036 8.84911 3.83301 11.0416 4.46045 11.6687C4.90803 12.1151 6.1505 11.646 7.58006 10.588C3.64798 14.8138 1.2447 18.5757 2.0613 19.3929C2.80037 20.1317 5.95203 18.2357 9.67635 14.9574C5.04034 20.0191 2.21325 24.3595 3.11564 25.2605C4.00873 26.1532 8.27262 23.3925 13.2704 18.8412C8.26332 24.4267 5.39178 29.4067 6.64976 30.6641C7.90774 31.9215 12.889 29.0513 18.477 24.0454C13.9247 29.042 11.1628 33.304 12.0559 34.1966C12.9572 35.0976 17.2997 32.2718 22.3636 27.6389C19.0838 31.3615 17.187 34.5118 17.9261 35.2505C18.7427 36.0667 22.5073 33.6645 26.735 29.7342C25.6755 31.1632 25.2062 32.4051 25.6528 32.8514C26.2802 33.4786 28.4736 32.3018 30.5523 30.224C32.6311 28.1462 33.8084 25.9538 33.181 25.3266C32.7344 24.8792 31.492 25.3493 30.0624 26.4073Z"
    fill="black"></path>
</svg>