<svg width="220" height="50" viewBox="100 0 200 90" fill="none" xmlns="http://www.w3.org/2000/svg">
 <svg width="150" height="60" viewBox="0 0 1 55" fill="none" preserveAspectRatio="xMinYMid meet">
  <path fill="#0A0A0A"
    d="m35.8242 33.3608 10.43-10.36c.3946-.3924.7059-.8603.9155-1.3757.2097-.5155.3132-1.0679.3045-1.6243v-8.4c-.0109-.4219-.1785-.8247-.47-1.13l-20 20c-.387.3856-.6941.8438-.9036 1.3483-.2095.5045-.3174 1.0454-.3174 1.5917 0 .5463.1079 1.0872.3174 1.5918.2095.5045.5166.9627.9036 1.3482l14.12 14.02c.3861.3861.8445.6924 1.3489.9013.5045.209 1.0451.3165 1.5911.3165s1.0867-.1075 1.5911-.3165c.5045-.2089.9628-.5152 1.3489-.9013s.6924-.8444.9013-1.3489c.209-.5044.3165-1.0451.3165-1.5911s-.1075-1.0866-.3165-1.5911c-.2089-.5044-.5152-.9628-.9013-1.3489l-11.18-11.13Z">
  </path>
  <path fill="#0A0A0A"
    d="M45.8542 10.0008h-31.42c-.5943-.01149-1.1847.0989-1.7346.3244-.55.2256-1.0479.5614-1.463.9868-.4151.4255-.7386.9315-.9506 1.4868-.212.5553-.30789 1.1482-.2818 1.742v32.8c-.00672.5574.0981 1.1104.3083 1.6267.2102.5162.5215.9852.9157 1.3793.3941.3942.8631.7055 1.3793.9157.5163.2102 1.0693.315 1.6267.3083.5577.0081 1.1114-.0958 1.6283-.3055.5168-.2097.9863-.521 1.3808-.9154.3944-.3944.7057-.864.9154-1.3808.2097-.5169.3136-1.0706.3055-1.6283v-29.25h20.91l7.63-7.62c-.3069-.3014-.7199-.4702-1.15-.47Z">
  </path>
  </svg>
  <path fill="#0A0A0A"
    d="M75.2241 35.9108v14h-6.49v-37.31h16.92c8.84 0 13.35 4.19 13.35 10.69 0 5.36-3.88 9.3-9.71 10.37 1.441.146 2.8331.6032 4.08 1.34 2.15 1.38 3.27 3.89 4.5 8.18l1.94 6.69h-6.9l-1.74-6.59c-1.58-6.08-3.07-7.41-9.56-7.41l-6.39.04Zm0-17.68v13h8.59c5.62 0 8.74-2.56 8.74-6.7 0-4-2.5-6.28-8.48-6.28l-8.85-.02Zm41.4599 32.2001c-9.87 0-14.93-6.29-14.93-14.67 0-8.13 5.57-15 14.72-15 9.35 0 13.75 6.7 13.75 14.36v2.25h-22.22c.51 4.86 3.42 7.77 8.58 7.77 3.73 0 5.88-1.53 7.57-4.5l5.36 2.92c-2.46 4-6.45 6.87-12.83 6.87Zm-8.59-17.08h15.84c-.25-4.24-2.5-7.36-7.51-7.36-4.75.01-7.62 2.76-8.33 7.36Zm38.79-12.4201c4.65 0 7.77 2.05 9.56 6.14v-5.78h6.34v39.71h-6.44v-17c-.838 1.9338-2.242 3.5687-4.027 4.6896-1.785 1.1209-3.867 1.6754-5.973 1.5904-6.8 0-12.32-4.85-12.32-14.51.03-9.88 6.32-14.84 12.86-14.84Zm10 14.62c0-5.47-2.51-9.45-8.18-9.45-5.31 0-8.13 3.83-8.13 9.55 0 5.72 2.68 9.35 8.15 9.35 5.67 0 8.18-4 8.18-9.45h-.02Zm38.51 14.36h-6.39v-6.74c-1.95 4.85-5.47 7.31-9.82 7.31-6.9 0-10.22-4.6-10.22-11.61v-17.58h6.39v15.85c0 4.85 1.69 8 6.49 8 4.4 0 7.11-3.78 7.11-9.76v-14.09h6.44v28.62Zm19.93.5201c-9.87 0-14.93-6.29-14.93-14.67 0-8.13 5.57-15 14.72-15 9.36 0 13.75 6.7 13.75 14.36v2.25h-22.23c.51 4.86 3.42 7.77 8.59 7.77 3.73 0 5.87-1.53 7.56-4.5l5.37 2.92c-2.46 4-6.44 6.87-12.83 6.87Zm-8.59-17.08h15.85c-.26-4.24-2.51-7.36-7.52-7.36-4.75.01-7.61 2.76-8.33 7.36Zm29.59 7.1099c1.051 1.507 2.463 2.7267 4.107 3.5477 1.644.821 3.467 1.2172 5.303 1.1523 3.93 0 5.57-1.89 5.57-3.88 0-2.92-4.5-3.12-9.61-4-5.11-.88-8.94-2.5-8.94-7.67 0-5 4.19-9 11.39-9 5.83 0 9.92 1.74 13.39 5.82l-4.9 4.2c-.939-1.4782-2.25-2.6839-3.801-3.4964-1.551-.8126-3.289-1.2035-5.039-1.1336-3.94 0-5.42 1.79-5.42 3.68 0 2.56 3.37 3 8.12 3.74 5.42.81 10.48 2.09 10.48 7.87 0 5.36-4.29 9.25-11.4 9.25-6.49 0-11.09-2.15-13.9-5.68l4.65-4.4Zm43.68 8.79c-1.645.8268-3.469 1.2323-5.31 1.18-6.24 0-8.79-3.33-8.79-9.66v-14.16h-6.55v-5.32h6.65v-7.29l6-3.57v10.86h8v5.32h-8v13.39c0 3.58 1.48 4.91 4.29 4.91 1.305.0077 2.596-.2723 3.78-.82l-.07 5.16Z">
  </path>
  <path fill="#0A0A0A"
    d="M206.476 69.63V77h-1.54V61.204h9.966v1.342h-8.426v5.742h7.15v1.342h-7.15Zm12.353-6.468h-1.694v-1.958h1.694v1.958Zm-1.584 2.354h1.452V77h-1.452V65.516ZM223.853 77h-1.452V65.516h1.452v1.848c.381-.6454.887-1.1514 1.518-1.518.63-.3667 1.334-.55 2.112-.55 1.188 0 2.112.374 2.772 1.122.674.7333 1.012 1.7453 1.012 3.036V77h-1.452v-7.216c0-.9974-.235-1.7674-.704-2.31-.455-.5427-1.115-.814-1.98-.814-.426 0-.844.088-1.254.264-.411.176-.77.418-1.078.726-.308.3226-.543.6893-.704 1.1-.162.396-.242.8286-.242 1.298V77Zm17.389-1.496c-.367.5133-.88.9313-1.54 1.254-.66.308-1.364.462-2.112.462-1.086 0-1.973-.2934-2.662-.88-.69-.6014-1.034-1.3934-1.034-2.376 0-.9974.366-1.804 1.1-2.42.748-.616 1.972-1.0927 3.674-1.43l2.486-.506v-.704c0-.7627-.22-1.3347-.66-1.716-.426-.396-1.049-.594-1.87-.594-.792 0-1.445.1906-1.958.572-.499.3666-.844.9093-1.034 1.628l-1.386-.418c.278-.9387.814-1.6867 1.606-2.244.792-.5574 1.73-.836 2.816-.836 1.246 0 2.214.308 2.904.924.689.616 1.034 1.4886 1.034 2.618v6.116c0 .3813.132.6526.396.814.264.1466.608.154 1.034.022v1.232c-.866.1173-1.533.0513-2.002-.198-.47-.264-.734-.704-.792-1.32Zm-3.498.506c.953 0 1.76-.2714 2.42-.814.66-.5574.99-1.2247.99-2.002v-2.42l-2.068.44c-1.438.2933-2.42.6453-2.948 1.056-.514.396-.77.9533-.77 1.672 0 .6306.212 1.1366.638 1.518.44.3666 1.019.55 1.738.55Zm10.064.99h-1.452V65.516h1.452v1.848c.381-.6454.887-1.1514 1.518-1.518.631-.3667 1.335-.55 2.112-.55 1.188 0 2.112.374 2.772 1.122.675.7333 1.012 1.7453 1.012 3.036V77h-1.452v-7.216c0-.9974-.235-1.7674-.704-2.31-.455-.5427-1.115-.814-1.98-.814-.425 0-.843.088-1.254.264-.411.176-.77.418-1.078.726-.308.3226-.543.6893-.704 1.1-.161.396-.242.8286-.242 1.298V77Zm15.409-10.428c-1.13 0-2.039.4326-2.728 1.298-.69.8506-1.034 1.98-1.034 3.388 0 1.4226.344 2.5593 1.034 3.41.689.8506 1.598 1.276 2.728 1.276.806 0 1.474-.2274 2.002-.682.542-.4694.909-1.122 1.1-1.958l1.32.528c-.264 1.056-.792 1.8846-1.584 2.486-.778.6013-1.724.902-2.838.902-.792 0-1.526-.1467-2.2-.44-.66-.308-1.225-.7554-1.694-1.342-.426-.528-.756-1.144-.99-1.848-.22-.7187-.33-1.496-.33-2.332 0-.836.11-1.606.33-2.31.234-.7187.564-1.342.99-1.87.469-.572 1.034-1.012 1.694-1.32.674-.308 1.408-.462 2.2-.462 1.1 0 2.038.3006 2.816.902.777.6013 1.305 1.4226 1.584 2.464l-1.298.55c-.191-.836-.558-1.4814-1.1-1.936-.528-.4694-1.196-.704-2.002-.704Zm11.45 10.648c-1.554 0-2.808-.55-3.762-1.65-.953-1.1-1.43-2.5374-1.43-4.312 0-.8214.11-1.584.33-2.288.22-.704.543-1.32.968-1.848.47-.6014 1.027-1.056 1.672-1.364.66-.308 1.379-.462 2.156-.462 1.467 0 2.618.506 3.454 1.518.836 1.012 1.254 2.3686 1.254 4.07v.484h-8.448c.015 1.3786.367 2.486 1.056 3.322.704.836 1.621 1.254 2.75 1.254.836 0 1.54-.22 2.112-.66.572-.44.946-1.0487 1.122-1.826l1.32.418c-.308 1.056-.865 1.8773-1.672 2.464-.792.5866-1.752.88-2.882.88Zm-.066-10.648c-.968 0-1.782.33-2.442.99-.66.6453-1.07 1.5326-1.232 2.662h6.908c-.029-1.1147-.33-2.002-.902-2.662-.572-.66-1.349-.99-2.332-.99Z">
  </path>
</svg>