<svg xmlns="http://www.w3.org/2000/svg" height="36" viewBox="0 0 300 36" fill="none" preserveAspectRatio="xMidYMid meet">
    <path
        d="M23.155 21.9544L22.2261 21.0298C18.219 23.3096 13.3311 22.6228 10.0352 19.3421L8.84434 18.1568C7.78169 18.1439 6.66093 18.0732 5.75879 17.6968L8.72353 20.6478C12.7508 24.6566 18.9431 25.2314 23.5959 22.3712C23.4437 22.2363 23.2989 22.0976 23.155 21.9544Z"
        fill="url(#paint0_linear_0_2824)" />
    <path
        d="M15.2469 14.0208C14.9234 13.6969 14.5112 13.4684 14.1452 13.2131C12.1001 14.3233 9.71663 14.7193 7.47188 14.3307C5.76862 14.0356 4.1116 13.3259 2.7078 12.163C4.1116 11 5.74367 10.2821 7.44693 9.98694C9.69168 9.59741 12.0381 9.96469 14.0833 11.0749C14.6536 11.383 15.2616 11.6847 15.7718 12.1112C16.0213 12.3138 16.3272 12.4711 16.561 12.7051L17.195 13.3398L18.5091 14.6554L22.4757 18.6264L23.7612 19.9133L23.7898 19.942L24.4469 20.5998C24.6594 20.8126 24.8147 21.0837 25.0384 21.2817C25.5272 21.6971 25.9385 22.0385 26.4699 22.3697C31.1304 25.2517 37.2364 24.6392 41.2713 20.5998L44.2416 17.6263C43.3368 18.0056 42.2149 18.0759 41.1502 18.0898L39.9571 19.2842C36.6551 22.5899 31.6341 23.158 27.7434 20.9847C27.1991 20.6822 26.7499 20.4009 26.1843 19.9133L27.4698 18.6264L31.4364 14.6554C31.4206 14.6712 31.2395 14.2419 31.0186 14.0208L30.2303 13.2316L26.1566 17.3108L24.9737 18.495L23.7907 17.3108L19.8473 13.363L18.402 11.9159L19.5849 10.7317L23.6595 6.6525L22.3454 5.33691L18.2467 9.44012L16.9325 10.7558C16.6331 10.5291 16.0047 10.0369 15.4788 9.71123C13.6148 8.5612 11.5373 7.99685 9.41262 7.95427C8.43207 7.93575 7.39703 7.98386 6.43771 8.2022C4.28719 8.6861 2.19859 9.71583 0.52585 11.3895L0 11.9159L0.788316 12.7051C2.46012 14.3788 4.46743 15.4909 6.61795 15.9748C7.57721 16.1931 8.53002 16.3236 9.51056 16.3051C11.6343 16.2634 13.7405 15.6713 15.6748 14.45L15.2469 14.0208Z"
        fill="url(#paint1_linear_0_2824)" />
    <path fill-rule="evenodd" clip-rule="evenodd"
        d="M21.091 2.69642C17.3476 1.05795 12.8201 1.77037 9.76364 4.8411L8.5701 6.03931C7.88541 6.27655 6.96593 6.36333 5.98456 6.45594C5.81707 6.47175 5.64778 6.48773 5.47754 6.50465L8.44896 3.51937C12.4855 -0.535933 18.7741 -1.06722 23.4374 1.82517C23.9681 2.1577 24.5607 2.5831 25.0498 3.00015C25.5389 2.5831 26.0816 2.17441 26.6132 1.84189C31.2755 -1.0505 37.5475 -0.535933 41.584 3.51937L44.5555 6.50559C44.3795 6.48795 44.2045 6.47136 44.0315 6.45497C43.0567 6.36258 42.1445 6.27611 41.4629 6.04024L40.2694 4.8411C36.967 1.52237 31.944 0.951139 28.0517 3.1339C27.5681 3.40367 26.9516 3.86542 26.6081 4.1228C26.5648 4.1552 26.5259 4.18436 26.4921 4.20949L27.7781 5.50151L31.7471 9.48805L33.0618 10.8089C33.1085 10.7734 33.1636 10.731 33.2253 10.6836C33.5596 10.4267 34.0886 10.0202 34.5327 9.7435C36.3975 8.58895 38.46 8.03816 40.5847 7.99635C41.5655 7.97776 42.5844 8.04279 43.544 8.26198C45.6945 8.74872 47.8015 9.76578 49.474 11.446L50 11.9745L49.2114 12.7668C47.5389 14.4471 45.5725 15.5886 43.4211 16.0745C42.4614 16.2936 41.5489 16.4497 40.568 16.4311C38.4434 16.3893 36.3484 15.7726 34.4837 14.618C33.9578 14.2902 33.48 13.8827 32.9966 13.4704L32.9961 13.47C32.8647 13.3561 32.7567 13.219 32.6483 13.0813C32.5631 12.9731 32.4776 12.8646 32.3804 12.7668L31.723 12.1065L30.4084 10.7856L26.4634 6.82232L25.9151 6.27149C24.0347 4.38318 23.0741 3.6977 21.091 2.69642ZM47.3069 12.2383C45.9025 11.0708 44.2615 10.3417 42.5576 10.0454C40.311 9.65431 37.9608 10.0194 35.9148 11.134C35.3444 11.4433 34.7998 11.8101 34.2895 12.2383C34.7998 12.6665 35.3444 13.0334 35.9148 13.3427C37.9608 14.4573 40.3119 14.8224 42.5576 14.4313C44.2615 14.135 45.9025 13.4059 47.3069 12.2383Z"
        fill="url(#paint2_linear_0_2824)" />
    <defs>
        <linearGradient id="paint0_linear_0_2824" x1="-31.4539" y1="10.6032" x2="-28.834" y2="38.9625"
            gradientUnits="userSpaceOnUse">
            <stop stop-color="white" />
            <stop offset="1" stop-color="white" />
        </linearGradient>
        <linearGradient id="paint1_linear_0_2824" x1="-18.7812" y1="5.81759" x2="-15.1075" y2="34.8121"
            gradientUnits="userSpaceOnUse">
            <stop stop-color="white" />
            <stop offset="1" stop-color="white" />
        </linearGradient>
        <linearGradient id="paint2_linear_0_2824" x1="-17.3821" y1="0.823704" x2="-14.6537" y2="29.5317"
            gradientUnits="userSpaceOnUse">
            <stop stop-color="white" />
            <stop offset="1" stop-color="white" />
        </linearGradient>
    </defs>
    <text x="60" y="17" font-family="Satoshi-Bold" font-size="35" fill="white" text-anchor="right"
        alignment-baseline="middle">Iagon</text>

</svg>