<svg width="90" height="auto" viewBox="0 0 174 32" fill="white" xmlns="http://www.w3.org/2000/svg">
<path d="M8.7439 9.00422H0V2.5H25.5V9.00422H16.7966V31.5H8.7439V9.00422Z"/>
<path d="M43 8.5V15.4825C42.4107 15.4054 41.8172 15.3645 41.2228 15.36C38.0411 15.36 35.8508 16.9524 35.8508 20.832V31H28V8.86762H35.4794V11.5217C37.0909 9.52098 39.6937 8.5 43 8.5Z"/>
<path d="M69 9V31.1289H61.5642V28.7609C59.8513 30.5666 57.4455 31.5617 54.9493 31.497C49.4856 31.497 45.5 28.3939 45.5 21.3712V9H53.3063V20.1054C53.3063 23.5348 54.6618 24.882 57.0038 24.882C59.3042 24.882 61.1944 23.3723 61.1944 19.6559V9H69Z"/>
<path d="M72.5 29.1961L74.8559 23.8593C77.2361 25.2076 79.9297 25.9149 82.6699 25.9111C85.3157 25.9111 86.1835 25.3366 86.1835 24.393C86.1835 21.3953 72.9545 24.8029 72.9545 15.8938C72.9545 11.7062 76.8403 8.50411 83.8688 8.50411C86.9251 8.44184 89.9539 9.0884 92.7145 10.3924L90.3592 15.6883C88.3871 14.5999 86.166 14.0344 83.9099 14.0464C81.2641 14.0464 80.3134 14.7856 80.3134 15.6066C80.3134 18.6854 93.5 15.3601 93.5 24.1875C93.5 28.2922 89.6971 31.4955 82.4218 31.4955C78.9726 31.5677 75.5607 30.777 72.5 29.1961Z" />
<path d="M112.5 30.2009C110.813 31.1187 108.908 31.5649 106.988 31.4924C101.182 31.4924 97.799 28.6594 97.799 22.8691V15.2879H94.5V9.3732H97.799V3.5H105.735V9.37324H110.913V15.2879H105.735V22.7862C105.648 23.4572 105.864 24.1318 106.323 24.6298C106.782 25.1278 107.438 25.3984 108.115 25.3692C108.975 25.3774 109.818 25.1308 110.538 24.6606L112.5 30.2009Z" />
<path d="M138.5 0.5V31.104H131.046V28.8773C129.38 30.7084 126.963 31.6673 124.497 31.476C118.402 31.476 113.5 27.0213 113.5 19.886C113.5 12.7911 118.402 8.37809 124.497 8.37809C126.789 8.24054 129.033 9.07932 130.674 10.6875V0.5H138.5ZM130.798 19.8859C130.798 16.503 128.78 14.606 126.144 14.606C123.467 14.606 121.449 16.503 121.449 19.8859C121.449 23.3093 123.467 25.2474 126.144 25.2474C128.78 25.2474 130.798 23.3093 130.798 19.8859Z" />
<path d="M173.192 6.6174L173.006 5.75012L160.261 0L147.515 5.75012L147.331 6.61618C147.296 6.77293 144.07 22.4413 158.511 31.0244C158.777 31.1842 159.052 31.3403 159.343 31.5013L160.262 32L161.085 31.5534C176.466 23.1687 173.228 6.78506 173.192 6.6174ZM167.602 12.3329L158.232 21.8084C157.941 22.101 157.549 22.2658 157.139 22.2669H157.137C156.727 22.2658 156.334 22.101 156.044 21.8084L152.921 18.65C152.317 18.0391 152.317 17.0486 152.921 16.4376C153.525 15.8267 154.504 15.8267 155.109 16.4376L157.138 18.49L165.413 10.1216C165.703 9.82889 166.095 9.66486 166.504 9.66583L166.51 9.66612C167.134 9.66828 167.695 10.0491 167.934 10.6318C168.172 11.2146 168.042 11.8853 167.602 12.3329L167.602 12.3329Z" />
</svg>