<?xml version="1.0" standalone="no"?>
<!DOCTYPE svg PUBLIC "-//W3C//DTD SVG 20010904//EN"
 "http://www.w3.org/TR/2001/REC-SVG-20010904/DTD/svg10.dtd">
<svg version="1.0" xmlns="http://www.w3.org/2000/svg"
 width="400" height="400" viewBox="0 0 1350 1350"
 preserveAspectRatio="xMidYMid meet">
<metadata>
Created by potrace 1.10, written by Peter Selinger 2001-2011
</metadata>
<g transform="translate(0.000000,1350) scale(0.100000,-0.100000)"
fill="white" stroke="none">
<path d="M830 8610 c0 -10 6 -34 14 -52 13 -32 30 -74 60 -155 8 -21 21 -57
30 -80 9 -24 22 -60 30 -80 22 -60 47 -125 61 -158 12 -28 20 -47 59 -152 8
-21 23 -60 34 -88 l21 -50 1017 -3 c602 -1 1022 -6 1027 -11 9 -9 6 -36 -28
-221 -29 -158 -33 -185 -28 -190 6 -7 2003 -12 2031 -5 19 5 172 198 322 410
16 22 92 125 169 229 77 104 138 193 135 197 -3 5 -567 9 -1254 9 -687 0
-1251 3 -1253 8 -5 7 -1 32 28 192 28 157 35 197 35 208 0 9 -292 12 -1255 12
-1241 0 -1255 0 -1255 -20z"/>
<path d="M7422 8367 c-27 -29 -28 -74 -3 -104 15 -18 30 -23 69 -23 42 0 52 4
66 25 39 60 3 125 -70 125 -29 0 -47 -6 -62 -23z"/>
<path d="M7725 8348 c-3 -7 -4 -189 -3 -403 l3 -390 65 0 65 0 3 40 c4 45 85
165 112 165 9 0 24 -15 33 -32 9 -18 30 -55 47 -83 16 -27 34 -60 40 -72 9
-21 16 -23 85 -23 46 0 75 4 75 11 0 8 -104 193 -140 249 -6 8 -14 25 -19 37
-6 11 -15 24 -20 28 -23 13 -8 43 63 132 41 50 77 101 81 113 6 20 4 21 -72
18 l-78 -3 -91 -119 c-50 -66 -96 -122 -102 -124 -9 -3 -12 58 -14 230 l-3
233 -63 3 c-44 2 -64 -1 -67 -10z"/>
<path d="M6540 8323 c0 -4 6 -24 13 -43 13 -33 22 -55 52 -125 7 -16 41 -97
75 -180 34 -82 68 -163 75 -180 7 -16 20 -46 28 -65 8 -19 28 -66 44 -105 l29
-70 70 -3 69 -3 39 93 c21 51 44 108 52 126 8 17 20 47 27 65 8 17 21 48 29
67 9 19 37 87 63 150 54 130 72 174 92 212 7 14 13 36 13 47 0 21 -4 22 -71
19 l-70 -3 -21 -50 c-11 -27 -26 -63 -33 -80 -7 -16 -28 -66 -45 -110 -17 -44
-37 -93 -45 -110 -7 -16 -20 -50 -30 -75 -10 -25 -23 -58 -31 -75 -7 -16 -15
-38 -18 -48 -3 -10 -12 -17 -19 -15 -14 5 -25 26 -67 133 -60 150 -92 230
-105 260 -7 17 -26 62 -42 100 l-29 70 -72 3 c-40 2 -72 -1 -72 -5z"/>
<path d="M8450 8124 c-55 -31 -107 -79 -127 -118 -68 -131 -53 -272 42 -385
32 -37 85 -66 158 -86 65 -17 69 -17 135 0 37 10 86 32 109 49 45 34 108 120
98 136 -3 6 -35 10 -71 10 -59 0 -68 -3 -92 -29 -69 -76 -196 -60 -255 31 -22
34 -22 64 0 72 9 4 108 6 219 6 112 -1 208 1 214 5 14 9 12 60 -4 121 -16 60
-63 133 -103 160 -73 49 -91 54 -185 54 -81 0 -99 -4 -138 -26z m225 -114 c39
-24 69 -66 61 -86 -4 -11 -33 -14 -140 -14 -164 0 -171 2 -151 40 8 16 29 40
47 54 43 34 133 37 183 6z"/>
<path d="M9213 8124 c-24 -14 -43 -30 -43 -35 0 -23 -28 -6 -33 21 -6 29 -8
30 -61 30 -33 0 -58 -5 -65 -14 -8 -9 -11 -95 -9 -292 l3 -279 68 -3 67 -3 0
171 c0 181 5 205 54 258 68 76 183 66 226 -19 18 -34 20 -60 20 -224 l0 -185
70 0 70 0 0 188 c0 226 -15 299 -74 358 -41 41 -81 54 -168 54 -71 -1 -89 -5
-125 -26z"/>
<path d="M7420 8120 c-7 -12 -9 -115 -8 -292 l3 -273 68 -3 67 -3 0 296 0 295
-60 0 c-49 0 -61 -3 -70 -20z"/>
<path d="M1320 7362 c-14 -5 -13 -25 4 -64 8 -18 21 -52 30 -75 27 -71 45
-121 60 -160 22 -60 47 -125 61 -158 7 -16 20 -49 29 -72 72 -192 77 -206 92
-241 8 -18 14 -39 14 -47 0 -7 6 -17 13 -22 6 -4 309 -10 672 -13 l660 -5 0
-50 c-1 -49 -10 -103 -43 -260 l-18 -80 -552 -3 c-540 -2 -552 -3 -552 -22 0
-11 6 -34 14 -52 8 -18 21 -51 29 -73 31 -83 77 -205 88 -230 13 -32 50 -127
64 -165 39 -106 71 -189 93 -245 l21 -50 317 -3 c175 -1 322 -6 327 -11 5 -5
1 -45 -8 -92 -54 -279 -58 -304 -40 -319 9 -7 108 -10 325 -8 277 3 313 5 323
20 53 75 121 168 235 323 175 236 163 219 224 305 30 41 71 98 92 126 21 29
38 56 37 60 0 5 -247 11 -548 14 l-548 5 2 40 c3 37 20 140 47 280 l11 60 667
5 c607 5 668 7 684 22 11 9 57 69 104 133 215 295 442 603 469 638 56 72 117
67 -870 67 -805 0 -890 2 -896 16 -3 9 1 50 10 92 33 161 39 199 44 254 l5 58
-891 2 c-490 2 -896 2 -901 0z"/>
<path d="M11808 7134 c-55 -29 -27 -115 37 -114 57 1 80 75 34 111 -29 22 -36
23 -71 3z"/>
<path d="M7379 7121 c-2 -6 -3 -189 -1 -407 l2 -395 48 3 47 3 0 400 0 400
-46 3 c-27 2 -49 -2 -50 -7z"/>
<path d="M9050 6726 l0 -404 34 -4 c51 -6 56 -1 56 56 0 32 6 61 17 76 38 56
96 120 108 120 12 0 42 -44 110 -158 25 -41 50 -78 60 -84 5 -4 29 -8 53 -8
35 0 42 3 42 19 0 11 -5 23 -11 26 -5 4 -15 17 -20 28 -5 12 -17 34 -27 48 -9
15 -35 55 -56 90 -22 35 -45 71 -52 79 -7 8 -15 27 -19 41 -6 23 6 41 74 127
45 55 81 105 81 110 0 5 -6 12 -13 15 -11 4 -23 4 -74 -2 -15 -1 -70 -60 -121
-128 -66 -88 -134 -163 -143 -157 -5 3 -9 120 -9 260 l0 254 -45 0 -45 0 0
-404z"/>
<path d="M10305 7118 c-3 -7 -4 -189 -3 -403 l3 -390 45 0 45 0 5 185 c5 202
11 224 69 273 67 56 157 60 219 10 20 -16 40 -43 46 -59 5 -16 12 -114 15
-219 l6 -190 48 -3 47 -3 0 200 c0 179 -2 206 -21 253 -39 100 -108 147 -217
148 -69 0 -151 -33 -174 -70 -30 -47 -37 -23 -40 128 l-3 147 -43 3 c-28 2
-44 -1 -47 -10z"/>
<path d="M6637 7093 c-4 -3 -7 -179 -7 -390 l0 -383 223 0 c201 0 226 2 261
20 55 27 94 76 112 138 13 44 14 61 3 102 -13 50 -56 108 -96 129 -29 15 -29
21 -1 51 78 83 76 205 -5 280 -57 55 -82 60 -290 60 -106 0 -197 -3 -200 -7z
m394 -104 c44 -31 63 -84 49 -134 -23 -80 -71 -99 -240 -93 l-95 3 -3 123 -3
122 132 0 c117 0 134 -2 160 -21z m25 -325 c69 -33 94 -124 53 -190 -37 -61
-48 -64 -216 -64 l-153 0 0 135 0 135 141 0 c109 0 149 -4 175 -16z"/>
<path d="M7799 6892 c-217 -106 -239 -419 -39 -547 45 -28 161 -58 197 -49
149 34 230 105 267 233 21 72 20 94 -6 177 -18 58 -31 78 -77 124 -68 66 -128
90 -221 90 -50 -1 -78 -7 -121 -28z m206 -81 c106 -48 149 -154 116 -279 -24
-85 -129 -153 -217 -139 -88 15 -160 81 -175 163 -21 112 18 200 110 247 63
31 110 34 166 8z"/>
<path d="M8520 6902 c-57 -22 -150 -114 -169 -167 -7 -22 -16 -73 -18 -113 -6
-101 16 -160 87 -232 85 -87 194 -114 307 -76 59 20 130 78 157 129 25 45 16
67 -26 67 -26 0 -43 -10 -79 -48 -88 -91 -203 -95 -288 -10 -81 80 -84 222 -7
307 88 96 206 93 302 -9 31 -33 45 -40 76 -40 33 0 38 3 38 23 0 30 -46 94
-91 128 -79 59 -196 76 -289 41z"/>
<path d="M9752 6889 c-64 -32 -109 -79 -146 -152 -28 -54 -28 -208 0 -257 63
-114 123 -157 255 -184 40 -8 138 21 190 56 51 34 114 121 105 144 -3 9 -20
14 -44 14 -35 0 -44 -6 -76 -44 -56 -69 -144 -92 -222 -60 -140 57 -178 242
-74 357 31 35 101 67 145 67 50 0 120 -36 155 -80 27 -35 37 -40 71 -40 51 0
57 17 26 67 -85 134 -245 181 -385 112z"/>
<path d="M11171 6901 c-55 -22 -119 -82 -151 -142 -21 -39 -24 -57 -25 -149 0
-91 4 -111 23 -148 36 -68 101 -127 163 -147 101 -34 188 -17 269 53 26 23 50
38 54 35 3 -4 6 -24 6 -45 0 -21 5 -38 10 -39 6 -1 21 -1 35 -1 14 0 30 0 35
1 16 2 13 566 -2 579 -11 8 -34 9 -70 3 -5 0 -8 -19 -8 -40 0 -22 -4 -42 -9
-45 -5 -3 -25 10 -45 29 -77 72 -190 95 -285 56z m204 -95 c173 -80 164 -338
-14 -401 -77 -27 -146 -13 -202 39 -55 51 -69 85 -69 169 0 65 3 78 28 113 37
50 55 65 106 86 56 23 92 22 151 -6z"/>
<path d="M12300 6902 c-20 -9 -54 -32 -77 -49 -33 -26 -42 -30 -47 -18 -3 8
-3 21 0 29 9 23 -24 47 -54 40 -15 -4 -30 -10 -35 -13 -4 -4 -6 -133 -5 -287
l3 -279 45 0 45 0 6 175 c4 96 10 187 14 202 4 15 22 42 40 61 66 68 146 85
217 45 67 -38 72 -57 78 -283 l5 -200 44 -3 c28 -2 47 1 52 10 13 20 10 282
-4 373 -16 103 -49 155 -117 190 -59 30 -154 33 -210 7z"/>
<path d="M11812 6900 l-22 -9 2 -283 3 -283 48 -3 c33 -2 47 1 47 10 4 174 -1
553 -7 558 -15 14 -48 19 -71 10z"/>
<path d="M8035 5898 c-3 -13 -4 -196 -3 -408 l3 -385 28 -3 27 -3 -2 408 -3
408 -22 3 c-16 2 -24 -3 -28 -20z"/>
<path d="M9457 5902 c-24 -26 -21 -49 8 -68 23 -15 27 -15 50 0 27 18 31 36
15 67 -13 24 -52 25 -73 1z"/>
<path d="M6723 5882 c-121 -49 -173 -194 -104 -289 16 -23 44 -48 63 -58 50
-25 149 -55 184 -55 58 0 161 -39 199 -74 32 -31 35 -38 35 -91 0 -71 -29
-115 -95 -145 -61 -28 -200 -28 -253 -1 -51 26 -99 76 -106 111 -9 49 -76 65
-76 19 0 -37 43 -110 84 -142 71 -57 106 -67 220 -67 87 0 112 4 157 24 105
46 146 116 136 228 -6 64 -26 97 -83 136 -42 28 -153 62 -205 62 -40 0 -134
30 -171 54 -50 32 -63 116 -29 172 31 51 88 74 182 74 112 0 188 -43 208 -116
5 -20 15 -30 31 -32 30 -5 39 12 30 54 -12 52 -53 98 -113 128 -48 23 -66 26
-153 25 -69 0 -112 -5 -141 -17z"/>
<path d="M9055 5858 c-3 -7 -6 -47 -7 -88 l-3 -75 -70 -5 c-67 -5 -70 -6 -70
-30 0 -24 4 -25 60 -28 32 -2 65 -8 72 -14 10 -8 13 -59 13 -208 l0 -197 30
-41 c39 -54 86 -74 170 -70 62 3 65 4 65 28 0 24 -3 25 -60 28 -72 3 -99 15
-126 58 -18 30 -19 47 -17 221 l3 188 100 5 c99 5 100 5 100 30 0 25 -1 25
-100 30 l-100 5 -3 80 c-2 48 -8 82 -15 87 -18 12 -37 10 -42 -4z"/>
<path d="M7485 5691 c-73 -21 -139 -76 -185 -156 -19 -34 -23 -55 -24 -135 -1
-113 19 -164 89 -231 63 -60 112 -79 206 -79 99 0 155 25 222 100 132 147 88
390 -88 481 -44 23 -168 34 -220 20z m210 -90 c22 -15 53 -47 70 -71 28 -42
30 -51 30 -135 0 -97 -8 -118 -64 -178 -83 -89 -242 -87 -327 5 -55 60 -67 95
-63 184 4 72 7 84 39 129 57 79 124 108 225 97 30 -3 66 -15 90 -31z"/>
<path d="M9906 5693 c-53 -9 -132 -68 -171 -128 -28 -42 -54 -123 -54 -170 -2
-80 49 -188 111 -237 67 -53 110 -68 192 -68 90 0 151 24 211 85 63 62 86 123
86 220 0 120 -39 195 -136 259 -48 33 -63 37 -132 40 -43 3 -91 2 -107 -1z
m190 -84 c172 -104 163 -348 -17 -439 -93 -48 -223 -10 -284 83 -76 115 -51
258 61 344 60 45 175 51 240 12z"/>
<path d="M10657 5690 c-30 -9 -95 -54 -114 -80 -16 -21 -31 -4 -35 40 -3 30
-7 35 -28 35 l-25 0 0 -290 c0 -278 1 -290 19 -293 40 -8 46 21 46 211 0 168
1 182 22 216 42 67 80 95 149 105 59 9 124 -6 156 -36 54 -50 58 -68 63 -288
l5 -205 27 -3 c38 -5 41 15 36 241 -4 175 -7 196 -27 236 -45 87 -85 112 -188
117 -43 2 -91 -1 -106 -6z"/>
<path d="M11281 5693 c-38 -8 -91 -53 -107 -91 -29 -70 -12 -141 45 -181 29
-21 164 -61 204 -61 31 0 84 -38 97 -70 16 -39 -2 -93 -42 -121 -24 -18 -45
-22 -108 -22 -67 -1 -84 3 -114 24 -19 13 -43 41 -52 61 -14 31 -22 38 -46 38
-32 0 -35 -12 -14 -61 16 -37 54 -75 103 -102 48 -26 199 -24 253 4 132 69
128 229 -7 289 -25 11 -54 20 -65 20 -42 0 -151 36 -174 57 -31 28 -33 89 -4
125 30 39 99 53 165 33 53 -15 95 -51 95 -81 0 -9 11 -14 30 -14 26 0 30 4 30
26 0 34 -31 77 -75 104 -27 16 -55 23 -113 25 -42 2 -88 1 -101 -2z"/>
<path d="M8294 5664 c-4 -14 -5 -110 -2 -213 5 -203 13 -233 74 -295 50 -50
95 -66 182 -66 132 0 203 47 245 161 15 38 17 77 15 240 l-3 194 -25 0 -25 0
-6 -190 c-6 -196 -15 -240 -57 -289 -48 -53 -160 -73 -225 -40 -91 47 -101 74
-107 319 l-5 200 -27 3 c-22 3 -29 -2 -34 -24z"/>
<path d="M9467 5684 c-9 -9 -10 -546 -1 -568 10 -25 53 -20 59 7 3 12 4 144 3
292 l-3 270 -25 3 c-14 2 -29 0 -33 -4z"/>
</g>
</svg>
