<?xml version="1.0" standalone="no"?>
<!DOCTYPE svg PUBLIC "-//W3C//DTD SVG 20010904//EN"
 "http://www.w3.org/TR/2001/REC-SVG-20010904/DTD/svg10.dtd">
<svg version="1.0" xmlns="http://www.w3.org/2000/svg"
 width="400" height="400" viewBox="0 0 1400 1400"
 preserveAspectRatio="xMidYMid meet">
<metadata>
Created by potrace 1.10, written by Peter Selinger 2001-2011
</metadata>
<g transform="translate(0.000000,1350.000000) scale(0.100000,-0.100000)"
fill="white" stroke="none">
<path d="M0 6750 l0 -6750 6750 0 6750 0 0 6750 0 6750 -6750 0 -6750 0 0
-6750z m3340 1868 c0 -11 -7 -51 -35 -208 -29 -160 -33 -185 -28 -192 2 -5
566 -8 1253 -8 687 0 1251 -4 1254 -9 3 -4 -58 -93 -135 -197 -77 -104 -153
-207 -169 -229 -150 -212 -303 -405 -322 -410 -28 -7 -2025 -2 -2031 5 -5 5
-1 32 28 190 34 185 37 212 28 221 -5 5 -425 10 -1027 11 l-1017 3 -21 50
c-11 28 -26 67 -34 88 -39 105 -47 124 -59 152 -14 33 -39 98 -61 158 -8 20
-21 56 -30 80 -9 23 -22 59 -30 80 -30 81 -47 123 -60 155 -8 18 -14 42 -14
52 0 20 14 20 1255 20 963 0 1255 -3 1255 -12z m4207 -250 c27 -25 30 -68 7
-103 -14 -21 -24 -25 -66 -25 -58 0 -87 25 -88 74 0 69 94 103 147 54z m311
-246 c2 -172 5 -233 14 -230 6 2 52 58 102 124 l91 119 78 3 c76 3 78 2 72
-18 -4 -12 -40 -63 -81 -113 -71 -89 -86 -119 -63 -132 5 -4 14 -17 20 -28 5
-12 13 -29 19 -37 36 -56 140 -241 140 -249 0 -7 -29 -11 -75 -11 -69 0 -76 2
-85 23 -6 12 -24 45 -40 72 -17 28 -38 65 -47 83 -9 17 -24 32 -33 32 -27 0
-108 -120 -112 -165 l-3 -40 -65 0 -65 0 -3 390 c-1 214 0 396 3 403 3 9 23
12 67 10 l63 -3 3 -233z m-1145 133 c16 -38 35 -83 42 -100 13 -30 45 -110
105 -260 42 -107 53 -128 67 -133 7 -2 16 5 19 15 3 10 11 32 18 48 8 17 21
50 31 75 10 25 23 59 30 75 8 17 28 66 45 110 17 44 38 94 45 110 7 17 22 53
33 80 l21 50 70 3 c67 3 71 2 71 -19 0 -11 -6 -33 -13 -47 -20 -38 -38 -82
-92 -212 -26 -63 -54 -131 -63 -150 -8 -19 -21 -50 -29 -67 -7 -18 -19 -48
-27 -65 -8 -18 -31 -75 -52 -126 l-39 -93 -69 3 -70 3 -29 70 c-16 39 -36 86
-44 105 -8 19 -21 49 -28 65 -7 17 -41 98 -75 180 -34 83 -68 164 -75 180 -30
70 -39 92 -52 125 -7 19 -13 39 -13 43 0 4 32 7 72 5 l72 -3 29 -70z m2000
-123 c64 -35 89 -56 119 -100 46 -67 75 -200 48 -217 -6 -4 -102 -6 -214 -5
-111 0 -210 -2 -219 -6 -22 -8 -22 -38 0 -72 25 -38 52 -58 96 -73 52 -17 122
1 159 42 24 26 33 29 92 29 36 0 68 -4 71 -10 10 -16 -53 -102 -98 -136 -23
-17 -72 -39 -109 -49 -66 -17 -70 -17 -135 0 -73 20 -126 49 -158 86 -95 113
-110 254 -42 385 20 39 72 87 127 118 39 22 57 26 138 26 69 0 100 -4 125 -18z
m740 2 c102 -53 127 -128 127 -396 l0 -188 -70 0 -70 0 0 185 c0 164 -2 190
-20 224 -43 85 -158 95 -226 19 -49 -53 -54 -77 -54 -258 l0 -171 -67 3 -68 3
-3 279 c-2 197 1 283 9 292 7 9 32 14 65 14 53 0 55 -1 61 -30 5 -27 33 -44
33 -21 0 5 19 21 43 35 36 21 54 25 125 26 58 0 93 -5 115 -16z m-1903 -289
l0 -296 -67 3 -68 3 -3 273 c-1 177 1 280 8 292 9 17 21 20 70 20 l60 0 0
-295z m-4443 -543 c-5 -55 -11 -93 -44 -254 -9 -42 -13 -83 -10 -92 6 -14 91
-16 896 -16 987 0 926 5 870 -67 -27 -35 -254 -343 -469 -638 -47 -64 -93
-124 -104 -133 -16 -15 -77 -17 -684 -22 l-667 -5 -11 -60 c-27 -140 -44 -243
-47 -280 l-2 -40 548 -5 c301 -3 548 -9 548 -14 1 -4 -16 -31 -37 -60 -21 -28
-62 -85 -92 -126 -61 -86 -49 -69 -224 -305 -114 -155 -182 -248 -235 -323
-10 -15 -46 -17 -323 -20 -217 -2 -316 1 -325 8 -18 15 -14 40 40 319 9 47 13
87 8 92 -5 5 -152 10 -327 11 l-317 3 -21 50 c-22 56 -54 139 -93 245 -14 38
-51 133 -64 165 -11 25 -57 147 -88 230 -8 22 -21 55 -29 73 -8 18 -14 41 -14
52 0 19 12 20 552 22 l552 3 18 80 c33 157 42 211 43 260 l0 50 -660 5 c-363
3 -666 9 -672 13 -7 5 -13 15 -13 22 0 8 -6 29 -14 47 -15 35 -20 49 -92 241
-9 23 -22 56 -29 72 -14 33 -39 98 -61 158 -15 39 -33 89 -60 160 -9 23 -22
57 -30 75 -17 39 -18 59 -4 64 5 2 411 2 901 0 l891 -2 -5 -58z m8772 -171
c46 -36 23 -110 -34 -111 -64 -1 -92 85 -37 114 35 20 42 19 71 -3z m-4404
-406 l0 -400 -47 -3 -48 -3 -2 395 c-2 218 -1 401 1 407 1 5 23 9 50 7 l46 -3
0 -400z m1665 151 c0 -140 4 -257 9 -260 9 -6 77 69 143 157 51 68 106 127
121 128 51 6 63 6 74 2 7 -3 13 -10 13 -15 0 -5 -36 -55 -81 -110 -68 -86 -80
-104 -74 -127 4 -14 12 -33 19 -41 7 -8 30 -44 52 -79 21 -35 47 -75 56 -90
10 -14 22 -36 27 -48 5 -11 15 -24 20 -28 6 -3 11 -15 11 -26 0 -16 -7 -19
-42 -19 -24 0 -48 4 -53 8 -10 6 -35 43 -60 84 -68 114 -98 158 -110 158 -12
0 -70 -64 -108 -120 -11 -15 -17 -44 -17 -76 0 -57 -5 -62 -56 -56 l-34 4 0
404 0 404 45 0 45 0 0 -254z m1258 102 c3 -151 10 -175 40 -128 23 37 105 70
174 70 109 -1 178 -48 217 -148 19 -47 21 -74 21 -253 l0 -200 -47 3 -48 3 -6
190 c-3 105 -10 203 -15 219 -6 16 -26 43 -46 59 -62 50 -152 46 -219 -10 -58
-49 -64 -71 -69 -273 l-5 -185 -45 0 -45 0 -3 390 c-1 214 0 396 3 403 3 9 19
12 47 10 l43 -3 3 -147z m-3330 103 c132 -68 162 -216 64 -321 -28 -30 -28
-36 1 -51 40 -21 83 -79 96 -129 24 -92 -26 -195 -115 -240 -35 -18 -60 -20
-261 -20 l-223 0 0 383 c0 211 3 387 7 390 3 4 94 7 200 7 171 0 198 -2 231
-19z m967 -178 c32 -12 69 -37 106 -73 46 -46 59 -66 77 -124 26 -83 27 -105
6 -177 -37 -128 -118 -199 -267 -233 -36 -9 -152 21 -197 49 -67 43 -113 114
-131 203 -39 190 102 370 291 372 38 0 86 -7 115 -17z m697 0 c83 -32 168
-118 168 -170 0 -20 -5 -23 -38 -23 -31 0 -45 7 -76 40 -73 78 -151 98 -231
61 -137 -64 -171 -253 -64 -359 85 -85 200 -81 288 10 36 38 53 48 79 48 42 0
51 -22 26 -67 -27 -51 -98 -109 -157 -129 -113 -38 -222 -11 -307 76 -71 72
-93 131 -87 232 2 40 11 91 18 113 19 53 112 145 169 167 59 22 158 23 212 1z
m1262 -4 c57 -25 110 -70 143 -122 31 -50 25 -67 -26 -67 -34 0 -44 5 -71 40
-35 44 -105 80 -155 80 -44 0 -114 -32 -145 -67 -104 -115 -66 -300 74 -357
78 -32 166 -9 222 60 32 38 41 44 76 44 24 0 41 -5 44 -14 9 -23 -54 -110
-105 -144 -52 -35 -150 -64 -190 -56 -132 27 -192 70 -255 184 -28 49 -28 203
0 257 59 118 157 183 275 183 46 0 81 -7 113 -21z m1379 1 c26 -11 63 -36 83
-55 20 -19 40 -32 45 -29 5 3 9 23 9 45 0 21 3 40 8 40 36 6 59 5 70 -3 15
-13 18 -577 2 -579 -5 -1 -21 -1 -35 -1 -14 0 -29 0 -35 1 -5 1 -10 18 -10 39
0 21 -3 41 -6 45 -4 3 -28 -12 -54 -35 -81 -70 -168 -87 -269 -53 -62 20 -127
79 -163 147 -19 37 -23 57 -23 148 1 121 17 163 90 233 78 75 195 98 288 57z
m1137 -5 c68 -35 101 -87 117 -190 14 -91 17 -353 4 -373 -5 -9 -24 -12 -52
-10 l-44 3 -5 200 c-6 226 -11 245 -78 283 -71 40 -151 23 -217 -45 -18 -19
-36 -46 -40 -61 -4 -15 -10 -106 -14 -202 l-6 -175 -45 0 -45 0 -3 279 c-1
154 1 283 5 287 5 3 20 9 35 13 30 7 63 -17 54 -40 -3 -8 -3 -21 0 -29 5 -12
14 -8 47 18 62 49 105 65 175 66 48 1 74 -5 112 -24z m-627 -5 c6 -5 11 -384
7 -558 0 -9 -14 -12 -47 -10 l-48 3 -3 283 -2 283 22 9 c23 9 56 4 71 -10z
m-3795 -1383 l2 -408 -27 3 -28 3 -3 385 c-1 212 0 395 3 408 4 17 12 22 28
20 l22 -3 3 -408z m1442 394 c16 -31 12 -49 -15 -67 -23 -15 -27 -15 -50 0
-29 19 -32 42 -8 68 21 24 60 23 73 -1z m-2513 -27 c60 -30 101 -76 113 -128
9 -42 0 -59 -30 -54 -16 2 -26 12 -31 32 -20 73 -96 116 -208 116 -94 0 -151
-23 -182 -74 -34 -56 -21 -140 29 -172 37 -24 131 -54 171 -54 52 0 163 -34
205 -62 57 -39 77 -72 83 -136 10 -112 -31 -182 -136 -228 -45 -20 -70 -24
-157 -24 -114 0 -149 10 -220 67 -41 32 -84 105 -84 142 0 46 67 30 76 -19 7
-35 55 -85 106 -111 53 -27 192 -27 253 1 66 30 95 74 95 145 0 53 -3 60 -35
91 -38 35 -141 74 -199 74 -35 0 -134 30 -184 55 -141 72 -116 283 41 347 29
12 72 17 141 17 87 1 105 -2 153 -25z m2080 -12 c7 -5 13 -39 15 -87 l3 -80
100 -5 c99 -5 100 -5 100 -30 0 -25 -1 -25 -100 -30 l-100 -5 -3 -188 c-2
-174 -1 -191 17 -221 27 -43 54 -55 126 -58 57 -3 60 -4 60 -28 0 -24 -3 -25
-65 -28 -84 -4 -131 16 -170 70 l-30 41 0 197 c0 149 -3 200 -13 208 -7 6 -40
12 -72 14 -56 3 -60 4 -60 28 0 24 3 25 70 30 l70 5 3 75 c1 41 4 81 7 88 5
14 24 16 42 4z m-1392 -191 c176 -91 220 -334 88 -481 -67 -75 -123 -100 -222
-100 -94 0 -143 19 -206 79 -70 67 -90 118 -89 231 1 80 5 101 24 135 46 80
112 135 185 156 52 14 176 3 220 -20z m2440 -17 c97 -64 136 -139 136 -259 0
-97 -23 -158 -86 -220 -60 -61 -121 -85 -211 -85 -82 0 -125 15 -192 68 -45
36 -65 67 -94 147 -47 129 12 278 142 360 46 29 75 34 173 29 69 -3 84 -7 132
-40z m723 20 c39 -25 57 -46 83 -95 20 -40 23 -61 27 -236 5 -226 2 -246 -36
-241 l-27 3 -5 205 c-5 220 -9 238 -63 288 -32 30 -97 45 -156 36 -69 -10
-107 -38 -149 -105 -21 -34 -22 -48 -22 -216 0 -190 -6 -219 -46 -211 -18 3
-19 15 -19 293 l0 290 25 0 c21 0 25 -5 28 -35 4 -44 19 -61 35 -40 19 26 84
71 114 80 44 15 179 5 211 -16z m627 -4 c44 -27 75 -70 75 -104 0 -22 -4 -26
-30 -26 -19 0 -30 5 -30 14 0 30 -42 66 -95 81 -66 20 -135 6 -165 -33 -29
-36 -27 -97 4 -125 23 -21 132 -57 174 -57 11 0 40 -9 65 -20 135 -60 139
-220 7 -289 -54 -28 -205 -30 -253 -4 -49 27 -87 65 -103 102 -21 49 -18 61
14 61 24 0 32 -7 46 -38 9 -20 33 -48 52 -61 30 -21 47 -25 114 -24 63 0 84 4
108 22 40 28 58 82 42 121 -13 32 -66 70 -97 70 -40 0 -175 40 -204 61 -80 56
-78 179 4 241 42 33 64 37 159 33 58 -2 86 -9 113 -25z m-3135 -185 c6 -245
16 -272 107 -319 65 -33 177 -13 225 40 42 49 51 93 57 289 l6 190 25 0 25 0
3 -194 c2 -163 0 -202 -15 -240 -42 -114 -113 -161 -245 -161 -87 0 -132 16
-182 66 -61 62 -69 92 -74 295 -6 220 -2 242 36 237 l27 -3 5 -200z m1168 -70
c1 -148 0 -280 -3 -292 -6 -27 -49 -32 -59 -7 -9 22 -8 559 1 568 4 4 19 6 33
4 l25 -3 3 -270z"/>
<path d="M8492 8004 c-18 -14 -39 -38 -47 -54 -20 -38 -13 -40 151 -40 148 0
161 5 129 54 -29 44 -76 66 -141 66 -48 0 -65 -5 -92 -26z"/>
<path d="M6742 6888 l3 -123 95 -3 c169 -6 217 13 240 93 14 50 -5 103 -49
134 -26 19 -43 21 -160 21 l-132 0 3 -122z"/>
<path d="M6740 6545 l0 -135 153 0 c168 0 179 3 216 64 41 66 16 157 -53 190
-26 12 -66 16 -175 16 l-141 0 0 -135z"/>
<path d="M7839 6803 c-92 -47 -131 -135 -110 -247 15 -82 87 -148 175 -163 88
-14 193 54 217 139 33 125 -10 231 -116 279 -56 26 -103 23 -166 -8z"/>
<path d="M11224 6812 c-51 -21 -69 -36 -106 -86 -25 -35 -28 -48 -28 -113 0
-84 14 -118 69 -169 56 -52 125 -66 202 -39 178 63 187 321 14 401 -59 28 -95
29 -151 6z"/>
<path d="M7519 5631 c-55 -11 -100 -42 -139 -96 -32 -45 -35 -57 -39 -129 -4
-89 8 -124 63 -184 85 -92 244 -94 327 -5 56 60 64 81 64 178 0 84 -2 93 -30
135 -56 82 -147 120 -246 101z"/>
<path d="M9934 5631 c-73 -12 -149 -86 -172 -167 -45 -159 67 -314 228 -314
162 0 278 189 210 342 -47 107 -147 159 -266 139z"/>
</g>
</svg>
