<svg width="200" height="32" viewBox="20 0 184 36" fill="none" xmlns="http://www.w3.org/2000/svg">
   <path d="M45.0493 24.1467C44.1366 22.4564 43.6797 20.5377 43.6797 18.3907C43.6797 16.2799 44.1366 14.3964 45.0493 12.7422C45.962 11.087 47.2283 9.79449 48.848 8.86461C50.4678 7.93472 52.316 7.46875 54.3916 7.46875C56.0207 7.46875 57.5061 7.78594 58.8488 8.42136C60.1915 9.05678 61.3007 9.9598 62.1782 11.1315C63.0548 12.3031 63.6099 13.668 63.8424 15.224H60.4593C60.1905 13.8467 59.4835 12.7288 58.3382 11.8692C57.1929 11.0106 55.8418 10.5808 54.2841 10.5808C52.8525 10.5808 51.5945 10.9031 50.5122 11.5468C49.429 12.1905 48.5886 13.0904 47.988 14.2435C47.3885 15.3975 47.0887 16.7345 47.0887 18.2554C47.0887 19.8651 47.3885 21.2878 47.988 22.5225C48.5876 23.7572 49.4248 24.7139 50.4988 25.3938C51.5728 26.0736 52.8163 26.4135 54.2304 26.4135C55.8946 26.4135 57.3179 25.9527 58.4994 25.0311C59.6809 24.1095 60.4148 22.8976 60.7011 21.3942H64.0843C63.8156 23.0226 63.2202 24.4494 62.2992 25.6748C61.3771 26.9002 60.2318 27.8487 58.8622 28.5192C57.4926 29.1898 56.0207 29.5255 54.4454 29.5255C52.3687 29.5255 50.5122 29.0513 48.8739 28.1028C47.2376 27.1564 45.962 25.837 45.0493 24.1467Z" fill="white"/>
<path d="M66.8463 25.9323C66.2375 24.8051 65.9336 23.526 65.9336 22.095C65.9336 20.664 66.2375 19.3891 66.8463 18.2711C67.4552 17.1532 68.3048 16.2812 69.3974 15.654C70.489 15.0279 71.7242 14.7148 73.1021 14.7148C74.2836 14.7148 75.3576 15.001 76.324 15.5734C77.2905 16.1458 78.0554 16.9786 78.6198 18.0697C79.1832 19.1607 79.4654 20.4491 79.4654 21.9338V23.0879H69.1824C69.2723 24.2689 69.6569 25.208 70.337 25.9055C71.0172 26.6029 71.9392 26.9521 73.1021 26.9521C73.9249 26.9521 74.6185 26.7506 75.1829 26.3487C75.7462 25.9458 76.0915 25.4591 76.2165 24.8857H79.3579C79.2142 25.7618 78.8565 26.5543 78.2839 27.261C77.7112 27.9677 76.9773 28.5226 76.0822 28.9255C75.187 29.3274 74.1936 29.5289 73.1021 29.5289C71.7232 29.5289 70.489 29.2107 69.3974 28.5763C68.3048 27.9409 67.4552 27.0595 66.8463 25.9323ZM75.3307 18.392C74.7219 17.7483 73.9435 17.426 72.9946 17.426C71.9206 17.426 71.0575 17.739 70.4042 18.3651C69.7509 18.9913 69.3437 19.8416 69.1824 20.9151H76.324C76.2703 19.8767 75.9385 19.0357 75.3307 18.392Z" fill="white"/>
<path d="M85.1565 15.1436V17.3981C85.6578 16.557 86.3152 15.8999 87.1298 15.4257C87.9443 14.9514 88.8973 14.7148 89.9889 14.7148C91.7068 14.7148 92.9958 15.2376 93.8548 16.2843C94.7138 17.3309 95.1438 18.8745 95.1438 20.9141V29.0991H91.9487V21.0484C91.9487 19.9212 91.6841 19.0357 91.1569 18.392C90.6298 17.7483 89.8907 17.426 88.9418 17.426C87.7965 17.426 86.8786 17.8599 86.1902 18.7278C85.5007 19.5957 85.1565 20.727 85.1565 22.1229V29.1001H81.9883V15.1436H85.1565Z" fill="white"/>
<path d="M101.386 28.884C100.822 28.6691 100.402 28.2796 100.124 27.7165C99.8456 27.1534 99.7164 26.3609 99.7339 25.3411V17.961H96.7539V15.1434H99.7339V11.3867H102.902V15.1434H106.768V17.961H102.902V23.9721C102.902 24.6881 102.933 25.1975 102.996 25.5013C103.059 25.8061 103.215 26.0292 103.465 26.1729C103.717 26.3154 104.119 26.3878 104.674 26.3878C105.085 26.3878 105.569 26.3609 106.123 26.3072V29.071C105.103 29.1609 104.28 29.2053 103.654 29.2053C102.706 29.2053 101.95 29.0978 101.386 28.884Z" fill="white"/>
<path d="M108.834 27.4356C108.476 26.8095 108.297 26.1297 108.297 25.3961C108.297 24.1438 108.82 23.1416 109.868 22.3905C110.915 21.6394 112.458 21.1465 114.499 20.9141L117.801 20.538V19.8406C117.819 19.0533 117.582 18.454 117.089 18.0428C116.597 17.6316 115.85 17.426 114.847 17.426C113.881 17.426 113.133 17.645 112.605 18.0831C112.077 18.5212 111.813 19.1339 111.813 19.9212H108.806C108.806 18.2753 109.339 16.9962 110.403 16.0838C111.468 15.1715 112.968 14.7148 114.901 14.7148C116.852 14.7148 118.346 15.1622 119.385 16.057C120.423 16.9517 120.942 18.2133 120.942 19.8406V25.3155C120.942 25.8703 121.009 26.2547 121.143 26.4696C121.278 26.6845 121.541 26.7919 121.935 26.7919L122.257 26.7651L122.23 28.9927C121.711 29.1363 121.2 29.2076 120.7 29.2076C119.089 29.2076 118.194 28.3221 118.015 26.5502C117.639 27.4987 117.04 28.2322 116.217 28.7509C115.394 29.2696 114.365 29.5289 113.129 29.5289C112.073 29.5289 111.183 29.3367 110.458 28.9513C109.734 28.567 109.192 28.0618 108.834 27.4356ZM117.721 22.9267L115.573 23.1416C114.159 23.3028 113.116 23.5487 112.445 23.8793C111.774 24.211 111.438 24.6801 111.438 25.2886C111.438 25.7897 111.636 26.2185 112.028 26.577C112.422 26.9356 113.012 27.1143 113.8 27.1143C114.892 27.1143 115.8 26.7165 116.525 25.9199C117.252 25.1233 117.65 24.1253 117.721 22.9267Z" fill="white"/>
<path d="M133.761 29.0971V26.8427C133.259 27.6837 132.602 28.3408 131.787 28.8151C130.973 29.2893 130.011 29.5259 128.901 29.5259C127.201 29.5259 125.921 29.0021 125.062 27.9554C124.203 26.9088 123.773 25.3662 123.773 23.3267V15.1417H126.942V23.1924C126.942 24.3196 127.205 25.205 127.733 25.8487C128.261 26.4934 129.009 26.8148 129.975 26.8148C131.103 26.8148 132.016 26.3808 132.714 25.5129C133.411 24.645 133.761 23.5137 133.761 22.1178V15.1406H136.902V29.095H133.761V29.0971Z" fill="white"/>
<path d="M142.971 15.1456V17.8019C143.884 15.9236 145.728 14.9844 148.502 14.9844V17.9631C146.802 17.9631 145.455 18.2276 144.461 18.7545C143.468 19.2815 142.971 20.1452 142.971 21.3448V29.1H139.91V15.1456H142.971Z" fill="white"/>
<path d="M149.578 11.0381C149.578 10.4295 149.784 9.92431 150.195 9.52136C150.608 9.11841 151.117 8.91797 151.726 8.91797C152.335 8.91797 152.845 9.11944 153.257 9.52136C153.668 9.92431 153.874 10.4295 153.874 11.0381C153.874 11.6281 153.663 12.1292 153.244 12.5404C152.823 12.9516 152.317 13.1572 151.726 13.1572C151.117 13.1572 150.608 12.9557 150.195 12.5538C149.785 12.1519 149.578 11.6456 149.578 11.0381ZM153.311 15.144V29.0985H150.169V15.144H153.311Z" fill="white"/>
<path d="M155.215 17.9593V15.1418H158.517V13.6116C158.481 11.6795 158.925 10.2299 159.846 9.26386C160.768 8.29782 162.159 7.84114 164.021 7.89487L165.47 7.92173V10.6587H164.423C163.42 10.6587 162.709 10.8736 162.288 11.3024C161.868 11.7322 161.657 12.4926 161.657 13.5837V15.1407H165.603V17.9583H161.657V29.0952H158.515V17.9593H155.215Z" fill="white"/>
<path d="M169.039 31.7285C169.969 31.7285 170.708 31.5631 171.254 31.2325C171.799 30.9009 172.324 30.3068 172.824 29.4482L166.273 15.1445H169.603L174.462 25.584L178.301 15.1445H181.631L175.911 30.1456C175.267 31.7378 174.39 32.8557 173.281 33.5004C172.171 34.1441 170.712 34.4664 168.904 34.4664H167.454V31.7295H169.039V31.7285Z" fill="white"/>
<path d="M30.0624 26.4073C33.9945 22.1815 36.3988 18.4197 35.5812 17.6024C34.8421 16.8637 31.6904 18.7596 27.9661 22.0379C32.6021 16.9763 35.4292 12.6358 34.5268 11.7348C33.6337 10.8422 29.3698 13.6029 24.372 18.1531C29.3791 12.5676 32.2507 7.58758 30.9927 6.3312C29.7347 5.0738 24.7535 7.94403 19.1654 12.9499C23.7177 7.95333 26.4797 3.69137 25.5866 2.79869C24.6852 1.8967 20.3428 4.72354 15.2778 9.35642C18.5576 5.63379 20.4555 2.48356 19.7164 1.74482C18.8998 0.928593 15.1352 3.33079 10.9074 7.26109C11.9659 5.83217 12.4362 4.59026 11.9887 4.14392C11.3612 3.51676 9.16778 4.69358 7.08907 6.77135C5.01036 8.84911 3.83301 11.0416 4.46045 11.6687C4.90803 12.1151 6.1505 11.646 7.58006 10.588C3.64798 14.8138 1.2447 18.5757 2.0613 19.3929C2.80037 20.1317 5.95203 18.2357 9.67635 14.9574C5.04034 20.0191 2.21325 24.3595 3.11564 25.2605C4.00873 26.1532 8.27262 23.3925 13.2704 18.8412C8.26332 24.4267 5.39178 29.4067 6.64976 30.6641C7.90774 31.9215 12.889 29.0513 18.477 24.0454C13.9247 29.042 11.1628 33.304 12.0559 34.1966C12.9572 35.0976 17.2997 32.2718 22.3636 27.6389C19.0838 31.3615 17.187 34.5118 17.9261 35.2505C18.7427 36.0667 22.5073 33.6645 26.735 29.7342C25.6755 31.1632 25.2062 32.4051 25.6528 32.8514C26.2802 33.4786 28.4736 32.3018 30.5523 30.224C32.6311 28.1462 33.8084 25.9538 33.181 25.3266C32.7344 24.8792 31.492 25.3493 30.0624 26.4073Z" fill="white"/>
<path d="M182.289 7.49268V6.94922H185.683V7.49268H184.262V10.5561H183.709V7.49268H182.289Z" fill="white"/>
<path d="M186.883 6.94922L188.052 9.82979L189.226 6.94922H190.094V10.5561H189.537V7.70759L188.327 10.5561H187.779L186.573 7.70759V10.5561H186.016V6.94922H186.883Z" fill="white"/>
  </svg>