<svg width="48" height="64" viewBox="0 0 48 64" fill="none" xmlns="http://www.w3.org/2000/svg">
<path d="M43.618 0C42.3377 0 41.3134 0.42953 40.4598 1.20268C39.6062 2.06175 39.1794 3.09262 39.1794 4.46712V23.0228V29.8094C39.1794 29.8094 39.1794 32.4725 39.1794 35.3074H39.094C39.094 35.3933 39.094 35.4792 39.1794 35.5651C39.1794 36.3383 39.1794 37.1114 39.1794 37.8846C39.1794 43.7262 39.0087 47.5061 33.9726 52.3168C33.375 52.8322 32.6922 53.2618 32.0093 53.6913C29.6193 55.1517 27.0585 55.8389 24.1564 55.8389C21.2542 55.8389 18.6081 55.1517 16.3034 53.6913C13.9134 52.2309 12.1209 50.255 10.7551 47.7638C9.3894 45.2725 8.70653 42.4376 8.70653 39.345C8.70653 36.2524 9.3894 33.4175 10.7551 30.9262C12.1209 28.4349 13.9987 26.4591 16.3034 25.0846C18.4374 23.796 20.742 23.1087 23.2174 22.9369L20.1445 26.0295C18.5227 27.6618 18.5227 30.4107 20.1445 32.1289C21.7663 33.7611 24.4978 33.7611 26.205 32.1289L36.2772 21.992C37.899 20.3597 37.899 17.6107 36.2772 15.8926L26.1196 5.75571C24.4978 4.12349 21.7663 4.12349 20.0592 5.75571C18.4374 7.38792 18.4374 10.1369 20.0592 11.855L23.3028 15.1195C22.9613 15.1195 22.7053 15.1195 22.3638 15.1195C18.1813 15.1195 14.4255 16.1503 11.0112 18.298C7.59688 20.4456 4.95077 23.2805 2.98754 27.0604C0.93894 30.6685 0 34.792 0 39.345C0 43.898 1.0243 48.0215 3.15825 51.8014C5.29221 55.4953 8.10903 58.4161 11.8648 60.5638C15.5352 62.7114 19.6324 63.7423 24.071 63.7423C28.5096 63.7423 32.6068 62.7114 36.1919 60.5638C39.8623 58.4161 42.6791 55.4953 44.813 51.8014C46.947 48.1074 47.9713 43.9839 47.9713 39.345V4.46712C47.9713 3.09262 47.5445 2.06175 46.7763 1.20268C46.0081 0.42953 44.8984 0 43.618 0Z" fill="black"/>
</svg>
