<?xml version="1.0" standalone="no"?>
<!DOCTYPE svg PUBLIC "-//W3C//DTD SVG 20010904//EN"
 "http://www.w3.org/TR/2001/REC-SVG-20010904/DTD/svg10.dtd">
<svg version="1.0" xmlns="http://www.w3.org/2000/svg"
 width="355.000000pt" height="73.000000pt" viewBox="0 0 355.000000 73.000000"
 preserveAspectRatio="xMidYMid meet">
<metadata>
Created by potrace 1.16, written by Peter Selinger 2001-2019
</metadata>
<g transform="translate(0.000000,73.000000) scale(0.100000,-0.100000)"
fill="#000000" stroke="none">
<path d="M0 365 l0 -365 200 0 c177 0 202 2 219 17 11 10 31 26 45 36 14 10
44 42 66 72 22 30 54 62 70 70 53 28 30 48 -25 23 -17 -7 -38 -34 -55 -69 -24
-47 -37 -60 -77 -79 -26 -12 -56 -29 -66 -38 -9 -8 -20 -12 -24 -8 -10 10 31
47 79 70 31 15 49 33 65 64 29 57 42 73 78 88 24 10 27 14 14 19 -28 11 -92
-27 -100 -59 -11 -39 -55 -83 -107 -108 -27 -13 -44 -29 -48 -44 -3 -13 -12
-24 -20 -24 -12 0 -12 5 -1 33 9 22 30 41 68 62 44 25 58 39 78 82 20 42 32
55 64 68 28 11 37 19 29 27 -7 7 -21 7 -46 -2 -27 -9 -42 -22 -57 -53 -29 -57
-56 -85 -105 -107 -32 -13 -45 -27 -55 -54 -7 -20 -16 -36 -19 -36 -18 0 -17
16 1 52 l20 39 -26 -17 c-14 -9 -25 -25 -25 -35 0 -11 -4 -19 -10 -19 -5 0
-10 8 -10 19 0 11 -6 18 -16 17 -9 0 -21 6 -27 15 -17 26 27 87 79 109 32 14
48 29 65 62 28 57 46 76 92 100 21 10 46 33 55 50 29 52 63 88 103 109 25 12
46 34 59 59 11 22 25 40 30 40 15 0 12 -16 -10 -57 -25 -47 -18 -54 18 -20 45
43 72 34 30 -10 -12 -13 -17 -23 -11 -23 5 0 18 9 28 20 10 11 22 20 27 20 13
0 9 -22 -7 -40 -14 -15 -13 -19 5 -35 12 -10 20 -13 20 -6 0 19 63 51 103 51
79 0 127 -50 127 -131 0 -71 -32 -120 -141 -215 -55 -47 -103 -84 -105 -81
-13 13 -65 -18 -89 -54 -28 -40 -45 -50 -45 -26 0 19 69 97 86 97 8 0 14 5 14
10 0 22 -100 -40 -116 -73 -9 -17 -26 -42 -37 -54 l-20 -23 1506 0 1507 0 0
365 0 365 -1775 0 -1775 0 0 -365z m530 332 c0 -19 -28 -42 -70 -59 -40 -17
-56 -33 -90 -97 -20 -38 -33 -48 -69 -60 -38 -12 -46 -20 -66 -65 -26 -59 -46
-79 -98 -101 -44 -18 -47 -18 -47 -2 1 6 22 22 48 34 40 19 52 31 72 75 21 44
33 57 75 78 38 19 55 35 70 66 28 58 44 74 90 94 22 9 46 25 54 34 16 19 31
21 31 3z m50 -7 c0 -28 -29 -64 -69 -85 -55 -27 -82 -55 -96 -98 -7 -24 -23
-38 -60 -57 -40 -20 -55 -35 -76 -75 -14 -29 -40 -59 -60 -72 -19 -12 -49 -34
-67 -49 -18 -14 -35 -24 -39 -21 -13 14 10 40 66 74 46 29 64 48 82 87 19 40
34 54 72 74 36 18 53 33 64 60 20 50 40 70 96 98 28 15 52 35 57 49 9 24 30
35 30 15z m50 -20 c0 -5 -8 -26 -17 -45 -13 -27 -31 -43 -70 -62 -42 -19 -58
-34 -74 -66 -29 -57 -46 -75 -94 -96 -30 -13 -45 -28 -55 -52 -18 -45 -47 -77
-93 -101 -21 -10 -46 -32 -55 -49 -9 -16 -23 -29 -29 -29 -36 0 11 65 72 99
42 24 60 41 72 69 21 51 41 72 89 92 31 14 46 28 62 63 22 46 68 89 110 102
12 3 31 24 42 46 19 36 40 52 40 29z"/>
</g>
</svg>
