<?xml version="1.0" standalone="no"?>
<!DOCTYPE svg PUBLIC "-//W3C//DTD SVG 20010904//EN"
 "http://www.w3.org/TR/2001/REC-SVG-20010904/DTD/svg10.dtd">
<svg version="1.0" xmlns="http://www.w3.org/2000/svg"
 width="209.000000pt" height="155.000000pt" viewBox="0 0 209.000000 155.000000"
 preserveAspectRatio="xMidYMid meet">
<metadata>
Created by potrace 1.16, written by Peter Selinger 2001-2019
</metadata>
<g transform="translate(0.000000,155.000000) scale(0.100000,-0.100000)"
fill="#000000" stroke="none">
<path d="M1259 1162 c-139 -57 -194 -165 -165 -328 19 -112 57 -174 167 -276
139 -128 152 -139 214 -193 32 -27 70 -62 84 -77 l27 -28 80 73 c44 39 127
114 186 165 58 52 120 111 137 133 121 150 134 351 30 464 -109 118 -295 112
-400 -13 l-32 -39 -34 38 c-78 86 -199 119 -294 81z"/>
</g>
</svg>
