<svg version="1.0" xmlns="http://www.w3.org/2000/svg"
 width="200" height="75" viewBox="610 127 560 600"
 preserveAspectRatio="xMidYMid meet">
<metadata>
Created by potrace 1.10, written by Peter Selinger 2001-2011
</metadata>
<g transform="translate(0.000000,600.000000) scale(0.100000,-0.100000)"
fill="#e5e5e5" stroke="none">
<path d="M2695 4798 c-22 -12 -41 -25 -43 -29 -2 -5 -14 -9 -27 -9 -12 0 -28
-7 -35 -15 -7 -8 -28 -15 -46 -15 -31 0 -39 -8 -35 -32 0 -4 -9 -10 -21 -14
-12 -4 -37 -21 -55 -38 -51 -49 -96 -83 -120 -90 -17 -6 -23 -15 -23 -38 0
-30 -1 -30 -19 -14 -18 16 -20 15 -43 -13 l-25 -29 5 43 c6 58 -2 84 -35 121
-22 24 -37 31 -69 32 -38 1 -45 -3 -82 -47 -31 -36 -38 -51 -29 -60 8 -8 5
-16 -11 -31 -12 -12 -22 -25 -22 -31 0 -5 -12 -15 -26 -21 -19 -9 -24 -18 -21
-35 2 -13 -2 -28 -9 -34 -8 -6 -14 -17 -14 -24 0 -7 -16 -27 -36 -44 -26 -23
-34 -37 -29 -51 7 -23 -8 -26 -49 -10 -14 5 -26 7 -26 4 0 -10 23 -49 33 -55
5 -4 7 -12 3 -18 -5 -7 -18 -4 -42 9 -41 24 -44 24 -44 6 0 -8 7 -16 15 -20
26 -10 16 -23 -22 -30 -51 -8 -194 -81 -215 -109 -15 -19 -20 -20 -37 -9 -26
15 -28 15 -35 -4 -4 -9 -1 -22 4 -30 9 -9 6 -15 -9 -23 -16 -9 -22 -8 -29 6
-8 14 -14 12 -45 -18 -20 -19 -39 -47 -42 -62 -4 -15 -11 -30 -16 -33 -5 -3
-9 -16 -9 -30 0 -16 -6 -24 -17 -24 -10 0 -23 -12 -30 -26 -10 -22 -10 -24 8
-19 10 4 19 4 19 0 0 -3 -25 -42 -55 -87 -30 -44 -55 -87 -55 -94 0 -8 -5 -14
-11 -14 -7 0 -9 -9 -5 -23 4 -17 -2 -27 -24 -42 -16 -11 -32 -30 -35 -42 -3
-13 -11 -23 -19 -23 -8 0 -13 -12 -13 -30 0 -17 -7 -38 -15 -46 -14 -14 -14
-19 -1 -45 8 -16 20 -29 28 -29 7 0 20 -11 29 -24 8 -14 26 -26 38 -28 13 -2
23 -10 23 -18 0 -11 -9 -14 -33 -12 -33 4 -40 -6 -21 -25 20 -20 85 20 100 62
8 22 20 35 31 35 10 0 18 4 18 10 0 11 37 47 62 61 34 19 27 -10 -8 -31 -25
-16 -33 -27 -29 -39 12 -30 10 -34 -15 -41 -18 -5 -24 -12 -23 -28 2 -17 -3
-22 -20 -22 -12 0 -28 -9 -35 -20 -7 -11 -23 -20 -36 -20 -18 0 -25 -6 -28
-22 -3 -20 -8 -23 -41 -21 -20 1 -37 -2 -37 -7 0 -6 7 -10 15 -10 25 0 17 -14
-19 -34 -38 -20 -53 -61 -30 -83 8 -8 14 -19 14 -24 0 -5 10 -9 21 -9 17 0 20
-5 17 -25 -4 -17 -1 -25 9 -25 8 0 23 -5 34 -11 20 -10 20 -11 3 -30 -9 -10
-23 -19 -31 -19 -7 0 -13 -4 -13 -10 0 -5 -9 -10 -20 -10 -13 0 -18 -5 -14
-15 4 -9 -5 -26 -20 -42 -29 -29 -29 -46 -1 -52 10 -2 32 -17 49 -35 41 -41
104 -75 114 -60 5 8 15 8 32 2 l25 -9 -23 -18 c-15 -11 -23 -26 -21 -42 3 -39
0 -59 -11 -59 -5 0 -10 12 -10 26 0 16 -5 24 -12 21 -7 -2 -13 -19 -13 -37 0
-18 -6 -35 -12 -37 -7 -3 -13 -11 -13 -19 0 -8 -10 -14 -22 -14 -17 0 -19 -3
-10 -12 7 -7 12 -20 12 -30 0 -10 7 -18 15 -18 8 0 15 -7 15 -16 0 -9 11 -29
25 -46 14 -16 25 -39 25 -51 0 -20 1 -19 28 6 15 15 33 27 40 27 15 0 16 -26
2 -35 -8 -5 -7 -12 2 -22 10 -12 8 -18 -11 -32 -24 -19 -24 -37 1 -88 8 -16 8
-26 0 -36 -9 -11 -3 -20 28 -43 22 -16 40 -32 40 -36 0 -12 40 -9 40 3 0 6 10
9 23 8 12 -1 30 2 40 6 26 11 33 -2 14 -23 -12 -13 -14 -21 -6 -29 9 -9 8 -20
0 -44 -18 -51 -14 -72 35 -168 31 -63 51 -91 63 -91 26 0 96 -68 120 -118 19
-38 25 -42 57 -42 27 0 37 -5 41 -20 6 -23 28 -27 37 -5 7 19 46 20 46 2 0
-26 45 -57 81 -57 39 0 59 -15 59 -43 0 -10 5 -15 10 -12 6 4 9 12 8 18 -1 7
4 27 12 45 11 23 21 32 35 30 16 -2 23 -16 33 -68 7 -36 18 -70 25 -77 16 -15
121 -34 125 -22 6 15 39 10 46 -6 3 -8 12 -15 19 -15 8 0 22 -9 32 -21 l19
-20 18 23 18 23 6 -22 c10 -37 77 -22 94 22 11 28 25 32 34 10 11 -30 28 -16
22 19 -5 23 -2 37 9 46 12 10 16 9 21 -4 8 -20 43 -21 50 -1 6 16 44 21 44 6
0 -5 -6 -14 -14 -20 -8 -7 -17 -23 -20 -36 -5 -18 -13 -25 -31 -25 -31 0 -41
-17 -16 -25 11 -3 21 -16 23 -28 2 -14 11 -23 26 -25 12 -2 22 -10 22 -17 0
-37 104 -43 157 -9 12 8 29 14 38 14 8 0 15 5 15 10 0 14 49 34 76 31 15 -2
23 5 28 23 4 15 14 26 29 28 16 2 22 10 22 28 0 23 4 25 40 25 38 0 40 2 37
28 -2 21 3 29 23 37 15 6 37 7 51 4 26 -7 33 -34 9 -34 -9 0 -21 -12 -27 -27
-7 -16 -20 -38 -31 -50 -21 -23 -16 -43 11 -43 21 -1 56 -29 65 -52 12 -33 94
-27 124 9 17 21 24 24 36 15 11 -10 17 -9 26 2 6 8 10 18 9 23 -2 5 19 30 45
57 30 29 46 53 43 62 -5 14 26 54 43 54 4 0 6 -11 3 -25 -3 -17 0 -25 9 -26 8
-1 23 -2 34 -3 11 0 21 -11 25 -26 5 -21 12 -25 51 -28 39 -3 48 1 72 28 17
18 37 30 52 30 22 0 25 4 23 28 -2 19 2 27 12 27 8 0 20 11 26 25 6 14 24 39
39 55 14 17 37 47 51 67 13 21 37 47 53 59 20 15 27 27 23 42 -5 19 -2 20 38
13 36 -6 41 -4 37 9 -7 17 18 21 28 5 9 -15 25 -12 32 6 3 9 0 20 -8 24 -7 5
-10 12 -6 17 5 4 11 3 15 -3 9 -14 81 -12 90 3 9 13 78 43 102 43 10 0 21 -7
24 -16 3 -8 10 -13 16 -9 6 4 5 13 -2 25 -7 11 -10 21 -8 22 75 55 128 99 182
152 37 36 71 66 76 66 5 0 15 7 23 16 7 8 29 24 50 34 22 12 39 29 43 44 3 13
25 39 48 57 24 19 47 39 51 46 4 7 16 13 27 13 10 0 21 9 25 19 3 11 25 32 48
46 23 15 55 44 70 64 16 21 46 53 69 72 22 19 78 71 123 117 46 45 89 82 96
82 8 0 8 4 -1 15 -15 19 0 40 28 40 11 0 16 7 14 17 -1 10 18 52 43 95 25 43
45 86 45 95 0 10 4 26 8 36 52 106 52 105 60 262 5 85 5 163 0 172 -4 9 -8 34
-8 55 -1 21 -7 49 -15 63 -8 14 -14 39 -15 57 0 17 -4 35 -10 38 -5 3 -10 17
-10 30 0 18 -12 32 -40 51 -23 16 -40 35 -40 46 0 11 -15 27 -35 39 -19 12
-35 27 -35 35 0 8 -8 18 -19 22 -10 4 -31 22 -46 40 -16 19 -36 32 -50 32 -12
0 -29 10 -37 22 -12 17 -26 22 -79 25 -88 6 -101 12 -64 30 29 13 27 14 -30 8
-33 -3 -64 -6 -70 -5 -5 0 -34 3 -62 6 -35 4 -53 2 -53 -5 0 -6 -17 -11 -37
-11 -21 -1 -49 -7 -63 -15 -14 -8 -44 -14 -67 -15 -23 0 -44 -4 -48 -9 -9 -15
-124 -101 -134 -101 -5 0 -19 -16 -31 -35 -25 -41 -37 -44 -42 -12 -2 12 -7
22 -13 22 -5 0 -11 -10 -13 -22 -2 -13 1 -23 7 -23 6 0 11 -10 11 -22 0 -20
-1 -20 -19 -4 -12 11 -21 14 -26 7 -12 -20 -45 -12 -55 13 -5 13 -14 27 -19
31 -15 9 -14 25 2 25 20 0 57 44 57 68 0 11 8 25 17 31 11 6 18 24 20 47 1 20
7 42 13 48 11 11 14 46 4 46 -4 0 -13 -8 -20 -17 -13 -17 -13 -17 -14 1 0 11
-7 26 -15 35 -8 9 -45 49 -81 88 -56 62 -70 72 -90 67 -13 -4 -30 -1 -38 5
-10 8 -16 8 -26 -4 -16 -19 -30 -19 -30 0 0 22 -11 18 -44 -15 -16 -17 -35
-30 -42 -30 -21 0 -28 22 -10 32 11 6 14 17 10 34 -4 15 -2 24 6 24 6 0 10 10
9 23 -1 12 1 34 5 49 5 15 3 36 -4 50 -35 67 -90 92 -136 62 -23 -16 -28 -16
-38 -3 -6 8 -19 18 -29 22 -15 6 -17 13 -12 38 6 25 3 31 -12 35 -10 3 -23 15
-28 27 -6 12 -25 26 -43 31 -26 7 -36 5 -53 -10 -17 -16 -22 -16 -29 -4 -6 8
-10 18 -10 23 0 4 -4 7 -10 7 -16 0 -11 -28 7 -38 11 -7 14 -16 9 -28 -7 -18
-8 -18 -20 -1 -7 9 -19 17 -26 17 -8 0 -11 9 -7 27 4 21 -3 37 -30 70 -30 37
-39 41 -64 36 -22 -4 -29 -2 -29 11 0 20 -19 21 -26 1 -10 -25 -116 -3 -126
26 -2 7 -25 13 -54 14 -27 1 -60 5 -72 9 -21 7 -23 5 -17 -12 5 -18 1 -22 -29
-27 -19 -4 -44 -18 -57 -31 -18 -19 -20 -26 -9 -39 10 -13 9 -15 -8 -15 -11 0
-26 -9 -33 -19 -8 -11 -29 -22 -46 -26 -31 -6 -33 -5 -33 20 0 23 4 26 27 23
15 -2 28 2 30 10 3 6 -2 12 -11 12 -9 0 -16 7 -16 15 0 8 9 15 19 15 27 0 34
15 15 31 -27 22 -38 51 -23 60 7 4 10 12 5 16 -5 4 -11 2 -13 -4 -7 -18 -19
-16 -40 6 -33 36 -64 41 -108 19z m116 -107 c-11 -19 -86 -61 -110 -61 -6 0
-11 -4 -11 -9 0 -5 -10 -13 -22 -17 -20 -6 -30 -13 -61 -40 -7 -6 -23 -14 -35
-18 -12 -4 -63 -49 -115 -99 -122 -121 -152 -158 -200 -246 -10 -19 -25 -41
-33 -48 -8 -8 -14 -18 -14 -23 0 -4 -23 -43 -52 -85 -61 -90 -149 -173 -218
-206 -28 -13 -50 -27 -50 -30 0 -4 -8 -9 -17 -13 -10 -3 -31 -15 -48 -26 -16
-11 -37 -23 -45 -27 -89 -40 -260 -242 -260 -307 0 -8 -7 -27 -15 -42 -8 -16
-15 -36 -15 -44 0 -29 -88 -165 -136 -212 -78 -75 -208 -154 -272 -164 -47 -7
-65 9 -54 51 7 23 19 32 63 49 153 58 254 158 323 318 9 20 16 45 16 56 0 12
4 23 9 26 5 3 12 17 15 31 8 33 63 123 102 167 40 45 167 142 267 201 43 26
80 47 83 47 9 0 85 61 109 86 47 51 65 76 128 179 97 158 129 200 217 290 44
44 85 85 92 90 67 52 120 89 147 102 8 4 37 21 65 40 28 18 56 33 62 33 6 0
17 7 24 16 12 13 17 12 43 -14 25 -25 27 -33 18 -51z m346 -7 l24 -26 -38 -46
c-100 -122 -226 -212 -338 -242 -16 -4 -43 -15 -60 -24 -16 -9 -36 -16 -42
-16 -7 0 -13 -4 -13 -9 0 -5 -12 -13 -27 -19 -41 -14 -133 -108 -176 -179 -20
-33 -37 -65 -37 -71 0 -6 -6 -23 -14 -39 -24 -46 -46 -100 -46 -112 0 -6 -13
-33 -30 -59 -16 -27 -30 -52 -30 -56 0 -10 -18 -31 -72 -85 -67 -67 -128 -96
-294 -140 -60 -16 -139 -77 -182 -140 -23 -33 -42 -64 -42 -68 -1 -5 -9 -26
-20 -48 -11 -22 -19 -50 -20 -62 0 -12 -4 -25 -10 -28 -5 -3 -10 -13 -10 -21
0 -8 -8 -34 -19 -57 -10 -23 -21 -49 -24 -57 -13 -30 -33 -56 -92 -115 -62
-64 -153 -123 -290 -188 -44 -21 -92 -45 -107 -53 -14 -8 -47 -14 -72 -14 -46
0 -46 0 -46 35 0 28 5 37 30 50 16 8 36 15 45 15 10 0 29 6 43 14 15 8 72 36
126 62 116 56 199 115 244 171 18 23 32 44 32 47 0 3 11 29 24 56 14 28 28 65
31 83 4 18 10 37 14 42 4 6 18 37 30 70 13 33 37 79 53 103 15 24 28 45 28 48
0 2 19 21 41 42 55 50 147 98 203 106 25 4 48 11 51 17 4 5 15 9 25 9 34 0
103 43 155 95 53 54 76 95 140 250 68 165 144 272 240 334 22 14 42 28 45 31
3 3 23 13 45 23 22 10 53 25 68 33 16 8 38 14 50 14 55 0 208 109 257 183 52
78 67 84 107 41z m219 -59 c14 -22 14 -27 0 -56 -9 -18 -16 -39 -16 -47 0 -30
-62 -139 -108 -188 -42 -46 -145 -114 -173 -114 -9 0 -121 -54 -174 -84 -87
-48 -218 -175 -255 -246 -37 -72 -39 -76 -46 -130 -7 -56 -29 -116 -59 -166
-22 -36 -131 -120 -169 -130 -14 -3 -29 -10 -32 -15 -3 -5 -14 -9 -26 -9 -11
0 -32 -6 -46 -14 -15 -7 -58 -28 -95 -46 -91 -44 -153 -107 -201 -205 -22 -44
-43 -89 -47 -100 -95 -245 -150 -306 -404 -445 -45 -25 -107 -62 -137 -82 -63
-42 -155 -133 -164 -162 -7 -22 -43 -55 -61 -56 -19 0 -43 30 -43 54 0 13 9
31 20 41 11 10 20 22 20 27 0 15 70 86 130 132 58 45 136 93 235 146 127 68
265 191 265 237 0 7 4 21 9 31 22 41 69 149 76 171 9 29 58 114 92 159 39 52
218 172 256 172 5 0 25 7 45 16 153 67 188 91 221 154 12 23 21 52 21 65 0 46
33 149 62 193 15 24 28 46 28 50 0 24 190 193 272 241 58 34 136 71 152 71 8
0 18 5 21 10 3 6 14 10 24 10 10 0 28 9 41 20 13 11 27 20 32 20 15 0 73 68
95 113 34 68 41 89 48 140 6 46 7 47 40 47 26 0 39 -6 51 -25z m-1246 -10 c25
-13 30 -21 30 -54 0 -21 -6 -44 -14 -50 -8 -7 -18 -26 -21 -42 -4 -16 -10 -31
-15 -34 -5 -3 -19 -26 -31 -53 -73 -150 -203 -322 -246 -322 -7 0 -13 -4 -13
-9 0 -5 -27 -19 -60 -31 -33 -12 -63 -27 -66 -31 -3 -5 -12 -9 -20 -9 -30 0
-160 -86 -211 -139 -45 -47 -123 -178 -123 -205 0 -17 -61 -134 -75 -146 -8
-7 -15 -18 -15 -24 0 -6 -27 -40 -60 -74 -33 -35 -60 -67 -60 -73 0 -5 -16 -9
-35 -9 -29 0 -37 5 -46 26 -7 20 -6 31 5 43 8 9 42 45 75 80 40 41 74 91 101
146 22 45 40 86 40 90 0 11 43 97 55 112 6 6 26 34 44 61 56 78 187 167 328
221 97 38 197 117 209 166 3 14 9 25 13 25 4 0 26 37 50 83 23 45 46 89 51 97
18 33 40 89 40 104 0 16 28 66 37 66 2 0 17 -7 33 -15z m1474 -80 c20 -15 25
-67 7 -73 -6 -2 -11 -8 -11 -14 0 -16 -84 -202 -125 -277 -22 -41 -85 -91
-144 -117 -31 -14 -64 -29 -73 -34 -10 -6 -23 -10 -28 -10 -64 0 -330 -192
-330 -238 0 -6 -4 -12 -8 -14 -8 -3 -65 -116 -98 -193 -7 -16 -20 -48 -30 -70
-43 -100 -164 -222 -238 -241 -14 -3 -29 -10 -32 -15 -3 -5 -13 -9 -22 -9 -9
0 -30 -7 -46 -15 -15 -8 -34 -15 -42 -15 -41 0 -204 -117 -204 -147 0 -7 -4
-13 -8 -13 -15 0 -82 -171 -82 -209 0 -11 -4 -22 -9 -25 -5 -3 -12 -18 -15
-32 -14 -53 -147 -201 -214 -238 -10 -5 -19 -12 -22 -16 -8 -11 -85 -54 -190
-106 -72 -35 -111 -63 -162 -113 -66 -67 -138 -181 -138 -220 0 -24 -36 -37
-75 -27 -35 9 -33 46 5 108 17 26 30 52 30 57 0 7 47 73 90 124 32 39 129 107
224 156 132 68 227 132 286 193 55 56 100 126 100 156 0 11 7 33 15 48 8 16
15 37 15 47 0 9 4 25 9 35 5 9 19 37 31 62 12 25 25 47 29 50 3 3 17 21 30 40
46 69 149 130 304 181 37 12 67 26 67 30 0 5 9 9 21 9 34 0 124 102 164 184
19 40 35 76 35 79 0 9 68 149 95 194 52 88 172 190 285 243 87 41 106 49 169
72 35 13 78 37 95 53 28 28 78 118 120 220 9 22 21 48 26 57 6 10 10 26 10 37
0 11 12 29 28 40 32 24 32 24 56 6z m-514 -95 c0 -5 -7 -10 -15 -10 -8 0 -15
5 -15 10 0 6 7 10 15 10 8 0 15 -4 15 -10z m724 -30 c22 -8 26 -16 26 -49 0
-22 -6 -44 -15 -51 -22 -19 -99 -148 -144 -244 -38 -81 -86 -146 -108 -146 -5
0 -18 -9 -28 -20 -10 -11 -24 -20 -32 -20 -7 0 -13 -4 -13 -8 0 -5 -24 -18
-52 -29 -81 -32 -81 -32 -113 -53 -16 -10 -44 -26 -62 -35 -87 -45 -283 -286
-283 -349 0 -7 -7 -19 -15 -26 -8 -7 -15 -21 -15 -31 0 -11 -4 -19 -8 -19 -4
0 -20 -27 -35 -60 -37 -79 -115 -159 -192 -194 -33 -15 -73 -34 -88 -42 -16
-8 -35 -14 -43 -14 -46 0 -170 -94 -240 -182 -25 -32 -84 -156 -84 -178 0 -5
-4 -18 -9 -28 -5 -9 -26 -50 -46 -91 -62 -127 -156 -228 -264 -283 -20 -10
-42 -18 -51 -18 -8 0 -27 -6 -41 -14 -14 -7 -38 -16 -54 -20 -15 -4 -49 -21
-74 -38 -58 -38 -119 -128 -217 -316 -23 -45 -41 -50 -72 -19 l-26 27 38 71
c21 40 49 90 64 113 14 23 33 53 42 68 30 53 141 158 166 158 5 0 21 6 36 14
15 8 41 17 59 21 19 4 40 11 49 16 8 4 36 17 62 28 26 11 53 24 60 30 75 64
105 102 137 176 13 28 29 64 37 82 8 17 14 36 14 42 0 6 4 19 9 29 5 9 26 52
47 95 20 42 41 77 45 77 5 0 9 6 9 13 0 17 110 127 147 147 15 8 39 23 53 33
13 9 30 17 37 17 7 0 36 11 65 25 28 14 58 25 65 25 26 0 93 43 120 76 15 20
33 41 39 47 5 7 27 48 48 92 67 138 98 200 105 205 3 3 18 23 33 45 27 42 153
175 166 175 4 0 25 16 47 35 22 20 63 47 90 60 28 14 57 29 65 34 8 5 50 25
92 46 85 40 103 59 143 154 15 36 38 81 51 100 13 20 24 41 24 48 0 7 4 13 8
13 5 0 19 21 32 48 23 47 58 102 65 102 2 0 15 -4 29 -10z m-1074 -196 c0 -8
-4 -14 -9 -14 -11 0 -22 26 -14 34 9 9 23 -3 23 -20z m1338 -79 c3 -27 -3 -34
-55 -68 -68 -43 -193 -167 -193 -191 0 -12 10 -16 39 -16 22 0 44 -6 51 -15 7
-8 19 -15 27 -15 19 0 123 108 159 165 15 24 36 46 48 49 25 7 46 -17 46 -52
0 -27 -82 -135 -138 -183 l-37 -31 25 -16 c47 -31 105 -90 130 -131 33 -53 59
-54 84 -1 32 66 138 167 223 212 59 31 143 58 179 58 18 0 55 5 83 12 42 9 59
9 102 -5 28 -10 66 -17 85 -17 18 0 36 -4 39 -10 3 -5 15 -10 25 -10 10 0 25
-7 34 -15 8 -8 19 -15 25 -15 26 0 139 -103 206 -188 5 -7 18 -22 28 -33 9
-10 17 -24 17 -31 0 -6 12 -46 27 -87 26 -72 27 -85 27 -246 -1 -137 -4 -176
-18 -200 -9 -16 -16 -37 -16 -46 0 -9 -7 -30 -15 -45 -8 -16 -15 -37 -15 -46
0 -10 -13 -40 -30 -66 -16 -27 -30 -52 -30 -56 0 -9 -130 -184 -157 -211 -11
-11 -57 -54 -103 -95 -45 -41 -99 -91 -119 -110 -20 -19 -61 -55 -91 -80 -30
-25 -62 -52 -70 -60 -49 -47 -164 -146 -178 -154 -20 -11 -165 -149 -236 -223
-53 -56 -80 -66 -89 -33 -6 24 -31 25 -71 5 -15 -8 -34 -15 -41 -15 -7 0 -37
-8 -66 -17 -87 -28 -156 -80 -214 -163 -21 -30 -42 -59 -47 -65 -28 -34 -76
-106 -97 -145 -13 -25 -31 -53 -39 -62 -17 -21 -57 -24 -68 -6 -12 20 -5 70
13 90 16 17 34 46 50 78 4 8 11 20 15 25 27 32 108 145 108 149 0 21 148 146
172 146 8 0 19 5 26 12 12 12 76 33 135 45 15 3 30 10 33 15 7 10 -41 58 -58
58 -4 0 -8 7 -8 16 0 22 -42 11 -86 -22 -40 -31 -103 -64 -122 -64 -12 0 -35
-10 -92 -41 -8 -4 -35 -18 -60 -30 -25 -12 -54 -30 -66 -38 -36 -28 -134 -143
-149 -175 -58 -130 -88 -192 -94 -196 -3 -3 -19 -24 -35 -48 -16 -23 -57 -72
-91 -108 l-62 -66 -27 17 c-43 29 -34 58 39 131 78 78 153 190 155 229 1 42
99 183 169 245 55 48 206 140 232 140 12 0 163 71 169 80 3 3 13 9 23 13 19 7
24 27 6 27 -6 0 -31 13 -56 30 -24 17 -47 30 -51 30 -4 0 -16 14 -27 30 -12
17 -29 30 -41 30 -18 0 -65 -28 -84 -50 -8 -9 -157 -100 -163 -100 -13 0 -104
-66 -137 -99 -39 -39 -92 -107 -104 -131 -4 -8 -12 -24 -19 -35 -7 -11 -25
-43 -41 -70 -16 -28 -32 -52 -35 -55 -3 -3 -20 -25 -36 -50 -67 -100 -260
-276 -380 -347 -88 -52 -134 -70 -159 -66 -24 5 -27 9 -24 40 3 32 9 38 83 77
44 23 103 58 130 76 117 80 250 217 319 330 15 25 32 54 39 65 7 11 14 22 17
25 3 3 24 37 47 75 44 72 141 180 177 196 12 5 28 13 36 18 8 5 62 37 120 71
109 65 150 96 150 118 0 6 -7 12 -15 12 -9 0 -26 10 -39 22 -47 48 -48 48
-104 29 -29 -10 -55 -21 -59 -25 -3 -3 -17 -6 -31 -6 -13 0 -40 -7 -60 -16
-148 -63 -209 -128 -273 -289 -105 -265 -176 -351 -382 -463 -23 -12 -52 -22
-64 -22 -12 0 -25 -5 -28 -10 -3 -6 -15 -10 -27 -10 -51 0 -197 -117 -253
-203 -14 -22 -23 -27 -41 -23 -13 4 -33 1 -43 -6 -11 -7 -24 -9 -28 -4 -4 4 0
12 10 17 9 6 17 22 17 37 1 17 13 39 35 62 19 19 35 37 35 42 0 12 132 114
182 141 26 14 67 28 90 32 90 16 208 94 293 196 26 32 155 300 155 323 0 15
69 113 103 147 41 41 150 109 175 109 9 0 30 7 46 15 15 8 39 15 51 15 34 0
55 10 55 26 0 18 -110 124 -128 124 -8 0 -31 -13 -51 -29 -20 -16 -51 -32 -68
-36 -18 -3 -35 -11 -38 -16 -4 -5 -13 -9 -22 -9 -8 0 -50 -16 -92 -36 -115
-54 -163 -115 -176 -224 -7 -51 -54 -170 -79 -196 -6 -7 -20 -25 -31 -40 -41
-60 -159 -159 -263 -222 -29 -18 -57 -32 -63 -32 -6 0 -23 -6 -37 -14 -15 -8
-57 -29 -95 -46 -104 -49 -163 -119 -186 -220 -19 -83 -21 -89 -37 -105 -23
-22 -49 -18 -62 10 -12 25 -3 104 16 142 5 10 20 40 33 67 44 89 146 173 264
216 20 7 90 41 143 69 43 23 103 71 168 135 88 89 124 147 135 221 20 138 61
211 148 270 61 40 132 75 155 75 8 0 17 4 20 9 3 4 19 11 35 14 16 4 53 21 81
38 l52 32 -36 32 c-20 17 -36 37 -36 44 0 7 -6 19 -14 27 -8 7 -16 19 -19 26
-3 9 -22 4 -66 -19 -34 -18 -67 -33 -73 -33 -5 0 -26 -7 -46 -16 -148 -62
-211 -108 -248 -182 -10 -20 -22 -38 -26 -40 -5 -2 -8 -8 -8 -14 0 -5 -16 -42
-35 -82 -19 -40 -35 -79 -35 -86 0 -6 -13 -32 -30 -57 -16 -24 -30 -46 -30
-49 0 -8 -21 -32 -81 -93 -54 -55 -131 -111 -194 -143 -16 -8 -45 -22 -63 -31
-19 -9 -38 -17 -43 -17 -10 0 -81 -29 -124 -51 -11 -6 -30 -18 -42 -28 -24
-20 -83 -123 -83 -146 0 -8 -4 -15 -10 -15 -5 0 -10 -5 -10 -11 0 -6 -6 -25
-14 -42 -7 -18 -21 -53 -30 -79 -20 -55 -36 -71 -68 -66 -29 4 -36 54 -14 100
9 17 16 36 16 42 0 10 44 100 99 204 8 15 35 47 61 72 44 41 63 52 220 114 8
3 22 10 30 14 8 5 36 20 63 33 26 13 47 27 47 31 0 3 9 9 19 13 26 8 110 90
143 140 14 22 45 81 68 130 88 193 125 253 200 322 19 18 43 33 52 33 9 0 20
5 23 10 8 13 75 44 140 65 95 31 135 55 135 80 0 12 -7 28 -15 35 -8 7 -15 23
-15 35 0 27 -27 95 -38 95 -4 0 -25 -17 -47 -38 -45 -42 -88 -72 -125 -88
-105 -47 -142 -67 -146 -82 -18 -54 -67 -155 -86 -174 -9 -10 -22 -25 -30 -35
-14 -20 -83 -75 -108 -87 -81 -38 -111 -68 -157 -163 -34 -68 -64 -112 -110
-158 -34 -36 -65 -65 -67 -65 -3 0 -25 -13 -49 -30 -25 -16 -52 -30 -60 -30
-18 0 -57 -50 -57 -73 0 -8 -7 -17 -15 -21 -8 -3 -15 -12 -15 -20 0 -19 -136
-141 -186 -166 -21 -11 -47 -20 -57 -20 -30 0 -50 -64 -43 -140 8 -87 1 -110
-33 -110 -51 0 -55 9 -47 113 6 97 0 120 -26 93 -20 -20 -111 -30 -138 -16
-17 9 -20 17 -15 38 9 41 32 52 105 52 71 0 110 17 110 50 0 10 4 21 9 25 5 3
12 18 16 34 14 66 161 176 254 190 31 5 40 13 62 56 49 95 97 161 169 228 39
38 82 73 96 79 13 6 24 15 24 19 0 4 10 9 23 11 15 2 29 18 46 53 13 28 30 62
38 77 7 14 13 33 13 42 0 9 4 16 9 16 5 0 14 12 19 28 24 64 109 130 235 181
15 6 30 19 34 28 9 26 63 101 102 142 18 20 40 46 48 59 18 27 102 83 146 97
32 10 32 10 38 95 3 47 11 101 19 120 25 68 54 126 84 170 17 25 32 47 33 49
1 2 9 -2 18 -9 19 -15 34 -5 17 12 -16 16 -15 28 3 28 7 0 18 6 22 13 16 25
60 46 71 35 16 -16 62 6 103 48 18 19 40 34 48 34 8 0 26 11 40 24 29 27 115
49 158 40 24 -4 32 1 51 30 13 19 59 68 101 108 43 40 93 88 112 105 28 27 41
32 74 30 37 -2 40 -5 43 -32z m-1448 -14 c0 -12 -29 -23 -42 -15 -6 4 -5 10 3
15 18 11 39 11 39 0z m-388 -163 c-15 -15 -26 -4 -18 18 5 13 9 15 18 6 9 -9
9 -15 0 -24z m-103 -129 c-5 -11 -21 -24 -34 -29 -13 -5 -26 -14 -30 -19 -7
-12 -65 -15 -65 -3 1 10 68 52 84 52 8 0 19 7 26 15 17 21 32 8 19 -16z m-569
-4 c0 -8 -4 -15 -10 -15 -5 0 -10 7 -10 15 0 8 5 15 10 15 6 0 10 -7 10 -15z
m850 -92 c-1 -13 -38 -53 -49 -53 -6 0 -11 7 -11 15 0 8 9 15 20 15 11 0 20 7
20 15 0 8 5 15 10 15 6 0 10 -3 10 -7z m-429 -276 c-13 -13 -26 -3 -16 12 3 6
11 8 17 5 6 -4 6 -10 -1 -17z m-48 -7 c19 -23 22 -40 7 -40 -5 0 -10 6 -10 14
0 7 -9 16 -21 19 -12 3 -18 10 -14 16 9 16 18 14 38 -9z m-19 -61 c-7 -12 -74
-12 -74 0 0 13 19 18 51 13 16 -2 26 -8 23 -13z m-67 -54 c2 -6 -3 -20 -12
-30 -13 -17 -16 -18 -25 -5 -18 27 -12 52 12 48 12 -2 23 -8 25 -13z m433
-299 c0 -8 -4 -17 -9 -21 -12 -7 -24 12 -16 25 9 15 25 12 25 -4z m-620 -91
c0 -8 -4 -15 -10 -15 -5 0 -10 7 -10 15 0 8 5 15 10 15 6 0 10 -7 10 -15z
m548 -27 c-6 -18 -28 -21 -28 -4 0 9 7 16 16 16 9 0 14 -5 12 -12z m-598 -8
c0 -5 -7 -10 -15 -10 -8 0 -15 5 -15 10 0 6 7 10 15 10 8 0 15 -4 15 -10z
m-372 -235 c2 -2 -15 -6 -38 -10 -43 -7 -56 -3 -46 14 5 8 73 5 84 -4z m1882
-51 c0 -17 -22 -14 -28 4 -2 7 3 12 12 12 9 0 16 -7 16 -16z m-1101 -60 c3
-16 1 -17 -13 -5 -19 16 -21 34 -3 29 6 -3 14 -13 16 -24z m-79 -92 c0 -14
-23 -32 -41 -32 -21 0 -33 16 -24 30 7 12 65 14 65 2z m-165 -92 c4 -6 -5 -10
-20 -10 -15 0 -24 4 -20 10 3 6 12 10 20 10 8 0 17 -4 20 -10z m717 -60 c-6
-15 -11 -19 -16 -12 -10 17 4 56 15 45 6 -6 6 -19 1 -33z m-870 -5 c0 -5 -5
-11 -11 -13 -6 -2 -11 4 -11 13 0 9 5 15 11 13 6 -2 11 -8 11 -13z m1767 -118
c14 -17 4 -27 -25 -27 -13 0 -26 -5 -29 -10 -4 -6 -11 -8 -16 -4 -11 6 30 54
47 54 6 0 17 -6 23 -13z m-649 -48 c0 -12 -5 -19 -11 -17 -6 2 -10 7 -10 11 1
4 1 14 1 23 0 8 5 12 10 9 6 -3 10 -15 10 -26z m-60 -24 c0 -8 5 -15 10 -15 6
0 10 -7 10 -15 0 -14 -3 -13 -25 2 -27 20 -33 43 -10 43 8 0 15 -7 15 -15z
m625 -15 c0 -7 -6 -15 -12 -17 -8 -3 -13 4 -13 17 0 13 5 20 13 18 6 -3 12
-11 12 -18z m-1858 -44 c-4 -9 -11 -16 -17 -16 -11 0 -14 33 -3 44 11 10 26
-11 20 -28z m2253 -16 c0 -5 -6 -10 -13 -10 -8 0 -24 -9 -37 -20 -24 -20 -43
-19 -34 4 8 22 84 46 84 26z m-1113 -57 c5 -15 -28 -26 -41 -13 -8 8 -7 14 4
20 17 11 32 8 37 -7z m-97 -73 c0 -5 -9 -10 -20 -10 -11 0 -20 5 -20 10 0 6 9
10 20 10 11 0 20 -4 20 -10z m-53 -37 c-3 -3 -11 -2 -17 2 -9 6 -9 10 1 16 14
8 27 -7 16 -18z m-127 -41 c0 -13 -55 -50 -84 -58 -28 -7 -29 -5 -20 20 4 9
18 16 34 16 16 0 30 7 34 15 6 16 36 21 36 7z m452 -62 c6 0 6 -6 -2 -15 -16
-19 -36 -19 -43 -1 -7 18 3 28 21 21 7 -3 18 -5 24 -5z m-673 -77 c11 -9 18
-20 15 -25 -9 -13 -24 -9 -24 7 0 8 -4 15 -10 15 -5 0 -10 5 -10 10 0 14 7 13
29 -7z m1091 -236 c-12 -13 -50 11 -50 32 0 31 13 32 36 4 12 -16 19 -32 14
-36z m-512 -39 c-3 -24 -28 -34 -56 -23 -15 5 -14 9 8 25 34 26 52 25 48 -2z"/>
<path d="M3775 3871 c-7 -12 12 -24 25 -16 11 7 4 25 -10 25 -5 0 -11 -4 -15
-9z"/>
<path d="M3037 3149 c-46 -24 -167 -138 -167 -157 0 -42 140 56 224 156 19 22
19 22 0 22 -10 -1 -36 -10 -57 -21z"/>
<path d="M2613 2765 c-65 -57 -127 -165 -95 -165 19 0 122 104 146 146 45 80
27 87 -51 19z"/>
<path d="M2221 2314 c-64 -69 -88 -114 -61 -114 28 0 178 169 163 184 -15 15
-36 1 -102 -70z"/>
<path d="M1856 1967 c-62 -60 -79 -87 -56 -87 29 0 170 116 170 140 0 5 -11
10 -24 10 -15 0 -46 -22 -90 -63z"/>
<path d="M1914 4525 c-7 -17 4 -37 17 -30 12 8 12 45 -1 45 -6 0 -13 -7 -16
-15z"/>
<path d="M3785 4530 c3 -5 13 -10 21 -10 8 0 14 5 14 10 0 6 -9 10 -21 10 -11
0 -17 -4 -14 -10z"/>
<path d="M4280 3965 c0 -10 7 -15 18 -13 21 4 19 22 -2 26 -10 2 -16 -3 -16
-13z"/>
<path d="M986 3294 c-9 -22 -8 -24 9 -24 8 0 15 6 15 14 0 22 -17 28 -24 10z"/>
<path d="M3680 1325 c0 -8 7 -15 15 -15 8 0 15 7 15 15 0 8 -7 15 -15 15 -8 0
-15 -7 -15 -15z"/>
<path d="M3560 1265 c0 -16 31 -19 65 -6 16 7 14 9 -14 14 -47 10 -51 9 -51
-8z"/>
</g>
</svg>
