<?xml version="1.0" standalone="no"?>
<!DOCTYPE svg PUBLIC "-//W3C//DTD SVG 20010904//EN"
 "http://www.w3.org/TR/2001/REC-SVG-20010904/DTD/svg10.dtd">
<svg version="1.0" xmlns="http://www.w3.org/2000/svg"
 width="600.000000pt" height="600.000000pt" viewBox="0 0 600.000000 600.000000"
 preserveAspectRatio="xMidYMid meet">
<metadata>
Created by potrace 1.10, written by Peter Selinger 2001-2011
</metadata>
<g transform="translate(0.000000,600.000000) scale(0.100000,-0.100000)"
fill="#e5e5e5" stroke="none">
<path d="M0 3000 l0 -3000 3000 0 3000 0 0 3000 0 3000 -3000 0 -3000 0 0
-3000z m2781 1724 c9 -11 10 -20 3 -32 -9 -14 -80 -59 -124 -79 -8 -3 -31 -19
-51 -35 -20 -15 -42 -28 -48 -28 -18 0 -236 -221 -266 -270 -31 -50 -78 -123
-142 -221 -44 -69 -126 -161 -153 -173 -8 -3 -28 -15 -45 -26 -16 -11 -37 -23
-45 -27 -21 -10 -114 -66 -120 -73 -3 -3 -25 -18 -49 -34 -102 -66 -207 -198
-226 -283 -3 -18 -11 -35 -16 -38 -5 -4 -9 -14 -9 -24 0 -28 -66 -147 -111
-202 -111 -130 -327 -234 -337 -161 -2 14 3 24 15 28 84 29 183 92 248 158 63
65 98 127 135 236 34 102 80 180 145 245 61 62 215 170 315 221 81 41 165 132
244 264 84 140 165 246 243 321 57 55 164 139 193 152 8 4 29 16 45 27 34 22
127 70 136 70 4 0 12 -7 20 -16z m357 -74 c5 -42 -129 -177 -228 -228 -14 -8
-52 -23 -85 -34 -135 -44 -236 -113 -308 -208 -42 -56 -68 -106 -114 -217 -26
-64 -45 -108 -54 -123 -5 -8 -13 -25 -19 -37 -16 -38 -123 -143 -165 -162 -83
-38 -116 -51 -133 -51 -25 -1 -121 -35 -135 -49 -6 -6 -16 -11 -22 -11 -27 0
-145 -148 -145 -182 0 -8 -5 -19 -11 -25 -6 -6 -14 -26 -19 -44 -25 -100 -82
-220 -132 -281 -48 -58 -106 -101 -223 -165 -198 -108 -296 -136 -303 -86 -3
18 6 26 42 42 25 12 48 21 53 21 8 0 106 46 178 83 52 27 121 73 165 111 36
30 100 127 100 150 0 7 7 21 15 32 8 10 15 27 15 36 0 18 11 45 68 171 20 42
40 77 44 77 4 0 8 6 8 14 0 18 91 99 134 119 70 34 105 47 130 47 15 0 34 4
44 9 9 5 43 21 74 37 104 49 150 109 233 304 31 74 78 166 103 203 76 115 234
223 372 255 59 13 183 107 258 196 27 33 56 31 60 -4z m212 -29 c12 -23 3
-105 -15 -141 -7 -14 -19 -38 -26 -54 -27 -57 -115 -141 -183 -174 -36 -18
-69 -32 -74 -32 -22 0 -175 -88 -232 -134 -74 -60 -146 -133 -165 -168 -32
-56 -55 -112 -55 -133 0 -26 -27 -123 -41 -145 -5 -8 -13 -24 -18 -36 -22 -50
-159 -138 -247 -160 -16 -4 -38 -13 -49 -20 -11 -8 -26 -14 -33 -14 -21 0
-123 -70 -167 -116 -39 -39 -98 -147 -145 -264 -56 -138 -83 -181 -146 -237
-58 -51 -97 -80 -150 -109 -11 -6 -52 -28 -90 -49 -38 -20 -76 -44 -85 -51 -8
-8 -19 -14 -23 -14 -25 0 -181 -148 -192 -182 -10 -34 -74 -36 -74 -2 0 61
205 248 335 305 11 5 27 13 35 19 8 5 49 30 90 54 115 69 166 123 204 216 105
254 163 351 253 418 63 47 176 102 268 129 38 12 123 72 149 106 17 23 34 66
47 123 37 161 107 267 254 384 79 63 213 139 249 141 6 0 31 11 56 24 25 13
55 28 66 34 50 23 144 178 144 237 0 22 26 64 40 64 5 0 14 -9 20 -19z m-1211
-49 c11 -20 6 -34 -71 -187 -105 -210 -167 -284 -288 -342 -318 -152 -358
-190 -456 -421 -32 -77 -51 -110 -90 -162 -63 -82 -130 -144 -148 -137 -26 10
-19 56 12 87 66 66 113 131 147 205 20 44 47 103 60 131 31 67 105 164 152
200 48 37 63 46 153 90 179 87 204 101 249 146 26 26 57 66 69 90 13 24 32 57
42 73 18 29 54 99 100 198 24 50 51 62 69 29z m1454 -95 c-3 -41 -13 -67 -97
-248 -34 -74 -103 -140 -174 -168 -181 -72 -273 -122 -344 -187 -44 -41 -100
-107 -111 -134 -4 -8 -11 -22 -16 -30 -5 -8 -16 -31 -25 -50 -48 -108 -76
-172 -76 -175 0 -2 -18 -31 -40 -63 -55 -84 -106 -122 -232 -177 -18 -7 -49
-21 -70 -29 -20 -9 -40 -16 -44 -16 -4 0 -28 -10 -53 -22 -61 -29 -142 -111
-170 -173 -12 -27 -29 -62 -37 -77 -8 -14 -14 -35 -14 -45 0 -22 -29 -106 -52
-149 -50 -93 -207 -216 -398 -310 -85 -42 -138 -80 -193 -137 -40 -42 -103
-143 -113 -182 -8 -31 -29 -49 -49 -41 -22 8 -29 34 -17 59 5 12 19 40 29 62
30 63 67 117 114 165 50 51 165 130 190 130 9 0 22 7 29 15 7 8 16 15 21 15
19 0 168 97 225 147 73 63 116 126 138 208 10 33 24 73 32 88 8 16 14 35 14
43 0 27 88 151 132 187 45 37 183 107 211 107 9 0 50 16 91 36 115 54 178 137
267 354 12 30 35 74 51 98 15 24 28 46 28 50 0 9 77 90 111 117 65 52 121 85
204 120 50 20 104 44 122 51 17 8 35 14 40 14 5 0 25 13 44 30 25 20 53 62 86
132 63 130 83 175 83 191 0 20 23 38 45 35 16 -2 20 -10 18 -41z m230 -108 c9
-14 -31 -93 -124 -239 -5 -8 -12 -22 -15 -30 -20 -59 -71 -144 -98 -165 -17
-14 -36 -29 -42 -34 -14 -11 -80 -46 -129 -67 -22 -9 -47 -21 -55 -25 -8 -5
-32 -18 -53 -29 -46 -25 -71 -46 -160 -130 -69 -65 -124 -146 -186 -275 -18
-38 -43 -90 -55 -113 -45 -93 -122 -161 -221 -196 -127 -45 -196 -82 -257
-136 -82 -74 -118 -132 -174 -282 -55 -147 -86 -201 -158 -273 -68 -67 -150
-117 -221 -136 -100 -26 -181 -75 -227 -138 -35 -48 -84 -126 -94 -151 -13
-33 -48 -96 -62 -113 -14 -16 -16 -16 -34 -1 -10 10 -18 23 -18 30 0 13 87
185 99 194 3 3 14 21 25 40 10 19 46 62 80 96 59 58 90 74 191 104 96 28 155
59 205 110 28 29 80 98 80 107 0 5 5 14 12 21 11 11 34 65 45 107 2 11 11 34
18 50 8 17 24 53 36 80 46 104 149 226 221 264 24 12 50 26 58 30 8 5 51 23
95 41 44 17 95 39 114 48 34 17 106 92 122 127 5 11 13 27 18 35 4 8 30 60 56
115 27 55 61 116 77 136 15 20 28 41 28 46 0 11 130 138 191 186 46 35 130 87
179 109 163 72 179 86 239 228 6 14 23 46 38 72 15 25 41 68 57 95 51 85 75
100 99 62z m231 -233 c9 -15 4 -23 -34 -55 -25 -20 -81 -72 -125 -115 -64 -64
-86 -80 -112 -81 -54 -3 -42 29 45 114 164 160 200 182 226 137z m124 -128
c16 -16 15 -33 -1 -50 -7 -7 -30 -35 -51 -63 -56 -74 -101 -108 -132 -101 -34
9 -25 38 30 91 22 23 58 62 79 88 40 49 54 56 75 35z m-1093 -807 c0 -18 -11
-29 -48 -49 -50 -26 -162 -133 -162 -155 0 -35 85 13 183 105 24 22 45 39 46
37 2 -2 6 -20 9 -40 5 -32 1 -39 -35 -70 -23 -19 -46 -38 -52 -44 -28 -25 -76
-53 -141 -84 -38 -18 -76 -36 -83 -39 -8 -4 -31 -47 -52 -96 -45 -107 -97
-165 -200 -226 -77 -46 -130 -93 -130 -115 0 -27 -81 -153 -133 -206 -46 -48
-161 -129 -182 -129 -11 0 -31 -28 -55 -76 -25 -50 -169 -193 -194 -194 -22 0
-97 -44 -107 -62 -6 -10 -13 -60 -16 -109 -3 -49 -10 -92 -14 -95 -5 -3 -18 0
-29 6 -18 9 -20 21 -20 100 0 88 -8 111 -33 92 -18 -14 -99 -22 -119 -11 -23
12 -23 45 0 58 9 5 47 12 84 16 37 4 73 12 81 19 8 6 24 36 36 66 40 95 129
173 239 206 57 17 66 23 84 59 48 95 95 164 147 215 60 59 134 114 173 129 22
8 41 39 76 121 8 19 19 42 23 50 5 8 13 24 18 35 23 54 104 125 187 165 46 23
84 45 84 50 0 20 82 129 155 207 78 82 180 119 180 64z m123 -376 c7 -14 12
-27 12 -29 0 -10 -164 -82 -235 -103 -47 -15 -136 -77 -167 -116 -30 -37 -75
-124 -112 -212 -80 -192 -220 -345 -376 -409 -72 -30 -113 -48 -143 -62 -16
-8 -33 -14 -38 -14 -12 0 -79 -49 -96 -70 -17 -20 -113 -217 -113 -230 0 -6
-9 -29 -21 -51 -15 -31 -25 -40 -42 -37 -28 4 -34 38 -13 80 9 17 16 36 16 42
0 10 52 126 71 156 5 8 13 25 19 38 21 50 72 96 145 132 33 17 66 30 73 30 7
0 20 4 30 9 9 5 50 26 91 46 167 81 248 171 336 370 82 185 109 227 201 304
19 16 137 69 205 92 35 12 71 27 79 34 13 11 30 18 61 24 3 0 11 -10 17 -24z
m155 -216 c17 -19 17 -21 -5 -39 -12 -10 -43 -28 -68 -41 -25 -12 -57 -28 -72
-36 -14 -7 -33 -13 -41 -13 -9 0 -30 -8 -49 -17 -18 -9 -46 -23 -63 -31 -67
-33 -135 -124 -135 -183 0 -28 -33 -138 -52 -171 -24 -42 -71 -102 -122 -156
-48 -50 -171 -142 -220 -163 -11 -5 -28 -13 -36 -18 -8 -5 -31 -16 -50 -24
-97 -41 -138 -62 -166 -83 -57 -42 -106 -133 -140 -262 -2 -8 -14 -12 -26 -10
-19 2 -24 10 -26 42 -3 37 7 72 47 155 33 70 184 201 231 201 10 0 140 62 175
83 41 25 138 101 170 133 82 81 117 145 140 252 24 109 43 149 97 203 46 46
160 109 197 109 10 0 24 7 31 15 7 8 22 15 34 16 11 0 41 13 66 29 55 35 61
35 83 9z m212 -189 c14 -23 -17 -48 -87 -70 -149 -47 -181 -63 -244 -125 -60
-60 -87 -106 -149 -255 -44 -108 -63 -142 -119 -219 -64 -86 -193 -170 -333
-216 -102 -33 -164 -78 -261 -189 -37 -43 -75 -47 -80 -8 -3 17 18 43 85 110
91 90 176 144 250 158 34 6 89 32 163 77 40 24 160 144 160 160 0 6 6 18 13
26 8 9 35 68 61 131 26 63 52 122 56 130 5 8 19 34 31 57 42 80 169 178 264
204 17 5 53 15 80 23 59 17 101 20 110 6z m178 -166 c11 -14 17 -26 15 -27 -1
-1 -16 -11 -33 -23 -103 -72 -166 -112 -208 -134 -108 -56 -219 -171 -287
-296 -59 -109 -149 -226 -244 -317 -116 -112 -321 -242 -369 -235 -39 5 -28
47 18 72 268 144 401 277 590 596 41 69 147 182 186 200 13 6 33 16 44 23 11
7 57 34 102 60 44 26 92 58 105 71 20 20 42 33 58 35 3 0 13 -11 23 -25z m237
-213 c5 -11 10 -21 10 -24 0 -10 -91 -67 -140 -87 -30 -12 -71 -29 -90 -37
-92 -38 -187 -101 -240 -161 -52 -59 -49 -55 -86 -132 -91 -191 -91 -191 -169
-277 -54 -59 -72 -73 -96 -73 -52 0 -47 26 18 93 93 96 118 134 170 257 47
111 123 206 218 272 49 34 176 98 194 98 5 0 22 7 38 14 15 8 35 17 43 20 19
7 50 27 68 44 20 18 50 15 62 -7z m168 -152 c7 -12 12 -22 10 -24 -14 -12
-106 -45 -127 -45 -14 0 -35 -7 -45 -15 -11 -8 -26 -15 -34 -15 -13 0 -75 -44
-113 -80 -40 -39 -179 -236 -212 -303 -16 -31 -24 -38 -46 -35 -20 2 -27 9
-29 29 -2 14 4 31 12 39 9 7 16 16 16 20 0 5 24 43 53 86 28 42 58 87 65 100
7 13 17 24 22 24 5 0 11 8 14 18 7 22 102 118 136 137 49 27 113 55 125 55 7
0 28 7 46 15 50 21 92 19 107 -6z"/>
<path d="M2636 2787 c-42 -32 -85 -81 -107 -124 -19 -37 -24 -63 -14 -63 13 0
111 81 125 102 61 98 60 133 -4 85z"/>
<path d="M2275 2369 c-66 -48 -149 -169 -115 -169 16 0 99 79 131 127 44 64
38 80 -16 42z"/>
<path d="M1855 1966 c-82 -80 -88 -108 -14 -68 36 19 129 108 129 123 0 5 -11
9 -25 9 -16 0 -45 -20 -90 -64z"/>
</g>
</svg>
