<svg xmlns="http://www.w3.org/2000/svg" viewBox="0 0 400 40" fill="none" preserveAspectRatio="xMidYMid meet">
	<svg width="40" height="40" viewBox="0 0 400 450" fill="white" preserveAspectRatio="xMinYMid meet">
		<rect y="3" width="30" height="30" rx="8" fill="#0A0A0A" />
		<path opacity="1.000000" stroke="none" d="
	M275.000000,401.000000 
		C183.361816,401.000000 92.223633,401.000000 1.042727,401.000000 
		C1.042727,267.736816 1.042727,134.473633 1.042727,1.105217 
		C134.221451,1.105217 267.443024,1.105217 400.832275,1.105217 
		C400.832275,134.333160 400.832275,267.666565 400.832275,401.000000 
		C359.140350,401.000000 317.320190,401.000000 275.000000,401.000000 
	M328.489716,118.647026 
		C328.246460,118.300964 328.003174,117.954903 328.087982,117.044518 
		C340.283234,104.466339 352.478485,91.888168 364.673706,79.309998 
		C364.191376,78.830818 363.709045,78.351639 363.226715,77.872459 
		C357.208588,83.614876 351.190460,89.357292 344.487885,94.810402 
		C343.311127,94.546974 342.134338,94.283546 340.034943,94.161491 
		C302.098480,94.161491 264.162018,94.161491 225.833267,94.161491 
		C225.753815,96.809731 224.356583,99.094421 228.173492,100.309654 
		C238.727066,103.669708 242.498077,111.916862 242.752884,122.164703 
		C243.265854,142.795898 243.577042,163.432098 243.983032,184.066010 
		C244.013550,185.616379 244.135849,187.164963 244.252213,189.429352 
		C252.881119,181.227905 260.908081,173.598587 269.409546,166.306580 
		C269.605591,166.841141 269.801636,167.375687 269.702972,168.524384 
		C246.397903,191.239090 223.092819,213.953796 199.737549,236.717407 
		C191.159027,228.587036 182.901474,220.760864 174.698578,212.986481 
		C172.782486,214.699280 171.311737,216.013977 169.616196,217.529617 
		C177.692093,226.222000 185.465103,234.588348 194.426743,244.234070 
		C183.472702,254.669647 172.779312,264.856873 161.160431,275.016357 
		C160.548019,274.939484 159.935623,274.862610 159.706406,274.191620 
		C160.522903,273.358826 161.241257,272.390167 162.173172,271.717224 
		C165.840820,269.068817 165.994705,266.396179 164.145111,262.074371 
		C156.972641,245.314972 150.374344,228.307419 143.781693,211.307159 
		C143.276413,210.004181 144.252731,207.937286 144.933777,206.399734 
		C146.838242,202.100250 149.070312,197.942810 150.881119,193.607361 
		C151.263840,192.691025 150.403168,191.255325 150.115387,190.058914 
		C148.850464,190.492203 147.547882,190.839691 146.327835,191.375214 
		C142.963959,192.851730 139.361130,196.089355 136.345490,195.599213 
		C128.846146,194.380371 121.620636,191.476685 114.285172,189.249527 
		C114.178543,188.820175 114.071922,188.390808 113.965302,187.961441 
		C123.777367,184.777069 127.313042,176.699326 130.901260,168.296188 
		C137.479050,152.891830 144.946838,137.865372 151.436478,122.426193 
		C156.295425,110.866524 163.756454,102.934242 176.386505,100.579720 
		C180.010345,99.904160 180.911575,97.837837 179.612869,94.519791 
		C157.820328,94.519791 136.072205,94.519791 114.324081,94.519791 
		C113.937019,94.928131 113.549965,95.336479 113.162903,95.744820 
		C114.546066,97.497330 115.582237,99.828743 117.372620,100.901848 
		C125.011612,105.480446 125.701584,106.855255 123.104568,115.444901 
		C122.816254,116.398506 122.518372,117.353760 122.147682,118.277252 
		C115.608711,134.567886 109.259239,150.938950 102.421410,167.103378 
		C99.170471,174.788483 95.630821,182.526154 88.575661,187.699600 
		C88.226242,187.478760 87.980080,187.394379 87.981361,187.313950 
		C88.376122,162.506943 88.597382,137.693665 89.449738,112.902069 
		C89.551926,109.929817 92.679718,106.649055 95.155762,104.303764 
		C97.076408,102.484535 100.104019,101.710670 102.755905,100.817497 
		C106.191383,99.660416 106.973541,97.639282 105.660042,94.576614 
		C83.739128,94.576614 62.005768,94.576614 40.295174,94.576614 
		C40.052750,99.421501 39.976704,99.624863 45.818424,101.809372 
		C51.045410,103.763992 55.618828,106.220467 56.755161,112.204590 
		C57.372742,115.456886 57.709713,118.807785 57.743275,122.118568 
		C58.047287,152.110596 58.256931,182.103561 58.491299,212.096268 
		C58.504833,213.828308 58.493053,215.560532 58.493053,217.768936 
		C51.386486,215.714111 45.146465,214.895508 38.462547,219.099426 
		C39.885288,219.967010 40.716057,220.896790 41.594524,220.944290 
		C51.102242,221.458282 55.622246,225.753189 56.647484,236.874252 
		C58.109871,252.737244 57.671040,268.791412 57.690331,284.764374 
		C57.699184,292.094513 54.087582,297.358704 46.792263,299.673889 
		C45.217785,300.173553 43.506519,300.632751 42.239510,301.606628 
		C40.824642,302.694153 39.844135,304.346771 38.674580,305.753448 
		C39.060429,306.130829 39.446281,306.508209 39.832130,306.885590 
		C61.759323,306.885590 83.686516,306.885590 105.573715,306.885590 
		C106.946342,303.533203 105.505989,302.053528 102.497597,300.967865 
		C96.211273,298.699158 89.627922,296.498077 88.589470,288.428436 
		C88.123070,284.804077 87.831673,281.130676 87.821114,277.478516 
		C87.755104,254.647217 87.786407,231.815628 87.795692,208.984146 
		C87.798470,202.147903 96.228310,197.568237 102.403633,200.941956 
		C110.433571,205.328888 115.212433,212.549149 118.642357,220.532761 
		C125.707207,236.977127 132.213196,253.660828 139.043243,270.207214 
		C141.383316,275.876312 144.004288,281.429474 146.437546,286.902008 
		C148.567261,285.161224 150.195801,283.830109 152.233887,283.160522 
		C152.631088,283.487823 153.028290,283.815125 153.095596,284.753601 
		C148.145340,289.838654 143.190094,294.918884 138.245667,300.009613 
		C113.088631,325.910889 87.926666,351.807404 62.799404,377.737549 
		C61.370029,379.212585 60.232635,380.970520 58.959347,382.596771 
		C59.306732,382.874878 59.654121,383.152985 60.001507,383.431091 
		C67.896812,375.954468 75.844070,368.531830 83.678658,360.992096 
		C121.813416,324.292389 160.029404,287.675903 197.977051,250.783508 
		C212.644196,236.524231 226.678604,221.614120 241.759659,207.008789 
		C242.518066,207.008347 243.276459,207.007904 244.183350,207.933685 
		C243.958206,232.753006 243.776596,257.572845 243.487930,282.391418 
		C243.360413,293.354156 241.211288,296.314362 231.135559,300.270264 
		C230.214035,300.632050 229.331329,301.182587 228.377838,301.356842 
		C224.950485,301.983368 224.929260,304.154419 225.406448,306.689087 
		C226.070572,306.882141 226.385452,307.053955 226.700211,307.053741 
		C264.850281,307.028107 303.000336,307.002106 341.150177,306.892365 
		C342.286713,306.889099 343.747437,306.297363 344.496368,305.471588 
		C347.027740,302.680389 349.306213,299.659821 351.057068,297.497894 
		C346.986237,291.849182 342.369049,287.186493 339.865295,281.580048 
		C335.564453,271.949615 331.975189,261.895355 329.207489,251.714447 
		C326.074493,240.190125 327.677460,228.742722 332.369385,217.652206 
		C337.239868,206.139664 345.890381,198.101303 355.716858,191.065887 
		C358.079010,189.374680 359.534668,187.951309 356.895966,185.291977 
		C353.434845,186.839981 349.950500,188.371750 346.488068,189.951614 
		C332.781097,196.205978 320.865051,204.600677 312.757751,217.707428 
		C300.415131,237.661255 299.795532,259.081757 304.678986,281.182861 
		C305.982117,287.080444 307.688843,292.888885 309.235016,298.833313 
		C294.496277,298.833313 280.315552,298.833313 265.570404,298.833313 
		C266.807861,297.148560 267.462463,295.712311 268.565704,294.850281 
		C273.166931,291.254944 273.664429,286.483429 273.598724,281.056183 
		C273.366669,261.899902 273.391815,242.738220 273.542267,223.580338 
		C273.659332,208.672806 275.556183,194.104645 283.501282,180.996399 
		C287.201202,174.892075 290.823151,168.735458 294.710754,162.752182 
		C296.548859,159.923233 296.140991,158.248520 292.992249,156.563477 
		C292.574158,156.011932 292.156067,155.460403 292.056885,154.305923 
		C298.677429,148.183533 305.298004,142.061142 311.964722,135.896027 
		C311.983276,135.912292 312.876190,136.694733 313.777222,138.182159 
		C319.982971,153.283707 332.280457,159.953690 347.536896,162.359177 
		C348.927795,162.578461 350.511932,161.571793 352.006317,161.134430 
		C351.353149,159.693481 351.077820,157.804794 349.986145,156.883499 
		C342.312439,150.407608 338.407928,142.143875 337.821686,132.246582 
		C337.426331,125.571754 337.215393,118.886009 336.896820,111.632599 
		C334.006195,114.336670 331.509705,116.672043 328.489716,118.647026 
	M188.660873,294.834534 
		C183.578583,289.372955 178.496277,283.911377 173.276962,278.302551 
		C162.617249,288.772888 152.413361,297.908905 145.733124,310.084229 
		C139.929047,320.662628 137.367126,331.336304 146.208466,343.326904 
		C147.147644,341.155792 148.236084,339.747772 148.283768,338.305389 
		C148.392670,335.010345 147.527954,331.646332 147.891968,328.403900 
		C148.742310,320.829468 153.510651,315.730072 159.892197,312.257446 
		C165.861816,309.009033 170.876801,312.235260 175.360962,315.816559 
		C181.333435,320.586487 187.305801,325.422974 192.766693,330.754761 
		C210.266647,347.841064 230.383820,359.924744 254.428604,365.525696 
		C277.869507,370.985992 300.701721,370.330292 323.299530,360.852570 
		C322.996826,360.365387 322.733826,359.801971 322.345551,359.344971 
		C321.386230,358.215912 320.369446,357.135620 319.411102,356.074860 
		C318.272888,356.418701 317.284607,356.593323 316.404297,357.001068 
		C289.605896,369.412903 264.838135,362.443726 241.124878,348.543915 
		C236.681213,345.939209 232.333511,341.375061 230.485001,336.707733 
		C229.010162,332.983917 227.375366,330.215027 224.551300,327.665741 
		C212.689301,316.957947 200.911743,306.156616 188.660873,294.834534 
	M220.177124,210.604126 
		C222.820389,208.867310 223.298233,207.070023 221.460648,204.091980 
		C216.581650,196.184967 212.114655,188.024033 207.466461,179.974121 
		C204.969543,175.649826 202.436951,171.346146 199.626251,166.528931 
		C191.540543,180.676361 183.903015,194.039597 177.130859,205.888733 
		C184.936752,214.448242 192.174347,222.384583 199.718369,230.656952 
		C206.656204,223.876953 213.174454,217.506989 220.177124,210.604126 
	z" />
		<path fill="black" opacity="1.000000" stroke="none" d="
	M151.824341,282.498993 
		C150.195801,283.830109 148.567261,285.161224 146.437546,286.902008 
		C144.004288,281.429474 141.383316,275.876312 139.043243,270.207214 
		C132.213196,253.660828 125.707207,236.977127 118.642357,220.532761 
		C115.212433,212.549149 110.433571,205.328888 102.403633,200.941956 
		C96.228310,197.568237 87.798470,202.147903 87.795692,208.984146 
		C87.786407,231.815628 87.755104,254.647217 87.821114,277.478516 
		C87.831673,281.130676 88.123070,284.804077 88.589470,288.428436 
		C89.627922,296.498077 96.211273,298.699158 102.497597,300.967865 
		C105.505989,302.053528 106.946342,303.533203 105.573715,306.885590 
			C83.686516,306.885590 61.759323,306.885590 39.832130,306.885590 
			C39.446281,306.508209 39.060429,306.130829 38.674580,305.753448 
			C39.844135,304.346771 40.824642,302.694153 42.239510,301.606628 
			C43.506519,300.632751 45.217785,300.173553 46.792263,299.673889 
			C54.087582,297.358704 57.699184,292.094513 57.690331,284.764374 
			C57.671040,268.791412 58.109871,252.737244 56.647484,236.874252 
			C55.622246,225.753189 51.102242,221.458282 41.594524,220.944290 
			C40.716057,220.896790 39.885288,219.967010 38.462547,219.099426 
			C45.146465,214.895508 51.386486,215.714111 58.493053,217.768936 
			C58.493053,215.560532 58.504833,213.828308 58.491299,212.096268 
			C58.256931,182.103561 58.047287,152.110596 57.743275,122.118568 
			C57.709713,118.807785 57.372742,115.456886 56.755161,112.204590 
			C55.618828,106.220467 51.045410,103.763992 45.818424,101.809372 
			C39.976704,99.624863 40.052750,99.421501 40.295174,94.576614 
		C62.005768,94.576614 83.739128,94.576614 105.660042,94.576614 
		C106.973541,97.639282 106.191383,99.660416 102.755905,100.817497 
		C100.104019,101.710670 97.076408,102.484535 95.155762,104.303764 
		C92.679718,106.649055 89.551926,109.929817 89.449738,112.902069 
		C88.597382,137.693665 88.376122,162.506943 87.981361,187.313950 
		C87.980080,187.394379 88.226242,187.478760 88.575661,187.699600 
		C95.630821,182.526154 99.170471,174.788483 102.421410,167.103378 
		C109.259239,150.938950 115.608711,134.567886 122.147682,118.277252 
		C122.518372,117.353760 122.816254,116.398506 123.104568,115.444901 
		C125.701584,106.855255 125.011612,105.480446 117.372620,100.901848 
		C115.582237,99.828743 114.546066,97.497330 113.162903,95.744820 
		C113.549965,95.336479 113.937019,94.928131 114.324081,94.519791 
		C136.072205,94.519791 157.820328,94.519791 179.612869,94.519791 
		C180.911575,97.837837 180.010345,99.904160 176.386505,100.579720 
		C163.756454,102.934242 156.295425,110.866524 151.436478,122.426193 
		C144.946838,137.865372 137.479050,152.891830 130.901260,168.296188 
		C127.313042,176.699326 123.777367,184.777069 113.965302,187.961441 
		C114.071922,188.390808 114.178543,188.820175 114.285172,189.249527 
		C121.620636,191.476685 128.846146,194.380371 136.345490,195.599213 
		C139.361130,196.089355 142.963959,192.851730 146.327835,191.375214 
		C147.547882,190.839691 148.850464,190.492203 150.115387,190.058929 
		C150.403168,191.255325 151.263840,192.691025 150.881119,193.607361 
		C149.070312,197.942810 146.838242,202.100250 144.933777,206.399734 
		C144.252731,207.937286 143.276413,210.004181 143.781693,211.307159 
		C150.374344,228.307419 156.972641,245.314972 164.145111,262.074371 
		C165.994705,266.396179 165.840820,269.068817 162.173172,271.717224 
		C161.241257,272.390167 160.522903,273.358826 159.228516,274.608032 
		C156.441879,277.515961 154.133118,280.007477 151.824341,282.498993 
	z" />
		<path fill="black" opacity="1.000000" stroke="none" d="
	M293.047546,157.116592 
		C296.140991,158.248520 296.548859,159.923233 294.710754,162.752182 
		C290.823151,168.735458 287.201202,174.892075 283.501282,180.996399 
		C275.556183,194.104645 273.659332,208.672806 273.542267,223.580338 
		C273.391815,242.738220 273.366669,261.899902 273.598724,281.056183 
		C273.664429,286.483429 273.166931,291.254944 268.565704,294.850281 
		C267.462463,295.712311 266.807861,297.148560 265.570404,298.833313 
		C280.315552,298.833313 294.496277,298.833313 309.235016,298.833313 
		C307.688843,292.888885 305.982117,287.080444 304.678986,281.182861 
		C299.795532,259.081757 300.415131,237.661255 312.757751,217.707428 
		C320.865051,204.600677 332.781097,196.205978 346.488068,189.951614 
		C349.950500,188.371750 353.434845,186.839981 356.895966,185.291977 
		C359.534668,187.951309 358.079010,189.374680 355.716858,191.065887 
		C345.890381,198.101303 337.239868,206.139664 332.369385,217.652206 
		C327.677460,228.742722 326.074493,240.190125 329.207489,251.714447 
		C331.975189,261.895355 335.564453,271.949615 339.865295,281.580048 
		C342.369049,287.186493 346.986237,291.849182 351.057068,297.497894 
		C349.306213,299.659821 347.027740,302.680389 344.496368,305.471588 
		C343.747437,306.297363 342.286713,306.889099 341.150177,306.892365 
		C303.000336,307.002106 264.850281,307.028107 226.700211,307.053741 
		C226.385452,307.053955 226.070572,306.882141 225.406448,306.689087 
		C224.929260,304.154419 224.950485,301.983368 228.377838,301.356842 
		C229.331329,301.182587 230.214035,300.632050 231.135559,300.270264 
		C241.211288,296.314362 243.360413,293.354156 243.487930,282.391418 
		C243.776596,257.572845 243.958206,232.753006 244.311371,207.206635 
		C260.642120,190.025253 276.844849,173.570923 293.047546,157.116592 
	z" />
		<path fill="black" opacity="1.000000" stroke="none" d="
	M268.935028,165.969269 
		C260.908081,173.598587 252.881119,181.227905 244.252213,189.429352 
		C244.135849,187.164963 244.013550,185.616379 243.983032,184.066010 
		C243.577042,163.432098 243.265854,142.795898 242.752884,122.164703 
		C242.498077,111.916862 238.727066,103.669708 228.173492,100.309654 
		C224.356583,99.094421 225.753815,96.809731 225.833267,94.161491 
		C264.162018,94.161491 302.098480,94.161491 340.797852,94.363800 
		C340.780792,95.552139 340.090118,96.627434 339.207123,97.510429 
		C330.072388,106.645081 320.906616,115.748711 311.350372,125.023453 
		C310.370941,124.268433 309.277405,123.342506 309.292328,122.434769 
		C309.401703,115.767639 309.732788,109.104149 309.988098,102.591309 
		C298.306488,102.591309 286.228302,102.591309 273.826202,102.591309 
		C273.826202,119.434746 273.634796,135.911194 273.935028,152.378677 
		C274.033691,157.791962 273.582031,162.525558 268.935028,165.969269 
	z" />
		<path fill="black" opacity="1.000000" stroke="none" d="
	M188.882080,295.112030 
		C200.911743,306.156616 212.689301,316.957947 224.551300,327.665741 
		C227.375366,330.215027 229.010162,332.983917 230.485001,336.707733 
		C232.333511,341.375061 236.681213,345.939209 241.124878,348.543915 
		C264.838135,362.443726 289.605896,369.412903 316.404297,357.001068 
		C317.284607,356.593323 318.272888,356.418701 319.411102,356.074860 
		C320.369446,357.135620 321.386230,358.215912 322.345551,359.344971 
		C322.733826,359.801971 322.996826,360.365387 323.299530,360.852570 
		C300.701721,370.330292 277.869507,370.985992 254.428604,365.525696 
		C230.383820,359.924744 210.266647,347.841064 192.766693,330.754761 
		C187.305801,325.422974 181.333435,320.586487 175.360962,315.816559 
		C170.876801,312.235260 165.861816,309.009033 159.892197,312.257446 
		C153.510651,315.730072 148.742310,320.829468 147.891968,328.403900 
		C147.527954,331.646332 148.392670,335.010345 148.283768,338.305389 
		C148.236084,339.747772 147.147644,341.155792 146.208466,343.326904 
		C137.367126,331.336304 139.929047,320.662628 145.733124,310.084229 
		C152.413361,297.908905 162.617249,288.772888 173.276962,278.302551 
		C178.496277,283.911377 183.578583,289.372955 188.882080,295.112030 
	z" />
		<path fill="black" opacity="1.000000" stroke="none" d="
	M162.085938,275.044128 
		C172.779312,264.856873 183.472702,254.669647 194.426743,244.234070 
		C185.465103,234.588348 177.692093,226.222000 169.616196,217.529617 
		C171.311737,216.013977 172.782486,214.699280 174.698578,212.986481 
		C182.901474,220.760864 191.159027,228.587036 199.737549,236.717407 
		C223.092819,213.953796 246.397903,191.239090 270.165344,168.112152 
		C284.799866,153.891647 298.972015,140.083374 313.456482,126.140915 
		C324.236633,115.704391 334.704468,105.402046 345.172302,95.099709 
		C351.190460,89.357292 357.208588,83.614876 363.226715,77.872459 
		C363.709045,78.351639 364.191376,78.830818 364.673706,79.309998 
		C352.478485,91.888168 340.283234,104.466339 327.610474,117.458359 
		C323.759338,120.793983 320.385681,123.715759 317.012024,126.637543 
		C317.389801,127.092262 317.767609,127.546982 318.145386,128.001709 
		C318.767242,128.079437 319.389130,128.157181 319.953125,128.566299 
		C317.853210,131.757507 315.811157,134.617325 313.769104,137.477142 
		C312.876190,136.694733 311.983276,135.912292 311.964722,135.896027 
		C305.298004,142.061142 298.677429,148.183533 291.592346,154.725952 
		C287.768433,158.590164 284.393890,162.019775 281.052246,165.481125 
		C267.696350,179.315567 254.350708,193.159851 241.001266,207.000504 
		C226.678604,221.614120 212.644196,236.524231 197.977051,250.783508 
		C160.029404,287.675903 121.813416,324.292389 83.678658,360.992096 
		C75.844070,368.531830 67.896812,375.954468 60.001507,383.431091 
		C59.654121,383.152985 59.306732,382.874878 58.959347,382.596771 
		C60.232635,380.970520 61.370029,379.212585 62.799404,377.737549 
		C87.926666,351.807404 113.088631,325.910889 138.245667,300.009613 
		C143.190094,294.918884 148.145340,289.838654 153.554077,284.325134 
		C156.703690,280.945831 159.394821,277.994965 162.085938,275.044128 
	z" />
		<path fill="white" opacity="1.000000" stroke="none" d="
	M313.144165,126.275085 
		C298.972015,140.083374 284.799866,153.891647 270.312683,167.805084 
		C269.801636,167.375687 269.605591,166.841141 269.172302,166.137924 
		C273.582031,162.525558 274.033691,157.791962 273.935028,152.378677 
		C273.634796,135.911194 273.826202,119.434746 273.826202,102.591309 
		C286.228302,102.591309 298.306488,102.591309 309.988098,102.591309 
		C309.732788,109.104149 309.401703,115.767639 309.292328,122.434769 
		C309.277405,123.342506 310.370941,124.268433 311.635529,125.203079 
		C312.594574,125.571831 312.869385,125.923462 313.144165,126.275085 
	z" />
		<path fill="black" opacity="1.000000" stroke="none" d="
	M219.934906,210.870575 
		C213.174454,217.506989 206.656204,223.876953 199.718369,230.656952 
		C192.174347,222.384583 184.936752,214.448242 177.130859,205.888733 
		C183.903015,194.039597 191.540543,180.676361 199.626251,166.528931 
		C202.436951,171.346146 204.969543,175.649826 207.466461,179.974121 
		C212.114655,188.024033 216.581650,196.184967 221.460648,204.091980 
		C223.298233,207.070023 222.820389,208.867310 219.934906,210.870575 
	z" />
		<path fill="black" opacity="1.000000" stroke="none" d="
	M313.773163,137.829651 
		C315.811157,134.617325 317.853210,131.757507 320.241699,128.381821 
		C323.396454,124.913101 326.204834,121.960251 329.013214,119.007401 
		C331.509705,116.672043 334.006195,114.336670 336.896820,111.632599 
		C337.215393,118.886009 337.426331,125.571754 337.821686,132.246582 
		C338.407928,142.143875 342.312439,150.407608 349.986145,156.883499 
		C351.077820,157.804794 351.353149,159.693481 352.006348,161.134430 
		C350.511932,161.571793 348.927795,162.578461 347.536896,162.359177 
		C332.280457,159.953690 319.982971,153.283707 313.773163,137.829651 
	z" />
		<path fill="black" opacity="1.000000" stroke="none" d="
	M241.380463,207.004639 
		C254.350708,193.159851 267.696350,179.315567 281.052246,165.481125 
		C284.393890,162.019775 287.768433,158.590164 291.432922,155.027405 
		C292.156067,155.460403 292.574158,156.011932 293.019897,156.840027 
		C276.844849,173.570923 260.642120,190.025253 244.237137,206.743515 
		C243.276459,207.007904 242.518066,207.008347 241.380463,207.004639 
	z" />
		<path fill="black" opacity="1.000000" stroke="none" d="
	M313.456482,126.140907 
		C312.869385,125.923462 312.594574,125.571831 312.034637,125.040588 
		C320.906616,115.748711 330.072388,106.645081 339.207123,97.510429 
		C340.090118,96.627434 340.780792,95.552139 341.259155,94.293114 
		C342.134338,94.283546 343.311127,94.546974 344.830078,94.955048 
		C334.704468,105.402046 324.236633,115.704391 313.456482,126.140907 
	z" />
		<path fill="black" opacity="1.000000" stroke="none" d="
	M161.623184,275.030243 
		C159.394821,277.994965 156.703690,280.945831 153.719025,284.019531 
		C153.028290,283.815125 152.631088,283.487823 152.029114,282.829773 
		C154.133118,280.007477 156.441879,277.515961 159.036926,274.905090 
		C159.935623,274.862610 160.548019,274.939484 161.623184,275.030243 
	z" />
		<path fill="black" opacity="1.000000" stroke="none" d="
	M328.751465,118.827209 
		C326.204834,121.960251 323.396454,124.913101 320.299561,128.050430 
		C319.389130,128.157181 318.767242,128.079437 318.145386,128.001709 
		C317.767609,127.546982 317.389801,127.092262 317.012024,126.637543 
		C320.385681,123.715759 323.759338,120.793983 327.446442,117.740524 
		C328.003174,117.954903 328.246460,118.300964 328.751465,118.827209 
	z" />
	</svg>
	<text x="50" y="24" font-family="satoshi-bold" font-size="35" fill="white" text-anchor="right"
		alignment-baseline="middle">Kingdoms of Ether</text>
</svg>